<?xml version="1.0" encoding="utf-8"?>
<!-- Generator: Adobe Illustrator 19.2.1, SVG Export Plug-In . SVG Version: 6.00 Build 0)  -->
<svg version="1.1" id="Layer_1" xmlns="http://www.w3.org/2000/svg" xmlns:xlink="http://www.w3.org/1999/xlink" x="0px" y="0px"
	 viewBox="0 0 50 200" style="enable-background:new 0 0 50 200;" xml:space="preserve">
<style type="text/css">
	.st0{fill:none;}
	.st1{fill:#5D5A61;}
	.st2{fill:none;stroke:#5D5A61;stroke-width:2;stroke-miterlimit:10;}
	.st3{fill:none;stroke:#5D5A61;stroke-width:2;stroke-linecap:round;stroke-linejoin:round;stroke-miterlimit:10;}
</style>
<g>
	<rect y="50" class="st0" width="50" height="50"/>
	<g>
		<path class="st1" d="M31.3,88.8c-0.3,0-0.6,0-1-0.1c0,0-6.4-0.5-12.4-6.6c-5.9-5.8-6.4-11.8-6.5-12.3c-0.4-4,1.4-7.3,4.8-8.5
			c1.3-0.5,2.7,0.2,3.3,1.4l1.6,3.5c0.5,1,0.2,2.2-0.5,3l-2.2,2.2c0.2,0.6,1,2.4,3.8,5.2c2.8,2.8,4.6,3.6,5.3,3.8l2.2-2.2
			c0.8-0.8,2.1-1,3.1-0.5l4.1,2.1c1.2,0.6,1.7,1.9,1.4,3.1C37.4,86.7,34.8,88.8,31.3,88.8z M17.2,62.9c-0.1,0-0.2,0-0.3,0.1
			c-2.7,1-4.1,3.5-3.7,6.8l0,0c0,0.1,0.5,5.8,6,11.2c5.5,5.5,11.3,6.1,11.4,6.1c3.1,0.3,5.4-1.2,6.4-4.3c0.1-0.5-0.1-1-0.6-1.2
			l-4.1-2.1c-0.4-0.2-0.9-0.1-1.2,0.2l-2.7,2.7l-0.4,0c-0.2,0-2.5-0.3-6.6-4.4c-4.2-4.2-4.4-6.4-4.4-6.6l0-0.3l2.8-2.8
			c0.3-0.3,0.4-0.8,0.2-1.2l-1.6-3.5C18,63.1,17.6,62.9,17.2,62.9z"/>
	</g>
</g>
<g>
	<rect y="100" class="st0" width="50" height="50"/>
	<g>
		<g>
			<path class="st1" d="M35.7,138.8H14.3c-1.7,0-3-1.3-3-3v-12.9c0-0.9,0.4-1.7,1.1-2.3l9.8-8.3c1.6-1.4,4-1.4,5.6,0l9.8,8.3
				c0.7,0.6,1.1,1.4,1.1,2.3v12.9C38.7,137.4,37.3,138.8,35.7,138.8z M25,112.9c-0.6,0-1.2,0.2-1.7,0.6l-9.8,8.3
				c-0.3,0.3-0.5,0.6-0.5,1.1v12.9c0,0.8,0.6,1.4,1.4,1.4h21.3c0.8,0,1.4-0.6,1.4-1.4v-12.9c0-0.4-0.2-0.8-0.5-1.1l-9.8-8.3
				C26.3,113.1,25.6,112.9,25,112.9z"/>
		</g>
		<g>
			<path class="st1" d="M24.9,130.9c-0.1,0-0.3,0-0.4-0.1L14,124.9c-0.4-0.2-0.5-0.7-0.3-1.1c0.2-0.4,0.7-0.5,1.1-0.3l10.1,5.6
				l10.1-5.6c0.4-0.2,0.9-0.1,1.1,0.3c0.2,0.4,0.1,0.9-0.3,1.1l-10.5,5.8C25.2,130.8,25.1,130.9,24.9,130.9z"/>
		</g>
		<g>
			<path class="st1" d="M31.5,127c-0.4,0-0.8-0.4-0.8-0.8V121H19.3v5.1c0,0.4-0.4,0.8-0.8,0.8c-0.4,0-0.8-0.4-0.8-0.8v-5.9
				c0-0.4,0.4-0.8,0.8-0.8h13c0.4,0,0.8,0.4,0.8,0.8v5.9C32.3,126.6,32,127,31.5,127z"/>
		</g>
		<g>
			<path class="st1" d="M28.6,124h-7.3c-0.4,0-0.8-0.4-0.8-0.8s0.4-0.8,0.8-0.8h7.3c0.4,0,0.8,0.4,0.8,0.8S29.1,124,28.6,124z"/>
		</g>
		<g>
			<path class="st1" d="M28.6,126.1h-7.3c-0.4,0-0.8-0.4-0.8-0.8c0-0.4,0.4-0.8,0.8-0.8h7.3c0.4,0,0.8,0.4,0.8,0.8
				C29.5,125.8,29.1,126.1,28.6,126.1z"/>
		</g>
	</g>
</g>
<g>
	<rect y="150" class="st0" width="50" height="50"/>
	<path class="st1" d="M44.5,178c0-0.7-0.4-1.2-1-1.5v-5.3c0-0.7-0.5-1.3-1.2-1.3c-0.1-0.1-0.2-0.1-0.2-0.2l-17.7-8.1
		c-0.2-0.1-0.5-0.1-0.7,0L6,169.7c-0.3,0.1-0.5,0.4-0.5,0.8c0,0.3,0.2,0.6,0.5,0.8l7.5,3.4h0v9.3c0,2.4,5.1,4.6,10.6,4.6
		s10.6-2.2,10.6-4.6v-9.3h0l7.5-3.4c0.1,0,0.1-0.1,0.2-0.1c0,0,0.1,0.1,0.1,0.1v5.3c-0.6,0.2-1,0.8-1,1.5c0,0.7,0.4,1.2,1,1.5v4.1
		c0,0.3,0.3,0.6,0.6,0.6s0.6-0.3,0.6-0.6v-4.1C44.1,179.2,44.5,178.7,44.5,178z M24,163.2l14.4,6.6H24c-0.3,0-0.6,0.3-0.6,0.6
		c0,0.3,0.3,0.6,0.6,0.6h14.4L24,177.6l-15.7-7.2L24,163.2z M33,183.9c0,0.8-3.5,2.9-9,2.9c-5.5,0-9-2.2-9-2.9v-8.6l8.6,3.9
		c0.1,0.1,0.2,0.1,0.3,0.1c0.1,0,0.2,0,0.3-0.1l8.6-3.9V183.9z"/>
</g>
<g>
	<rect class="st0" width="50" height="50"/>
	<g>
		<path class="st2" d="M35.1,34.3L30.4,31c-0.4-0.3-1-0.3-1.4,0l-4,2.4L21,31c-0.4-0.3-1-0.2-1.4,0l-4.6,3.2
			c-1.6,1.1-2.5,2.7-2.5,4.7H25h12.5C37.5,37,36.6,35.3,35.1,34.3z"/>
		<path class="st3" d="M28.6,31.3c0,0-0.8-0.9-0.8-3.6c1.9-1.8,2.4-3.7,2.4-3.7s1.4,0.2,1.8-2.1c0.3-2-1.1-2-1.1-2s0.2-4.1-2.1-5.5
			c-2.1-2.4-3.9-1.9-5.3-3.2c-0.6,1-0.7,2-0.7,2l-1.4,0.6c-0.3,0.1-0.5,0.2-0.7,0.4c-1.9,1.9-1.5,5.7-1.5,5.7s-1.4,0.1-1.1,2
			c0.4,2.4,1.8,2.1,1.8,2.1s0.5,1.9,2.4,3.7c-0.1,2.6-0.8,3.6-0.8,3.6"/>
	</g>
</g>
</svg>
