<?xml version="1.0" encoding="utf-8"?>
<!-- Generator: Adobe Illustrator 19.2.1, SVG Export Plug-In . SVG Version: 6.00 Build 0)  -->
<svg version="1.1" id="Layer_1" xmlns="http://www.w3.org/2000/svg" xmlns:xlink="http://www.w3.org/1999/xlink" x="0px" y="0px"
	 viewBox="0 0 139.9 67.4" style="enable-background:new 0 0 139.9 67.4;" xml:space="preserve">
<style type="text/css">
	.st0{fill:#98C21F;}
	.st1{fill:#757B82;}
	.st2{fill:none;stroke:#98C21F;stroke-width:0.693;stroke-miterlimit:3.864;}
	.st3{fill:none;stroke:#98C21F;stroke-width:0.713;stroke-miterlimit:3.864;}
	.st4{fill:#FFFFFF;}
</style>
<rect x="0.4" y="38.3" class="st0" width="139.1" height="14.7"/>
<path class="st1" d="M40.9,0c4.9,0,9,1.6,12.3,4.9c3.3,3.3,4.9,7.3,4.9,12.1c0,4.7-1.6,8.8-4.9,12.1c-3.3,3.3-7.3,5-12,5
	c-4.8,0-8.5-1.3-12.1-4.9L49,17.2l-20.4-12c0,0,1.3-1.4,3.9-2.9C35.1,0.8,37.9,0,40.9,0 M41.1,3.2c-2.4,0-4.7,0.6-6.8,1.9
	c-2.1,1.2-3.9,3.1-5,5c-1.2,2.1-1.8,4.5-1.8,7.1c0,3.8,1.6,6.9,4,9.7c2.7,2.7,5.8,4,9.6,4c2.5,0,4.8-0.6,7-1.8s3.8-2.9,5-5
	c1.2-2.1,1.8-4.5,1.8-7c0-2.6-0.6-4.9-1.8-7c-1.2-2.1-2.9-3.7-5.1-5C45.9,3.8,43.6,3.2,41.1,3.2"/>
<path class="st1" d="M62.7,9.2h3.1v4.3c1.2-1.6,2.6-2.9,4.1-3.7c1.5-0.8,3.1-1.2,4.9-1.2c1.8,0,3.4,0.5,4.8,1.4
	c1.4,0.9,2.4,2.1,3.1,3.7c0.7,1.5,1,3.9,1,7.2v12.3h-3.1V21.8c0-2.8-0.1-4.6-0.4-5.5c-0.4-1.6-1.1-2.8-2.1-3.6c-1-0.8-2.3-1.2-4-1.2
	c-1.9,0-3.5,0.6-5,1.8c-1.5,1.2-2.5,2.8-2.9,4.6c-0.3,1.2-0.4,3.4-0.4,6.5v8.8h-3.1V9.2z"/>
<path class="st1" d="M99.9,8.7c3.7,0,6.8,1.3,9.2,4c2.2,2.4,3.3,5.3,3.3,8.6c0,3.3-1.2,6.3-3.5,8.8c-2.3,2.5-5.3,3.7-9,3.7
	c-3.7,0-6.7-1.2-9-3.7c-2.3-2.5-3.5-5.4-3.5-8.8c0-3.3,1.1-6.2,3.3-8.6C93.1,10,96.2,8.7,99.9,8.7 M99.9,11.7
	c-2.6,0-4.8,0.9-6.6,2.8c-1.8,1.9-2.8,4.2-2.8,6.8c0,1.7,0.4,3.3,1.3,4.8c0.8,1.5,2,2.6,3.4,3.5c1.4,0.8,3,1.2,4.7,1.2
	c1.7,0,3.3-0.4,4.7-1.2c1.4-0.8,2.6-2,3.4-3.5c0.8-1.5,1.3-3.1,1.3-4.8c0-2.7-0.9-5-2.8-6.8C104.6,12.6,102.4,11.7,99.9,11.7"/>
<path class="st0" d="M48.5,17.2L31.7,7.3c0,0-4.3,4.1-4.1,9.8C27.7,22.9,32,27,32,27L48.5,17.2z"/>
<path class="st2" d="M48.5,17.2L31.7,7.3c0,0-4.3,4.1-4.1,9.8C27.7,22.9,32,27,32,27L48.5,17.2z"/>
<path class="st1" d="M4.8,60.9c0-1.4,0.4-2.5,1.1-3.2c0.7-0.8,1.7-1.2,2.9-1.2c0.8,0,1.5,0.2,2.1,0.5c0.6,0.4,1.1,0.9,1.4,1.5
	c0.3,0.7,0.5,1.4,0.5,2.2c0,0.8-0.2,1.6-0.5,2.3c-0.3,0.7-0.8,1.2-1.4,1.5c-0.6,0.3-1.3,0.5-2,0.5c-0.8,0-1.5-0.2-2.1-0.6
	c-0.6-0.4-1.1-0.9-1.4-1.5C5,62.3,4.8,61.6,4.8,60.9 M5.9,60.9c0,1,0.3,1.8,0.8,2.4c0.5,0.6,1.2,0.9,2,0.9c0.8,0,1.5-0.3,2-0.9
	c0.5-0.6,0.8-1.4,0.8-2.5c0-0.7-0.1-1.3-0.3-1.8c-0.2-0.5-0.6-0.9-1-1.2c-0.4-0.3-0.9-0.4-1.5-0.4c-0.8,0-1.4,0.3-2,0.8
	C6.2,58.8,5.9,59.7,5.9,60.9"/>
<path class="st1" d="M14.8,64.9v-6h0.9v0.9c0.4-0.7,1.1-1,1.9-1c0.4,0,0.7,0.1,1,0.2c0.3,0.1,0.5,0.3,0.7,0.5
	c0.2,0.2,0.3,0.5,0.3,0.8c0,0.2,0.1,0.5,0.1,1v3.7h-1v-3.7c0-0.4,0-0.7-0.1-0.9c-0.1-0.2-0.2-0.4-0.4-0.5c-0.2-0.1-0.4-0.2-0.7-0.2
	c-0.4,0-0.8,0.1-1.1,0.4c-0.3,0.3-0.5,0.8-0.5,1.6v3.3H14.8z"/>
<path class="st1" d="M21.6,61.9c0-1.1,0.3-1.9,0.9-2.5c0.5-0.4,1.1-0.7,1.9-0.7c0.8,0,1.5,0.3,2,0.8c0.5,0.5,0.8,1.3,0.8,2.2
	c0,0.8-0.1,1.4-0.3,1.8c-0.2,0.4-0.6,0.8-1,1c-0.4,0.2-0.9,0.4-1.4,0.4c-0.8,0-1.5-0.3-2-0.8C21.8,63.7,21.6,62.9,21.6,61.9
	 M22.6,61.9c0,0.8,0.2,1.3,0.5,1.7c0.3,0.4,0.8,0.6,1.3,0.6c0.5,0,0.9-0.2,1.3-0.6c0.3-0.4,0.5-1,0.5-1.8c0-0.7-0.2-1.3-0.5-1.7
	c-0.3-0.4-0.8-0.6-1.3-0.6c-0.5,0-0.9,0.2-1.3,0.6S22.6,61.2,22.6,61.9"/>
<path class="st1" d="M31.8,64.9l3.2-8.3h1.2l3.4,8.3h-1.2l-1-2.5h-3.5l-0.9,2.5H31.8z M34.1,61.5H37l-0.9-2.3
	c-0.3-0.7-0.5-1.3-0.6-1.7c-0.1,0.5-0.3,1.1-0.5,1.6L34.1,61.5z"/>
<path class="st1" d="M44.9,62.7l1,0.1c-0.1,0.7-0.4,1.2-0.8,1.6c-0.4,0.4-1,0.6-1.7,0.6c-0.8,0-1.5-0.3-2-0.8
	c-0.5-0.5-0.7-1.3-0.7-2.3c0-0.6,0.1-1.2,0.3-1.7c0.2-0.5,0.5-0.8,1-1.1c0.4-0.2,0.9-0.4,1.4-0.4c0.7,0,1.2,0.2,1.6,0.5
	c0.4,0.3,0.7,0.8,0.8,1.4l-1,0.2c-0.1-0.4-0.3-0.7-0.5-0.9c-0.2-0.2-0.5-0.3-0.9-0.3c-0.5,0-0.9,0.2-1.2,0.6
	c-0.3,0.4-0.5,0.9-0.5,1.7c0,0.8,0.2,1.4,0.5,1.8c0.3,0.4,0.7,0.5,1.2,0.5c0.4,0,0.7-0.1,1-0.4C44.7,63.6,44.9,63.2,44.9,62.7"/>
<path class="st1" d="M51.5,64.2c-0.4,0.3-0.7,0.5-1.1,0.7c-0.3,0.1-0.7,0.2-1.1,0.2c-0.7,0-1.2-0.2-1.5-0.5
	c-0.4-0.3-0.5-0.7-0.5-1.2c0-0.3,0.1-0.6,0.2-0.8c0.1-0.2,0.3-0.4,0.5-0.6c0.2-0.1,0.5-0.3,0.7-0.3c0.2-0.1,0.5-0.1,0.9-0.2
	c0.8-0.1,1.4-0.2,1.8-0.3c0-0.1,0-0.2,0-0.3c0-0.4-0.1-0.7-0.3-0.9c-0.3-0.2-0.6-0.3-1.2-0.3c-0.5,0-0.8,0.1-1.1,0.3
	c-0.2,0.2-0.4,0.5-0.5,0.9l-1-0.1c0.1-0.4,0.2-0.8,0.4-1c0.2-0.3,0.5-0.5,0.9-0.6c0.4-0.1,0.8-0.2,1.4-0.2c0.5,0,0.9,0.1,1.3,0.2
	c0.3,0.1,0.6,0.3,0.7,0.5c0.2,0.2,0.3,0.4,0.3,0.7c0,0.2,0.1,0.5,0.1,0.9v1.4c0,0.9,0,1.5,0.1,1.8c0,0.3,0.1,0.5,0.2,0.7h-1.1
	C51.6,64.7,51.5,64.5,51.5,64.2 M51.4,61.9c-0.4,0.2-0.9,0.3-1.7,0.4c-0.4,0.1-0.7,0.1-0.9,0.2c-0.2,0.1-0.3,0.2-0.4,0.3
	c-0.1,0.1-0.1,0.3-0.1,0.5c0,0.3,0.1,0.5,0.3,0.7c0.2,0.2,0.5,0.3,0.9,0.3c0.4,0,0.7-0.1,1-0.3c0.3-0.2,0.5-0.4,0.7-0.7
	c0.1-0.2,0.2-0.6,0.2-1L51.4,61.9z"/>
<path class="st1" d="M58.6,64.9v-0.8c-0.4,0.6-0.9,0.9-1.7,0.9c-0.5,0-0.9-0.1-1.3-0.4c-0.4-0.3-0.7-0.6-0.9-1.1
	c-0.2-0.5-0.3-1-0.3-1.6c0-0.6,0.1-1.1,0.3-1.6c0.2-0.5,0.5-0.9,0.9-1.1c0.4-0.3,0.8-0.4,1.3-0.4c0.4,0,0.7,0.1,1,0.2
	c0.3,0.2,0.5,0.4,0.7,0.6v-3h1v8.3H58.6z M55.4,61.9c0,0.8,0.2,1.3,0.5,1.7c0.3,0.4,0.7,0.6,1.1,0.6c0.4,0,0.8-0.2,1.1-0.5
	c0.3-0.4,0.5-0.9,0.5-1.7c0-0.8-0.2-1.4-0.5-1.8c-0.3-0.4-0.7-0.6-1.2-0.6c-0.5,0-0.8,0.2-1.1,0.6C55.5,60.6,55.4,61.1,55.4,61.9"/>
<path class="st1" d="M66,63l1.1,0.1c-0.2,0.6-0.5,1.1-0.9,1.4c-0.4,0.3-1,0.5-1.7,0.5c-0.9,0-1.6-0.3-2.1-0.8
	c-0.5-0.5-0.8-1.3-0.8-2.3c0-1,0.3-1.8,0.8-2.3c0.5-0.6,1.2-0.8,2-0.8c0.8,0,1.5,0.3,2,0.8c0.5,0.5,0.8,1.3,0.8,2.3
	c0,0.1,0,0.2,0,0.3h-4.5c0,0.7,0.2,1.2,0.6,1.5c0.3,0.3,0.8,0.5,1.3,0.5c0.4,0,0.7-0.1,1-0.3C65.7,63.7,65.9,63.4,66,63 M62.7,61.3
	H66c0-0.5-0.2-0.9-0.4-1.1c-0.3-0.4-0.7-0.6-1.3-0.6c-0.5,0-0.9,0.2-1.2,0.5C62.9,60.4,62.7,60.8,62.7,61.3"/>
<path class="st1" d="M69.1,64.9v-6H70v0.8c0.2-0.3,0.4-0.5,0.8-0.7c0.3-0.2,0.7-0.3,1.1-0.3c0.4,0,0.8,0.1,1.1,0.3
	c0.3,0.2,0.5,0.4,0.6,0.8c0.5-0.7,1.1-1,1.9-1c0.6,0,1.1,0.2,1.4,0.5c0.3,0.3,0.5,0.8,0.5,1.5v4.1h-1v-3.8c0-0.4,0-0.7-0.1-0.9
	c-0.1-0.2-0.2-0.3-0.4-0.4c-0.2-0.1-0.4-0.2-0.6-0.2c-0.4,0-0.8,0.1-1.1,0.4c-0.3,0.3-0.4,0.7-0.4,1.3v3.5h-1V61
	c0-0.5-0.1-0.8-0.2-1c-0.2-0.2-0.4-0.3-0.8-0.3c-0.3,0-0.6,0.1-0.8,0.2c-0.2,0.2-0.4,0.4-0.5,0.7c-0.1,0.3-0.2,0.7-0.2,1.3v3.1H69.1
	z"/>
<path class="st1" d="M80.5,57.8h-1v-1.2h1V57.8z M80.5,64.9h-1v-6h1V64.9z"/>
<path class="st1" d="M86.8,62.7l1,0.1c-0.1,0.7-0.4,1.2-0.8,1.6c-0.4,0.4-1,0.6-1.7,0.6c-0.8,0-1.5-0.3-2-0.8
	c-0.5-0.5-0.7-1.3-0.7-2.3c0-0.6,0.1-1.2,0.3-1.7c0.2-0.5,0.5-0.8,1-1.1c0.4-0.2,0.9-0.4,1.4-0.4c0.7,0,1.2,0.2,1.6,0.5
	c0.4,0.3,0.7,0.8,0.8,1.4l-1,0.2c-0.1-0.4-0.3-0.7-0.5-0.9c-0.2-0.2-0.5-0.3-0.9-0.3c-0.5,0-0.9,0.2-1.3,0.6
	c-0.3,0.4-0.5,0.9-0.5,1.7c0,0.8,0.2,1.4,0.5,1.8c0.3,0.4,0.7,0.5,1.2,0.5c0.4,0,0.7-0.1,1-0.4C86.5,63.6,86.7,63.2,86.8,62.7"/>
<path class="st1" d="M99.4,62l1.1,0.3c-0.2,0.9-0.6,1.6-1.2,2.1c-0.6,0.5-1.3,0.7-2.2,0.7c-0.9,0-1.6-0.2-2.2-0.5
	c-0.6-0.4-1-0.9-1.3-1.6c-0.3-0.7-0.4-1.4-0.4-2.2c0-0.9,0.2-1.6,0.5-2.3c0.3-0.6,0.8-1.1,1.4-1.5c0.6-0.3,1.3-0.5,2-0.5
	c0.8,0,1.5,0.2,2.1,0.6c0.6,0.4,1,1,1.2,1.8l-1.1,0.3c-0.2-0.6-0.5-1-0.8-1.3c-0.4-0.3-0.8-0.4-1.4-0.4c-0.6,0-1.2,0.2-1.6,0.5
	c-0.4,0.3-0.7,0.7-0.9,1.2c-0.2,0.5-0.3,1-0.3,1.6c0,0.7,0.1,1.3,0.3,1.8c0.2,0.5,0.5,0.9,1,1.2c0.4,0.3,0.9,0.4,1.4,0.4
	c0.6,0,1.1-0.2,1.6-0.5C98.9,63.2,99.2,62.7,99.4,62"/>
<path class="st1" d="M102.1,61.9c0-1.1,0.3-1.9,0.9-2.5c0.5-0.4,1.1-0.7,1.9-0.7c0.8,0,1.5,0.3,2,0.8c0.5,0.5,0.8,1.3,0.8,2.2
	c0,0.8-0.1,1.4-0.3,1.8c-0.2,0.4-0.6,0.8-1,1c-0.4,0.2-0.9,0.4-1.4,0.4c-0.8,0-1.5-0.3-2-0.8C102.3,63.7,102.1,62.9,102.1,61.9
	 M103.1,61.9c0,0.8,0.2,1.3,0.5,1.7c0.3,0.4,0.8,0.6,1.3,0.6c0.5,0,0.9-0.2,1.3-0.6c0.3-0.4,0.5-1,0.5-1.8c0-0.7-0.2-1.3-0.5-1.7
	c-0.3-0.4-0.8-0.6-1.3-0.6c-0.5,0-0.9,0.2-1.3,0.6C103.3,60.6,103.1,61.2,103.1,61.9"/>
<rect x="109.6" y="56.6" class="st1" width="1" height="8.3"/>
<rect x="112.9" y="56.6" class="st1" width="1" height="8.3"/>
<path class="st1" d="M120.4,63l1.1,0.1c-0.2,0.6-0.5,1.1-0.9,1.4c-0.4,0.3-1,0.5-1.7,0.5c-0.9,0-1.6-0.3-2.1-0.8
	c-0.5-0.5-0.8-1.3-0.8-2.3c0-1,0.3-1.8,0.8-2.3c0.5-0.6,1.2-0.8,2-0.8c0.8,0,1.5,0.3,2,0.8c0.5,0.5,0.8,1.3,0.8,2.3
	c0,0.1,0,0.2,0,0.3H117c0,0.7,0.2,1.2,0.6,1.5c0.3,0.3,0.8,0.5,1.3,0.5c0.4,0,0.7-0.1,1-0.3C120,63.7,120.2,63.4,120.4,63
	 M117.1,61.3h3.3c0-0.5-0.2-0.9-0.4-1.1c-0.3-0.4-0.7-0.6-1.3-0.6c-0.5,0-0.9,0.2-1.2,0.5C117.3,60.4,117.1,60.8,117.1,61.3"/>
<path class="st1" d="M123.3,65.4l1,0.1c0,0.3,0.2,0.5,0.3,0.7c0.3,0.2,0.6,0.3,1,0.3c0.5,0,0.8-0.1,1.1-0.3c0.3-0.2,0.4-0.5,0.5-0.8
	c0.1-0.2,0.1-0.6,0.1-1.3c-0.4,0.5-1,0.8-1.7,0.8c-0.8,0-1.5-0.3-1.9-0.9c-0.5-0.6-0.7-1.3-0.7-2.1c0-0.6,0.1-1.1,0.3-1.6
	c0.2-0.5,0.5-0.9,0.9-1.1c0.4-0.3,0.9-0.4,1.4-0.4c0.7,0,1.3,0.3,1.8,0.9v-0.7h0.9v5.2c0,0.9-0.1,1.6-0.3,2
	c-0.2,0.4-0.5,0.7-0.9,0.9c-0.4,0.2-0.9,0.3-1.5,0.3c-0.7,0-1.3-0.2-1.7-0.5C123.5,66.6,123.3,66.1,123.3,65.4 M124.1,61.8
	c0,0.8,0.2,1.4,0.5,1.7c0.3,0.4,0.7,0.5,1.2,0.5c0.5,0,0.9-0.2,1.2-0.5c0.3-0.4,0.5-0.9,0.5-1.7c0-0.7-0.2-1.3-0.5-1.7
	c-0.3-0.4-0.7-0.6-1.2-0.6c-0.5,0-0.8,0.2-1.2,0.5C124.3,60.6,124.1,61.1,124.1,61.8"/>
<path class="st1" d="M134.8,63l1.1,0.1c-0.2,0.6-0.5,1.1-0.9,1.4c-0.4,0.3-1,0.5-1.7,0.5c-0.9,0-1.6-0.3-2.1-0.8
	c-0.5-0.5-0.8-1.3-0.8-2.3c0-1,0.3-1.8,0.8-2.3c0.5-0.6,1.2-0.8,2-0.8c0.8,0,1.5,0.3,2,0.8c0.5,0.5,0.8,1.3,0.8,2.3
	c0,0.1,0,0.2,0,0.3h-4.5c0,0.7,0.2,1.2,0.6,1.5c0.3,0.3,0.8,0.5,1.3,0.5c0.4,0,0.7-0.1,1-0.3C134.4,63.7,134.6,63.4,134.8,63
	 M131.4,61.3h3.3c0-0.5-0.2-0.9-0.4-1.1c-0.3-0.4-0.7-0.6-1.3-0.6c-0.5,0-0.9,0.2-1.2,0.5C131.7,60.4,131.5,60.8,131.4,61.3"/>
<rect x="0.4" y="38.3" class="st3" width="139.1" height="14.7"/>
<path class="st4" d="M6.5,50c0,0.3-0.1,0.5-0.3,0.7C6,51,5.8,51.1,5.5,51.1c-0.3,0-0.5-0.1-0.7-0.3c-0.3-0.2-0.4-0.4-0.4-0.7v-8
	c0-0.3,0.1-0.5,0.4-0.7c0.2-0.2,0.5-0.3,0.8-0.3c0.3,0,0.5,0.1,0.7,0.3c0.2,0.2,0.3,0.5,0.3,0.8V50z"/>
<path class="st4" d="M11.9,49.6c0,0.6-0.2,1.1-0.6,1.3c-0.4,0.2-0.8,0.4-1.5,0.4c-0.8,0-1.4-0.2-1.8-0.6c-0.1-0.1-0.2-0.3-0.2-0.6
	c0-0.4,0.3-0.8,0.8-1.1c0.3-0.2,0.5-0.3,0.5-0.4c0.2-0.2,0.3-0.4,0.3-0.6v-4.3c0-0.1-0.1-0.2-0.3-0.4c-0.2-0.1-0.3-0.1-0.5-0.2
	c-0.6-0.3-0.8-0.6-0.8-1c0-0.2,0.1-0.4,0.3-0.6c0.2-0.2,0.4-0.3,0.7-0.3c0.3,0,0.6,0.1,0.8,0.4c0.1,0.1,0.2,0.3,0.4,0.7
	c0.1,0.3,0.3,0.5,0.5,0.6c0.3,0.1,0.6,0.2,0.8,0.4c0.3,0.1,0.5,0.3,0.6,0.6c0.1,0.2,0.1,0.4,0.1,0.7V49.6z"/>
<path class="st4" d="M15.4,50c0,0.3-0.1,0.5-0.3,0.7c-0.2,0.2-0.5,0.4-0.7,0.4c-0.3,0-0.5-0.1-0.7-0.3c-0.3-0.2-0.4-0.4-0.4-0.7v-8
	c0-0.3,0.1-0.5,0.4-0.7c0.2-0.2,0.5-0.3,0.8-0.3c0.3,0,0.5,0.1,0.7,0.3c0.2,0.2,0.3,0.5,0.3,0.8V50z"/>
<path class="st4" d="M24.8,50c0,0.3-0.1,0.5-0.3,0.7c-0.2,0.2-0.5,0.4-0.7,0.4c-0.2,0-0.5-0.1-0.8-0.3c-0.3-0.2-0.4-0.4-0.4-0.7
	v-1.9c0-0.1-0.1-0.2-0.2-0.5c-0.1-0.2-0.2-0.2-0.3-0.2h-2.7c-0.1,0-0.2,0.1-0.3,0.2C19,47.8,19,47.9,19,48v1.8c0,0,0,0-0.1,0.1
	l-0.1,0.2c0,0.1-0.1,0.2-0.2,0.4c-0.2,0.3-0.5,0.5-0.9,0.5c-0.2,0-0.4-0.1-0.7-0.3c-0.3-0.2-0.4-0.4-0.4-0.6V48
	c0-0.3,0.3-0.6,0.8-0.9c0.2-0.1,0.3-0.1,0.5-0.2c0.2-0.1,0.4-0.2,0.4-0.3v-0.9c0-0.1-0.1-0.2-0.3-0.4c-0.2-0.1-0.3-0.1-0.5-0.2
	c-0.6-0.2-0.8-0.5-0.8-0.8v-2.2c0-0.2,0.1-0.4,0.3-0.6c0.2-0.2,0.5-0.2,0.7-0.2c0.3,0,0.6,0.1,0.8,0.4c0.2,0.2,0.3,0.5,0.3,0.9
	c0,0.1,0,0.2,0,0.4L19,44c0,0.2,0,0.3,0,0.4c0,0.1,0.1,0.2,0.2,0.3c0.1,0.1,0.2,0.2,0.3,0.2h2.6c0.1,0,0.3-0.1,0.4-0.3
	c0.1-0.2,0.2-0.3,0.2-0.4v-1.9c0-0.3,0.1-0.5,0.4-0.7c0.3-0.2,0.5-0.3,0.8-0.3c0.3,0,0.5,0.1,0.7,0.3c0.2,0.2,0.3,0.5,0.3,0.8v1.6
	c0,0.4-0.2,0.7-0.5,0.9c-0.2,0.1-0.5,0.3-0.9,0.5c-0.3,0.2-0.5,0.5-0.5,0.8c0,0.3,0.2,0.6,0.5,0.8c0.3,0.2,0.6,0.3,0.9,0.5
	c0.3,0.2,0.5,0.5,0.5,0.9V50z"/>
<path class="st4" d="M40.6,49.9c0,0.3-0.1,0.6-0.3,0.8C40,50.9,39.8,51,39.5,51c-0.3,0-0.6-0.1-0.8-0.4c-0.2-0.3-0.3-0.6-0.3-0.9
	v-5.8c0-0.1-0.1-0.2-0.2-0.3c-0.2-0.1-0.3-0.2-0.4-0.2h-1.9c-0.3,0-0.6,0.2-0.8,0.5c-0.2,0.3-0.3,0.6-0.3,0.9v5.4
	c0,0-0.1,0.1-0.1,0.2c-0.2,0.2-0.2,0.4-0.2,0.4C34.1,50.9,34,51,33.9,51c-0.3,0.1-0.7,0.2-1.4,0.2c-1.3,0-1.9-0.4-1.9-1.2
	c0-0.2,0.1-0.5,0.3-0.7c0.1-0.1,0.3-0.3,0.6-0.5c0.3-0.2,0.5-0.4,0.6-0.5c0.2-0.2,0.3-0.4,0.3-0.7v-5.4c0-0.3,0.1-0.6,0.4-0.9
	c0.2-0.2,0.5-0.4,0.8-0.5c0.2-0.1,0.4-0.1,0.6-0.1h2.7c0,0,0.1,0,0.4,0.1c0.2,0,0.4,0.1,0.5,0.1c0.2,0.1,0.3,0.1,0.4,0.3
	c0.1,0.2,0.3,0.4,0.4,0.6c0.1,0.3,0.2,0.6,0.3,0.6c0.1,0.1,0.2,0.3,0.5,0.4c0.2,0.1,0.4,0.2,0.6,0.2c0.5,0.2,0.7,0.6,0.7,1.1V49.9z"
	/>
<path class="st4" d="M44.1,45.5c0,0.2-0.1,0.4-0.3,0.6c-0.2,0.2-0.4,0.3-0.7,0.3c-0.3,0-0.6-0.1-0.8-0.4c-0.2-0.2-0.4-0.5-0.4-0.8
	v-2.6c0-0.3,0.1-0.6,0.3-0.9c0.2-0.3,0.5-0.4,0.8-0.4c0.3,0,0.5,0.1,0.7,0.2c0.2,0.2,0.3,0.4,0.3,0.6V45.5z"/>
<path class="st4" d="M53.5,50.1c0,0.4-0.3,0.7-0.8,1c-0.4,0.2-0.8,0.2-1.3,0.2c-0.8,0-1.4-0.2-1.8-0.6c-0.1-0.1-0.2-0.3-0.2-0.6
	c0-0.3,0.2-0.6,0.5-0.9c0.3-0.2,0.6-0.4,0.8-0.6c0.3-0.3,0.5-0.6,0.5-0.9v-3.3c0-0.7-0.6-1.1-1.8-1.1c-0.5,0-0.8,0-1,0.1
	c-0.3,0.1-0.5,0.4-0.7,0.7c-0.1,0.2-0.1,0.3-0.1,0.3v5.4c0,0.3-0.1,0.5-0.4,0.8C47,50.9,46.7,51,46.4,51c-0.3,0-0.5-0.1-0.7-0.3
	c-0.2-0.2-0.3-0.4-0.3-0.7v-7.9c0-0.3,0.1-0.6,0.4-0.8c0.2-0.2,0.5-0.3,0.8-0.4c0.2,0,0.4-0.1,0.6-0.1h4.6c0.4,0,0.8,0.1,1.1,0.3
	c0.4,0.2,0.7,0.5,0.7,0.9V50.1z"/>
<path class="st4" d="M62.7,42.1c0,0.3-0.2,0.6-0.5,0.9c-0.3,0.2-0.6,0.4-0.9,0.6c-0.3,0.3-0.5,0.6-0.5,1v5.5c0,0.3-0.1,0.5-0.4,0.7
	c-0.3,0.2-0.5,0.3-0.8,0.3c-0.3,0-0.5-0.1-0.7-0.4c-0.2-0.3-0.3-0.5-0.3-0.8v-5.3c0-0.3-0.1-0.5-0.3-0.7c-0.2-0.2-0.4-0.4-0.6-0.5
	c0,0-0.1,0-0.2,0l-0.7-0.1c-0.1,0-0.2,0-0.2,0c-0.7-0.1-1.3-0.3-1.6-0.6c-0.1-0.1-0.2-0.3-0.2-0.5c0-0.6,0.5-1,1.4-1.2
	c0.2,0,0.5-0.1,0.6-0.1h3.9c0.8,0,1.4,0.2,1.8,0.6C62.6,41.7,62.7,41.9,62.7,42.1"/>
<path class="st4" d="M72.2,47.3c0,0,0,0.1,0,0.1l-0.1,0.2c-0.1,0.3-0.1,0.4-0.1,0.5c-0.1,0.2-0.1,0.4-0.2,0.5
	c-0.1,0.1-0.3,0.3-0.6,0.4c-0.3,0.2-0.6,0.3-0.7,0.4c-0.1,0.1-0.3,0.3-0.4,0.4c-0.1,0.2-0.2,0.4-0.3,0.5c-0.2,0.4-0.5,0.6-0.9,0.6
	c-0.2,0-0.5-0.1-0.7-0.3c-0.2-0.2-0.3-0.4-0.3-0.6c0-0.4,0.3-0.7,0.8-1c0.2-0.1,0.3-0.1,0.5-0.2c0.2-0.1,0.4-0.2,0.4-0.3v-4.4
	c0-0.2-0.1-0.3-0.3-0.5c-0.2-0.2-0.4-0.3-0.5-0.3h-3.3c-0.4,0-0.7-0.1-1-0.3c-0.3-0.2-0.5-0.5-0.5-0.9c0-0.4,0.2-0.6,0.5-0.9
	c0.3-0.2,0.6-0.3,1-0.3h4.8c0.6,0,1.1,0.2,1.4,0.5c0.3,0.4,0.5,0.9,0.5,1.5V47.3z M66.1,52.6c0,0.4-0.1,0.8-0.3,1.1
	c-0.2,0.4-0.5,0.5-0.9,0.5c-0.6,0-1-0.4-1.1-1.1c0-0.2-0.1-0.4-0.1-0.6v-5c0-0.4,0.1-0.8,0.3-1.1c0.2-0.4,0.5-0.5,0.9-0.5
	c0.4,0,0.7,0.2,0.9,0.5c0.2,0.3,0.3,0.6,0.3,1V52.6z"/>
<path class="st4" d="M81.6,50c0,0.3-0.1,0.5-0.3,0.7c-0.2,0.2-0.5,0.4-0.7,0.4c-0.2,0-0.5-0.1-0.8-0.3c-0.3-0.2-0.4-0.4-0.4-0.7
	v-1.9c0-0.1-0.1-0.2-0.2-0.5c-0.1-0.2-0.2-0.2-0.3-0.2h-2.7c-0.1,0-0.2,0.1-0.3,0.2c-0.1,0.1-0.2,0.2-0.2,0.3v1.8c0,0,0,0-0.1,0.1
	l-0.1,0.2c0,0.1-0.1,0.2-0.2,0.4c-0.2,0.3-0.5,0.5-0.9,0.5c-0.2,0-0.4-0.1-0.7-0.3c-0.3-0.2-0.4-0.4-0.4-0.6V48
	c0-0.3,0.3-0.6,0.8-0.9c0.2-0.1,0.3-0.1,0.5-0.2c0.2-0.1,0.4-0.2,0.4-0.3v-0.9c0-0.1-0.1-0.2-0.3-0.4c-0.2-0.1-0.3-0.1-0.5-0.2
	c-0.6-0.2-0.8-0.5-0.8-0.8v-2.2c0-0.2,0.1-0.4,0.3-0.6c0.2-0.2,0.5-0.2,0.7-0.2c0.3,0,0.6,0.1,0.8,0.4c0.2,0.2,0.3,0.5,0.3,0.9
	c0,0.1,0,0.2,0,0.4l0.1,1.1c0,0.2,0,0.3,0,0.4c0,0.1,0.1,0.2,0.2,0.3c0.1,0.1,0.2,0.2,0.3,0.2h2.6c0.1,0,0.3-0.1,0.4-0.3
	c0.1-0.2,0.2-0.3,0.2-0.4v-1.9c0-0.3,0.1-0.5,0.4-0.7c0.3-0.2,0.5-0.3,0.8-0.3c0.3,0,0.5,0.1,0.7,0.3c0.2,0.2,0.3,0.5,0.3,0.8v1.6
	c0,0.4-0.2,0.7-0.5,0.9c-0.2,0.1-0.5,0.3-0.9,0.5c-0.3,0.2-0.5,0.5-0.5,0.8c0,0.3,0.2,0.6,0.5,0.8c0.3,0.2,0.6,0.3,0.9,0.5
	c0.3,0.2,0.5,0.5,0.5,0.9V50z"/>
<path class="st4" d="M91.2,49.4c0,0.4-0.1,0.8-0.3,1.1c-0.2,0.4-0.5,0.6-0.9,0.6c-0.3,0-0.6-0.1-0.8-0.4c-0.2-0.2-0.3-0.5-0.4-0.8
	c0-0.2-0.1-0.4-0.1-0.6v-5.5c0,0,0-0.1-0.1-0.2s-0.2-0.1-0.2-0.1h-3.6c-0.4,0-0.8-0.1-1.1-0.3c-0.4-0.2-0.6-0.5-0.6-0.9
	c0-0.6,0.4-0.9,1.2-1.1c0.4-0.1,1-0.1,1.8-0.1h0.5c0.6,0,1,0,1.4,0.1c0.3,0.1,0.6,0.3,0.8,0.5c0.1,0.2,0.3,0.6,0.5,1
	c0.1,0.2,0.4,0.4,0.9,0.6c0.4,0.2,0.7,0.5,0.8,0.8c0,0.2,0.1,0.4,0.2,0.7c0,0.1,0,0.1,0,0.1V49.4z M85.2,48.8v0.3c0,0.1,0,0.2,0,0.3
	v0.2c-0.1,1-0.5,1.4-1.2,1.4c-0.5,0-0.9-0.3-1.1-1c-0.1-0.3-0.1-0.8-0.1-1.6c0-0.7,0-1.2,0.1-1.6c0.2-0.7,0.5-1,1.1-1
	c0.5,0,0.9,0.3,1.1,1c0.1,0.3,0.1,0.9,0.1,1.6V48.8z"/>
<path class="st4" d="M105.4,49.4c0,0.4-0.1,0.8-0.3,1.1c-0.2,0.4-0.5,0.6-0.9,0.6c-0.3,0-0.6-0.1-0.8-0.4c-0.2-0.2-0.3-0.5-0.4-0.8
	c0-0.2-0.1-0.4-0.1-0.6v-5.5c0,0,0-0.1-0.1-0.2c-0.1-0.1-0.2-0.1-0.2-0.1h-3.6c-0.4,0-0.8-0.1-1.1-0.3c-0.4-0.2-0.6-0.5-0.6-0.9
	c0-0.6,0.4-0.9,1.2-1.1c0.4-0.1,1-0.1,1.8-0.1h0.5c0.6,0,1,0,1.4,0.1c0.3,0.1,0.6,0.3,0.8,0.5c0.1,0.2,0.3,0.6,0.5,1
	c0.1,0.2,0.4,0.4,0.9,0.6c0.4,0.2,0.7,0.5,0.8,0.8c0,0.2,0.1,0.4,0.2,0.7c0,0.1,0,0.1,0,0.1V49.4z M99.4,48.8v0.3c0,0.1,0,0.2,0,0.3
	v0.2c-0.1,1-0.5,1.4-1.2,1.4c-0.5,0-0.9-0.3-1.1-1C97,49.8,97,49.3,97,48.6c0-0.7,0-1.2,0.1-1.6c0.2-0.7,0.5-1,1.1-1
	c0.5,0,0.9,0.3,1.1,1c0.1,0.3,0.1,0.9,0.1,1.6V48.8z"/>
<path class="st4" d="M108.8,45.5c0,0.2-0.1,0.4-0.3,0.6c-0.2,0.2-0.4,0.3-0.7,0.3c-0.3,0-0.6-0.1-0.8-0.4c-0.2-0.2-0.4-0.5-0.4-0.8
	v-2.6c0-0.3,0.1-0.6,0.3-0.9c0.2-0.3,0.5-0.4,0.8-0.4c0.3,0,0.5,0.1,0.7,0.2c0.2,0.2,0.3,0.4,0.3,0.6V45.5z"/>
<path class="st4" d="M116.1,49.7c0,0.3-0.1,0.6-0.3,0.9c-0.2,0.3-0.5,0.4-0.8,0.4c-0.3,0-0.6-0.1-0.8-0.4c-0.2-0.3-0.3-0.6-0.3-0.9
	V44c0-0.2-0.1-0.3-0.2-0.4c-0.1-0.1-0.3-0.2-0.4-0.2h-0.5c-0.9,0-1.6-0.1-2-0.3c-0.4-0.2-0.6-0.5-0.6-1c0-0.8,0.6-1.2,1.9-1.2
	c0.7,0,1.2,0.1,1.5,0.3c0.2,0.1,0.4,0.5,0.6,1c0.1,0.3,0.3,0.5,0.6,0.6c0.2,0.1,0.5,0.2,0.7,0.3c0.2,0.1,0.4,0.3,0.5,0.5
	c0.1,0.2,0.2,0.4,0.2,0.6c0,0.1,0,0.1,0,0.1V49.7z"/>
<path class="st4" d="M125.8,47.3c0,0,0,0.1,0,0.1l-0.1,0.2c-0.1,0.3-0.1,0.4-0.1,0.5c-0.1,0.2-0.1,0.4-0.2,0.5
	c-0.1,0.1-0.3,0.3-0.6,0.4c-0.3,0.2-0.6,0.3-0.7,0.4c-0.1,0.1-0.3,0.3-0.4,0.4c-0.1,0.2-0.2,0.4-0.3,0.5c-0.2,0.4-0.5,0.6-0.9,0.6
	c-0.2,0-0.5-0.1-0.7-0.3c-0.2-0.2-0.3-0.4-0.3-0.6c0-0.4,0.3-0.7,0.8-1c0.2-0.1,0.3-0.1,0.5-0.2c0.2-0.1,0.4-0.2,0.4-0.3v-4.4
	c0-0.2-0.1-0.3-0.3-0.5c-0.2-0.2-0.4-0.3-0.5-0.3h-3.3c-0.4,0-0.7-0.1-1-0.3c-0.3-0.2-0.5-0.5-0.5-0.9c0-0.4,0.2-0.6,0.5-0.9
	c0.3-0.2,0.6-0.3,1-0.3h4.8c0.6,0,1.1,0.2,1.4,0.5c0.3,0.4,0.5,0.9,0.5,1.5V47.3z M119.8,52.6c0,0.4-0.1,0.8-0.3,1.1
	c-0.2,0.4-0.5,0.5-0.9,0.5c-0.6,0-1-0.4-1.1-1.1c0-0.2-0.1-0.4-0.1-0.6v-5c0-0.4,0.1-0.8,0.3-1.1c0.2-0.4,0.5-0.5,0.9-0.5
	c0.4,0,0.7,0.2,0.9,0.5c0.2,0.3,0.3,0.6,0.3,1V52.6z"/>
<path class="st4" d="M135.5,49.4c0,0.4-0.1,0.8-0.3,1.1c-0.2,0.4-0.5,0.6-0.9,0.6c-0.3,0-0.6-0.1-0.8-0.4c-0.2-0.2-0.3-0.5-0.4-0.8
	c0-0.2-0.1-0.4-0.1-0.6v-5.5c0,0,0-0.1-0.1-0.2c-0.1-0.1-0.2-0.1-0.2-0.1h-3.6c-0.4,0-0.8-0.1-1.1-0.3c-0.4-0.2-0.6-0.5-0.6-0.9
	c0-0.6,0.4-0.9,1.2-1.1c0.4-0.1,1-0.1,1.8-0.1h0.5c0.6,0,1,0,1.4,0.1c0.3,0.1,0.6,0.3,0.8,0.5c0.1,0.2,0.3,0.6,0.5,1
	c0.1,0.2,0.4,0.4,0.9,0.6c0.4,0.2,0.7,0.5,0.8,0.8c0,0.2,0.1,0.4,0.2,0.7c0,0.1,0,0.1,0,0.1V49.4z M129.5,48.8v0.3
	c0,0.1,0,0.2,0,0.3v0.2c-0.1,1-0.5,1.4-1.2,1.4c-0.5,0-0.9-0.3-1.1-1c-0.1-0.3-0.1-0.8-0.1-1.6c0-0.7,0-1.2,0.1-1.6
	c0.2-0.7,0.5-1,1.1-1c0.5,0,0.9,0.3,1.1,1c0.1,0.3,0.1,0.9,0.1,1.6V48.8z"/>
</svg>
