<?xml version="1.0" encoding="utf-8"?>
<!-- Generator: Adobe Illustrator 21.0.2, SVG Export Plug-In . SVG Version: 6.00 Build 0)  -->
<svg version="1.1" id="Layer_1" xmlns="http://www.w3.org/2000/svg" xmlns:xlink="http://www.w3.org/1999/xlink" x="0px" y="0px"
	 viewBox="0 0 547.5 274.5" style="enable-background:new 0 0 547.5 274.5;" xml:space="preserve">
<style type="text/css">
	.st0{fill:#98C21F;}
	.st1{fill:#FFFFFF;}
</style>
<g>
	<g>
		<g>
			
				<rect x="162.2" y="-124.6" transform="matrix(8.715574e-02 -0.9962 0.9962 8.715574e-02 113.1987 397.9938)" class="st0" width="223.2" height="523.6"/>
		</g>
		<g>
			<g>
				<polygon class="st1" points="546.8,54.1 540.9,53.6 541,51.6 539,51.4 539.6,45.5 547.5,46.2 				"/>
			</g>
			<g>
				<path class="st1" d="M529,50.6l-10-0.9l0.5-6l10,0.9L529,50.6z M508.9,48.8l-10-0.9l0.5-6l10,0.9L508.9,48.8z M488.9,47l-10-0.9
					l0.5-6l10,0.9L488.9,47z M468.8,45.3l-10-0.9l0.5-6l10,0.9L468.8,45.3z M448.8,43.5l-10-0.9l0.5-6l10,0.9L448.8,43.5z
					 M428.7,41.8l-10-0.9l0.5-6l10,0.9L428.7,41.8z M408.6,40l-10-0.9l0.5-6l10,0.9L408.6,40z M388.6,38.3l-10-0.9l0.5-6l10,0.9
					L388.6,38.3z M368.5,36.5l-10-0.9l0.5-6l10,0.9L368.5,36.5z M348.4,34.8l-10-0.9l0.5-6l10,0.9L348.4,34.8z M328.4,33l-10-0.9
					l0.5-6l10,0.9L328.4,33z M308.3,31.2l-10-0.9l0.5-6l10,0.9L308.3,31.2z M288.2,29.5l-10-0.9l0.5-6l10,0.9L288.2,29.5z
					 M268.2,27.7l-10-0.9l0.5-6l10,0.9L268.2,27.7z M248.1,26l-10-0.9l0.5-6l10,0.9L248.1,26z M228.1,24.2l-10-0.9l0.5-6l10,0.9
					L228.1,24.2z M208,22.5l-10-0.9l0.5-6l10,0.9L208,22.5z M187.9,20.7l-10-0.9l0.5-6l10,0.9L187.9,20.7z M167.9,19l-10-0.9l0.5-6
					l10,0.9L167.9,19z M147.8,17.2l-10-0.9l0.5-6l10,0.9L147.8,17.2z M127.7,15.5l-10-0.9l0.5-6l10,0.9L127.7,15.5z M107.7,13.7
					l-10-0.9l0.5-6l10,0.9L107.7,13.7z M87.6,11.9l-10-0.9l0.5-6l10,0.9L87.6,11.9z M67.5,10.2l-10-0.9l0.5-6l10,0.9L67.5,10.2z
					 M47.5,8.4l-10-0.9l0.5-6l10,0.9L47.5,8.4z"/>
			</g>
			<g>
				<polygon class="st1" points="25.3,8.5 19.3,8 20,0 27.9,0.7 27.4,6.7 25.4,6.5 				"/>
			</g>
			<g>
				<path class="st1" d="M7.6,210.7l-6-0.5l0.9-10.1l6,0.5L7.6,210.7z M9.3,190.5l-6-0.5l0.9-10.1l6,0.5L9.3,190.5z M11.1,170.3
					l-6-0.5L6,159.7l6,0.5L11.1,170.3z M12.9,150.1l-6-0.5l0.9-10.1l6,0.5L12.9,150.1z M14.6,129.8l-6-0.5l0.9-10.1l6,0.5
					L14.6,129.8z M16.4,109.6l-6-0.5L11.3,99l6,0.5L16.4,109.6z M18.2,89.4l-6-0.5l0.9-10.1l6,0.5L18.2,89.4z M19.9,69.2l-6-0.5
					l0.9-10.1l6,0.5L19.9,69.2z M21.7,48.9l-6-0.5l0.9-10.1l6,0.5L21.7,48.9z M23.5,28.7l-6-0.5l0.9-10.1l6,0.5L23.5,28.7z"/>
			</g>
			<g>
				<polygon class="st1" points="8,229 0,228.3 0.7,220.3 6.7,220.9 6.5,222.8 8.5,223 				"/>
			</g>
			<g>
				<path class="st1" d="M509.6,272.9l-10-0.9l0.5-6l10,0.9L509.6,272.9z M489.5,271.1l-10-0.9l0.5-6l10,0.9L489.5,271.1z
					 M469.4,269.4l-10-0.9l0.5-6l10,0.9L469.4,269.4z M449.4,267.6l-10-0.9l0.5-6l10,0.9L449.4,267.6z M429.3,265.9l-10-0.9l0.5-6
					l10,0.9L429.3,265.9z M409.2,264.1l-10-0.9l0.5-6l10,0.9L409.2,264.1z M389.2,262.4l-10-0.9l0.5-6l10,0.9L389.2,262.4z
					 M369.1,260.6l-10-0.9l0.5-6l10,0.9L369.1,260.6z M349,258.8l-10-0.9l0.5-6l10,0.9L349,258.8z M329,257.1l-10-0.9l0.5-6l10,0.9
					L329,257.1z M308.9,255.3l-10-0.9l0.5-6l10,0.9L308.9,255.3z M288.9,253.6l-10-0.9l0.5-6l10,0.9L288.9,253.6z M268.8,251.8
					l-10-0.9l0.5-6l10,0.9L268.8,251.8z M248.7,250.1l-10-0.9l0.5-6l10,0.9L248.7,250.1z M228.7,248.3l-10-0.9l0.5-6l10,0.9
					L228.7,248.3z M208.6,246.6l-10-0.9l0.5-6l10,0.9L208.6,246.6z M188.5,244.8l-10-0.9l0.5-6l10,0.9L188.5,244.8z M168.5,243
					l-10-0.9l0.5-6l10,0.9L168.5,243z M148.4,241.3l-10-0.9l0.5-6l10,0.9L148.4,241.3z M128.4,239.5l-10-0.9l0.5-6l10,0.9
					L128.4,239.5z M108.3,237.8l-10-0.9l0.5-6l10,0.9L108.3,237.8z M88.2,236l-10-0.9l0.5-6l10,0.9L88.2,236z M68.2,234.3l-10-0.9
					l0.5-6l10,0.9L68.2,234.3z M48.1,232.5l-10-0.9l0.5-6l10,0.9L48.1,232.5z M28,230.8l-10-0.9l0.5-6l10,0.9L28,230.8z"/>
			</g>
			<g>
				<polygon class="st1" points="527.6,274.5 519.6,273.8 520.1,267.8 522.1,268 522.3,266 528.3,266.5 				"/>
			</g>
			<g>
				<path class="st1" d="M529.1,256.4l-6-0.5l0.9-10.1l6,0.5L529.1,256.4z M530.9,236.2l-6-0.5l0.9-10.1l6,0.5L530.9,236.2z
					 M532.7,215.9l-6-0.5l0.9-10.1l6,0.5L532.7,215.9z M534.4,195.7l-6-0.5l0.9-10.1l6,0.5L534.4,195.7z M536.2,175.5l-6-0.5
					l0.9-10.1l6,0.5L536.2,175.5z M538,155.3l-6-0.5l0.9-10.1l6,0.5L538,155.3z M539.8,135l-6-0.5l0.9-10.1l6,0.5L539.8,135z
					 M541.5,114.8l-6-0.5l0.9-10.1l6,0.5L541.5,114.8z M543.3,94.6l-6-0.5l0.9-10.1l6,0.5L543.3,94.6z M545.1,74.4l-6-0.5l0.9-10.1
					l6,0.5L545.1,74.4z"/>
			</g>
		</g>
	</g>
	<g>
		<g>
			<path class="st1" d="M32.4,45.4l0.5-5.2l-1.5-0.1l0.5-2.2l4.2,0.4l-0.6,7.2L32.4,45.4z"/>
		</g>
		<g>
			<path class="st1" d="M46.7,41.4l-1.6-0.1l-0.8,8.8l-2.9-0.3l0.8-8.8l-4.8-0.4l0.2-2.2l9.6,0.8L46.7,41.4z"/>
		</g>
		<g>
			<path class="st1" d="M48.8,50.5l0.8-8.8L48,41.5l0.5-2.2l4.2,0.4l-1,11.1L48.8,50.5z"/>
		</g>
		<g>
			<path class="st1" d="M61.5,51.6l0.7-7.7c0.1-1.1-1.5-1.4-2.6-1.5c-0.2,0-1.1,0-1.1,0l-0.8,8.8L54.8,51l1-10.9c0,0,3.3-0.1,4.7,0
				c2.6,0.2,5,1,4.7,4l-0.7,7.7L61.5,51.6z"/>
		</g>
		<g>
			<path class="st1" d="M68.2,48.5l0.5-5.2l-1.5-0.1l0.5-2.2l4.2,0.4l-0.6,7.2L68.2,48.5z"/>
		</g>
		<g>
			<path class="st1" d="M74.2,49.1l0.5-5.2l-1.5-0.1l0.5-2.2l4.2,0.4L77.2,49L74.2,49.1z"/>
		</g>
		<g>
			<path class="st1" d="M93.5,48.6c-0.4,4.4-3.2,5.6-5.2,5.4c-1.1-0.1-2.9-0.4-2.9-0.4l0.5-2.2c0,0,1.3,0.2,2,0.2
				c1.7,0.1,2.5-0.8,2.7-3.3l0.3-3.1l-6.1-0.5l0.5-5.2l2.9,0.3l-0.3,2.9l6.1,0.5L93.5,48.6z"/>
		</g>
		<g>
			<path class="st1" d="M102.8,55.2l0.7-7.7c0.1-1.1-1.5-1.4-2.6-1.5c-0.8-0.1-4-0.1-4-0.1l0.2-2.2c0,0,3.3-0.1,4.7,0
				c2.6,0.2,5,1,4.7,4l-0.7,7.7L102.8,55.2z M96.1,54.6l0.5-5.5l3,0L99,54.9L96.1,54.6z"/>
		</g>
		<g>
			<path class="st1" d="M113.7,56.2l-5.9-0.5l0.2-2.2l3.2,0.3l0.5-5.6c0.1-0.9-0.3-1.1-0.9-1.2c-0.5,0-1.8,0.1-1.8,0.1l0.2-2.3
				c0,0,1.3-0.2,2.5-0.1c1.8,0.2,3.2,0.8,3,3.8l-0.5,5.5L113.7,56.2z"/>
		</g>
		<g>
			<path class="st1" d="M117.5,52.9l0.5-5.2l-1.5-0.1l0.5-2.2l4.2,0.4l-0.6,7.2L117.5,52.9z"/>
		</g>
		<g>
			<path class="st1" d="M131.8,57.8l-4.3-0.4l0.2-2.2l1.7,0.1l0.5-5.6c0.1-0.8-0.2-1.1-1.2-1.2c-1.3-0.1-2.6,0.5-2.6,0.5l-1.1,8.1
				l-2.9-0.3l1.4-8.7l-0.3-2.4l2.7,0.2l0.2,1.1c0,0,2.2-1.1,3.9-1c1.8,0.2,3,1.1,2.8,3.6l-0.5,5.8L131.8,57.8z"/>
		</g>
		<g>
			<path class="st1" d="M144,58.8l-4.3-0.4l0.2-2.2l1.7,0.1l0.5-5.6c0.1-0.8-0.2-1.1-1.2-1.2c-1.3-0.1-2.6,0.5-2.6,0.5l-1.1,8.1
				l-2.9-0.3l1.4-8.7l-0.3-2.4l2.7,0.2l0.2,1.1c0,0,2.2-1.1,3.9-1c1.8,0.2,3,1.1,2.8,3.6l-0.5,5.8L144,58.8z"/>
		</g>
		<g>
			<path class="st1" d="M157.5,60l0.7-7.7c0.1-1.1-1.1-1.3-2.2-1.4c-0.8-0.1-3.5,0-3.5,0l0.2-2.2c0,0,2.8-0.2,4.2-0.1
				c2.6,0.2,4.5,0.9,4.2,4l-0.7,7.7L157.5,60z"/>
		</g>
		<g>
			<path class="st1" d="M169.6,61.1l-3.3-6.5c0,0-0.3,1.7-0.3,2.1l-0.8,4.1l-3-0.3l2.5-8.7l-1.2-2.4l3.3,0.3l2.5,5.3
				c0,0,0.4-2.2,0.6-2.7l0.7-2.3l2.8,0.2l-2.4,7.5l2,3.7L169.6,61.1z"/>
		</g>
		<g>
			<path class="st1" d="M175.3,61.6l0.8-8.8l-1.5-0.1l0.5-2.2l4.2,0.4l-1,11.1L175.3,61.6z"/>
		</g>
		<g>
			<path class="st1" d="M188.8,62.7l0.7-7.7c0.1-1.1-1.5-1.4-2.6-1.5c-0.2,0-1.1,0-1.1,0l-0.5,5.5c-0.3,3.1-1.8,3.4-3.6,3.2
				c-1.1-0.1-1.6-0.5-1.6-0.5l0.5-2.2c0,0,0.2,0.2,0.7,0.2c0.6,0.1,1-0.1,1.1-1l0.5-5.5l-1.5-0.1l0.5-2c0,0,4.5,0,5.9,0.1
				c2.6,0.2,5,1,4.7,4l-0.7,7.7L188.8,62.7z"/>
		</g>
		<g>
			<path class="st1" d="M201.5,63.9l0.7-7.7c0.1-1.1-1.5-1.4-2.6-1.4c-0.8-0.1-4-0.1-4-0.1l0.2-2.2c0,0,3.3-0.1,4.7,0
				c2.6,0.2,5,1,4.7,4l-0.7,7.7L201.5,63.9z M194.8,63.3l0.5-5.5l3,0l-0.5,5.8L194.8,63.3z"/>
		</g>
		<g>
			<path class="st1" d="M221.4,59.8c-0.4,4.4-3.2,5.6-5.2,5.4c-1.1-0.1-2.9-0.4-2.9-0.4l0.5-2.2c0,0,1.3,0.2,2,0.2
				c1.7,0.1,2.5-0.8,2.7-3.3l0.3-3.1l-6.1-0.5l0.5-5.2l2.9,0.3l-0.3,2.9l6.1,0.5L221.4,59.8z"/>
		</g>
		<g>
			<path class="st1" d="M231.2,60.9c-0.5,5.2-3.2,5.3-5.4,5.2c-1.3-0.1-2.9-0.4-2.9-0.4l0.2-2.3c0,0,1.7,0.3,2.6,0.3
				c1.2,0.1,2.2-0.1,2.4-3.1c0.3-3.2-0.8-3.7-2-3.8c-0.7-0.1-2.5,0-2.5,0l0.2-2.2c0,0,1.2-0.2,2.6,0
				C228.4,54.8,231.6,55.7,231.2,60.9z"/>
		</g>
		<g>
			<path class="st1" d="M242,71l0.8-9.1c0.3-3.2-0.8-3.6-2-3.7c-0.7-0.1-2.5,0-2.5,0l0.2-2.2c0,0,1.2-0.2,2.6,0
				c1.9,0.2,5.1,1,4.7,6.3l-0.8,9L242,71z"/>
		</g>
		<g>
			<path class="st1" d="M252.8,68.3l0.7-7.7c0.1-1.1-1.1-1.3-2.2-1.4c-0.8-0.1-3.5,0-3.5,0l0.2-2.2c0,0,2.8-0.2,4.2-0.1
				c2.6,0.2,4.5,0.9,4.2,4l-0.7,7.7L252.8,68.3z"/>
		</g>
		<g>
			<path class="st1" d="M259.2,68.9l0.8-8.8l-1.5-0.1l0.5-2.2l4.2,0.4l-1,11.1L259.2,68.9z"/>
		</g>
		<g>
			<path class="st1" d="M271.4,70l-3.3-6.5c0,0-0.3,1.7-0.3,2.1l-0.8,4.1l-3-0.3l2.5-8.7l-1.2-2.4l3.3,0.3l2.5,5.3
				c0,0,0.4-2.2,0.5-2.7l0.7-2.3l2.8,0.2l-2.4,7.5l2,3.7L271.4,70z"/>
		</g>
		<g>
			<path class="st1" d="M285.1,65.4c-0.4,4.4-3.2,5.6-5.2,5.4c-1.1-0.1-2.9-0.4-2.9-0.4l0.5-2.2c0,0,1.3,0.2,2,0.2
				c1.7,0.1,2.4-0.8,2.7-3.3l0.3-3.1l-6.1-0.5l0.5-5.2l2.9,0.3l-0.3,2.9l6.1,0.5L285.1,65.4z"/>
		</g>
		<g>
			<path class="st1" d="M293.8,68.3l0.5-5.2l-1.5-0.1l0.5-2.2l4.2,0.4l-0.6,7.2L293.8,68.3z"/>
		</g>
		<g>
			<path class="st1" d="M313.4,68.3c-0.4,4.1-2.3,5.2-6.1,4.8l-8.1-0.7l1-11.1l2.9,0.3l-0.8,8.8l2.2,0.2c0,0,0.7-3.1,0.8-4l0.3-4.8
				l2.6,0.2l-0.3,4.8c0,0.8-0.9,4-0.9,4l0.8,0.1c1.4,0.1,2.4-0.1,2.7-3l0.5-5.6l2.9,0.3L313.4,68.3z"/>
		</g>
		<g>
			<path class="st1" d="M316.5,70.3L317,65l-1.5-0.1l0.5-2.2l4.2,0.4l-0.6,7.2L316.5,70.3z"/>
		</g>
		<g>
			<path class="st1" d="M328,74.9l-3.3-6.5c0,0-0.2,1.7-0.3,2.1l-0.8,4.1l-3-0.3l2.5-8.7l-1.2-2.4l3.3,0.3l2.5,5.3
				c0,0,0.4-2.2,0.5-2.7l0.7-2.3l2.8,0.2l-2.4,7.5l2,3.7L328,74.9z"/>
		</g>
		<g>
			<path class="st1" d="M339.4,72.3l0.5-5.2l-1.5-0.1l0.5-2.2l4.2,0.4l-0.6,7.2L339.4,72.3z"/>
		</g>
		<g>
			<path class="st1" d="M345.3,76.4l0.8-8.8l-1.5-0.1l0.5-2.2l4.2,0.4l-1,11.1L345.3,76.4z"/>
		</g>
		<g>
			<path class="st1" d="M351.8,77l0.8-8.8L351,68l0.5-2.2l4.2,0.4l-1,11.1L351.8,77z"/>
		</g>
		<g>
			<path class="st1" d="M358.6,73.9l0.5-5.2l-1.5-0.1l0.5-2.2l4.2,0.4l-0.6,7.2L358.6,73.9z"/>
		</g>
		<g>
			<path class="st1" d="M372.3,73c-0.4,4.4-3.2,5.6-5.2,5.4c-1.1-0.1-2.9-0.4-2.9-0.4l0.5-2.2c0,0,1.3,0.2,2,0.2
				c1.7,0.1,2.5-0.8,2.7-3.3l0.3-3.1l-6.1-0.5l0.5-5.2l2.9,0.3l-0.3,2.9l6.1,0.5L372.3,73z"/>
		</g>
		<g>
			<path class="st1" d="M383.5,71.9c-0.1,0.6-0.6,1.1-1.3,1c-0.6-0.1-1.1-0.6-1-1.3c0.1-0.6,0.6-1.1,1.3-1.1
				C383.1,70.7,383.6,71.2,383.5,71.9z M382.9,78.8c-0.1,0.6-0.6,1.1-1.3,1.1c-0.6-0.1-1.1-0.6-1-1.3c0.1-0.6,0.6-1.1,1.3-1
				C382.5,77.6,383,78.2,382.9,78.8z"/>
		</g>
		<g>
			<path class="st1" d="M395.4,80.8l-9.3-0.8l1-10.9c0,0,3.3-0.1,4.7,0c2.6,0.2,5,1,4.7,4l-0.5,5.5L395.4,80.8z M393.4,72.9
				c0.1-1.1-1.5-1.4-2.6-1.5c-0.2,0-1.1,0-1.1,0l-0.6,6.6l3.8,0.3L393.4,72.9z"/>
		</g>
		<g>
			<path class="st1" d="M399.4,77.5l0.5-5.2l-1.5-0.1l0.5-2.2l4.2,0.4l-0.6,7.2L399.4,77.5z"/>
		</g>
		<g>
			<path class="st1" d="M405.4,78.1l0.5-5.2l-1.5-0.1l0.5-2.2l4.2,0.4l-0.6,7.2L405.4,78.1z"/>
		</g>
		<g>
			<path class="st1" d="M418.3,82.8l0.7-7.7c0.1-1.1-1.5-1.4-2.6-1.4c-0.2,0-1.1,0-1.1,0l-0.5,5.5c-0.3,3.1-1.8,3.4-3.6,3.2
				c-1.1-0.1-1.6-0.5-1.6-0.5l0.5-2.2c0,0,0.2,0.2,0.7,0.2c0.6,0.1,1-0.1,1.1-1l0.5-5.5l-1.5-0.1l0.5-2c0,0,4.5,0,5.9,0.1
				c2.6,0.2,5,1,4.7,4l-0.7,7.7L418.3,82.8z"/>
		</g>
		<g>
			<path class="st1" d="M433.2,75.2l-1.6-0.1l-0.8,8.8l-2.9-0.3l0.8-8.8l-4.8-0.4l0.2-2.2l9.6,0.8L433.2,75.2z"/>
		</g>
		<g>
			<path class="st1" d="M449.7,85.6l-9.3-0.8l1-10.9c0,0,3.3-0.1,4.7,0c2.6,0.2,5,1,4.7,4l-0.5,5.5L449.7,85.6z M447.7,77.6
				c0.1-1.1-1.5-1.4-2.6-1.5c-0.2,0-1.1,0-1.1,0l-0.6,6.6l3.8,0.3L447.7,77.6z"/>
		</g>
		<g>
			<path class="st1" d="M453.7,82.3l0.5-5.2l-1.5-0.1l0.5-2.2l4.2,0.4l-0.6,7.2L453.7,82.3z"/>
		</g>
		<g>
			<path class="st1" d="M468.9,81.7c-0.4,5-3.3,5.5-5.6,5.3c-2.2-0.2-5-1.2-4.6-6.2l0.5-5.5l2.9,0.3l-0.5,5.6
				c-0.3,3.3,0.9,3.7,1.8,3.8c0.9,0.1,2.2-0.2,2.5-3.5l0.2-2.3c0.1-0.9-0.3-1.1-0.9-1.2c-0.5,0-1.3,0.1-1.3,0.1l0.2-2.3
				c0,0,0.9-0.2,2-0.1c1.8,0.2,3.2,0.8,3,3.8L468.9,81.7z"/>
		</g>
		<g>
			<path class="st1" d="M475.8,87.9l-5.9-0.5l0.2-2.2l3.2,0.3l0.5-5.6c0.1-0.9-0.3-1.1-0.9-1.2c-0.5,0-1.8,0.1-1.8,0.1l0.2-2.3
				c0,0,1.3-0.2,2.5-0.1c1.8,0.2,3.2,0.8,3,3.8l-0.5,5.5L475.8,87.9z"/>
		</g>
		<g>
			<path class="st1" d="M487.9,80l-1.6-0.1l-0.8,8.8l-2.9-0.3l0.8-8.8l-4.8-0.4l0.2-2.2l9.6,0.8L487.9,80z"/>
		</g>
		<g>
			<path class="st1" d="M490,89.1l0.8-8.8l-1.5-0.1l0.5-2.2l4.2,0.4l-1,11.1L490,89.1z"/>
		</g>
		<g>
			<path class="st1" d="M505.9,84.9c-0.4,5-3.3,5.5-5.6,5.3c-2.2-0.2-5-1.2-4.6-6.2l0.5-5.5l2.9,0.3l-0.5,5.6
				c-0.3,3.3,0.9,3.7,1.8,3.8c0.9,0.1,2.2-0.2,2.5-3.5l0.2-2.3c0.1-0.9-0.3-1.1-0.9-1.2c-0.5,0-1.3,0.1-1.3,0.1l0.2-2.3
				c0,0,0.9-0.2,2-0.1c1.8,0.2,3.2,0.8,3,3.8L505.9,84.9z"/>
		</g>
		<g>
			<path class="st1" d="M517.7,85.9c-0.4,5-3.3,5.5-5.6,5.3c-2.2-0.2-5-1.2-4.6-6.2c0.4-4.8,3.2-5.5,5.6-5.3
				C515.5,79.9,518.2,81,517.7,85.9z M514.8,85.7c0.3-3.4-0.7-3.8-1.8-3.9c-1.2-0.1-2.2,0.2-2.5,3.5c-0.3,3.3,0.9,3.8,1.8,3.8
				C513.3,89.2,514.5,89,514.8,85.7z"/>
		</g>
		<g>
			<path class="st1" d="M528.1,86.7c-0.4,4.4-3.2,5.6-5.2,5.4c-1.1-0.1-2.9-0.4-2.9-0.4l0.5-2.2c0,0,1.3,0.2,2,0.2
				c1.7,0.1,2.4-0.8,2.7-3.3l0.3-3.1l-6.1-0.5l0.5-5.2l2.9,0.3l-0.3,2.9l6.1,0.5L528.1,86.7z"/>
		</g>
		<g>
			<path class="st1" d="M33.8,78.1l1.1-12.4l-1.3-0.1l0.2-2.2l4.2,0.4l-1.3,14.6L33.8,78.1z"/>
		</g>
		<g>
			<path class="st1" d="M40.8,71.4l0.5-5.2l-1.5-0.1l0.5-2.2l4.2,0.4l-0.6,7.2L40.8,71.4z"/>
		</g>
		<g>
			<path class="st1" d="M55.1,67.4l-1.6-0.1l-0.8,8.8l-2.9-0.3l0.8-8.8l-4.8-0.4l0.2-2.2l9.6,0.8L55.1,67.4z"/>
		</g>
		<g>
			<path class="st1" d="M61.7,76.9l-5.9-0.5l0.2-2.2l3.2,0.3l0.5-5.6c0.1-0.9-0.3-1.1-0.9-1.2c-0.5,0-1.8,0.1-1.8,0.1l0.2-2.3
				c0,0,1.3-0.2,2.5-0.1c1.8,0.2,3.2,0.8,3,3.8l-0.5,5.5L61.7,76.9z"/>
		</g>
		<g>
			<path class="st1" d="M65.3,77.2l0.8-8.8l-1.5-0.1L65,66l4.2,0.4l-1,11.1L65.3,77.2z"/>
		</g>
		<g>
			<path class="st1" d="M79.8,72.7c-0.4,4.4-3.2,5.6-5.2,5.4c-1.1-0.1-2.9-0.4-2.9-0.4l0.5-2.2c0,0,1.3,0.2,2,0.2
				c1.7,0.1,2.5-0.8,2.7-3.3l0.3-3.1l-6.1-0.5l0.5-5.2l2.9,0.3l-0.3,2.9l6.1,0.5L79.8,72.7z"/>
		</g>
		<g>
			<path class="st1" d="M88.6,75.6l0.5-5.2l-1.5-0.1l0.5-2.2l4.2,0.4l-0.6,7.2L88.6,75.6z"/>
		</g>
		<g>
			<path class="st1" d="M97.1,80l-0.2-1.9c0,0-0.9,2-2.3,1.9c-0.7-0.1-1.5-0.3-1.5-0.3l0.5-2.7c0,0,1,0.3,1.7,0.4
				c0.6,0.1,1.5-1.1,1.5-1.1l0.4-4.1c0.1-0.9-0.3-1.1-0.9-1.2c-0.5,0-2,0-2,0l0.2-2.3c0,0,1.5-0.2,2.6-0.1c1.8,0.2,3.2,0.8,3,3.8
				l-0.7,7.8L97.1,80z"/>
		</g>
		<g>
			<path class="st1" d="M109.1,81.1l0.7-7.7c0.1-1.1-1.5-1.4-2.6-1.5c-0.2,0-1.1,0-1.1,0l-0.8,8.8l-2.9-0.3l1-10.9
				c0,0,3.3-0.1,4.7,0c2.6,0.2,5,1,4.7,4l-0.7,7.7L109.1,81.1z"/>
		</g>
		<g>
			<path class="st1" d="M130,82.9l-9.3-0.8l0.2-2.2l5.1,0.4l0.5-5.5c0.1-1.1-0.7-1.3-1.8-1.4c-0.8-0.1-3.2,0-3.2,0l0.2-2.2
				c0,0,2.4-0.2,3.8-0.1c2.6,0.2,4.2,0.9,3.9,4l-0.5,5.5l1.6,0.1L130,82.9z"/>
		</g>
		<g>
			<path class="st1" d="M137.1,83.5l0.7-7.7c0.1-1.1-1.1-1.3-2.2-1.4c-0.8-0.1-3.5,0-3.5,0l0.2-2.2c0,0,2.8-0.2,4.2-0.1
				c2.6,0.2,4.5,0.9,4.2,4l-0.7,7.7L137.1,83.5z"/>
		</g>
		<g>
			<path class="st1" d="M149.7,84.6l0.7-7.7c0.1-1.1-1.5-1.4-2.6-1.5c-0.8-0.1-4-0.1-4-0.1l0.2-2.2c0,0,3.3-0.1,4.7,0
				c2.6,0.2,5,1,4.7,4l-0.7,7.7L149.7,84.6z M143,84l0.5-5.5l3,0l-0.5,5.8L143,84z"/>
		</g>
		<g>
			<path class="st1" d="M168.7,86.3l0.7-7.7c0.1-1.1-1.5-1.4-2.6-1.5c-0.2,0-1.1,0-1.1,0l-0.5,5.5c-0.3,3.1-1.8,3.4-3.6,3.2
				c-1.1-0.1-1.6-0.5-1.6-0.5l0.5-2.2c0,0,0.2,0.2,0.7,0.2c0.6,0.1,1-0.1,1.1-1l0.5-5.5l-1.5-0.1l0.5-2c0,0,4.5,0,5.9,0.1
				c2.6,0.2,5,1,4.7,4l-0.7,7.7L168.7,86.3z"/>
		</g>
		<g>
			<path class="st1" d="M175.2,86.8l0.8-8.8l-1.5-0.1l0.5-2.2l4.2,0.4l-1,11.1L175.2,86.8z"/>
		</g>
		<g>
			<path class="st1" d="M195.4,83.2c-0.4,4.1-2.3,5.2-6.1,4.8l-8.1-0.7l1-11.1l2.9,0.3l-0.8,8.8l2.2,0.2c0,0,0.7-3.1,0.8-4l0.3-4.8
				l2.6,0.2l-0.3,4.8c-0.1,0.8-0.9,4-0.9,4l0.8,0.1c1.4,0.1,2.4-0.1,2.7-3l0.5-5.6l2.9,0.3L195.4,83.2z"/>
		</g>
		<g>
			<path class="st1" d="M204.1,89.4l-3.3-6.5c0,0-0.3,1.7-0.3,2.1l-0.8,4.1l-3-0.3l2.5-8.7l-1.2-2.4l3.3,0.3l2.5,5.3
				c0,0,0.4-2.2,0.6-2.7l0.7-2.3l2.8,0.2l-2.4,7.5l2,3.7L204.1,89.4z"/>
		</g>
		<g>
			<path class="st1" d="M213.9,90.2l0.7-7.7c0.1-1.1-1.1-1.3-2.2-1.4c-0.8-0.1-3.5,0-3.5,0l0.2-2.2c0,0,2.8-0.2,4.2-0.1
				c2.6,0.2,4.5,0.9,4.2,4l-0.7,7.7L213.9,90.2z"/>
		</g>
		<g>
			<path class="st1" d="M229.2,91.6l-9.4-0.8l0.2-2.2l5.1,0.4l0.5-5.5c0.1-1.1-0.7-1.3-1.8-1.4c-0.8-0.1-3.2,0-3.2,0l0.2-2.2
				c0,0,2.4-0.2,3.8-0.1c2.6,0.2,4.2,0.9,3.9,4l-0.5,5.5l1.6,0.1L229.2,91.6z"/>
		</g>
		<g>
			<path class="st1" d="M239.6,92.5l-1.5,2.7l-1.3-0.1l0.8-2.8l0.2-2.1l2.3,0.2L239.6,92.5z"/>
		</g>
		<g>
			<path class="st1" d="M247.5,93.2l0.7-7.7c0.1-1.1-1.1-1.3-2.2-1.4c-0.8-0.1-3.5,0-3.5,0l0.2-2.2c0,0,2.8-0.2,4.2-0.1
				c2.6,0.2,4.5,0.9,4.2,4l-0.7,7.7L247.5,93.2z"/>
		</g>
		<g>
			<path class="st1" d="M258.4,94.1l-5.9-0.5l0.2-2.2l3.2,0.3l0.5-5.6c0.1-0.9-0.3-1.1-0.9-1.2c-0.5,0-1.8,0.1-1.8,0.1l0.2-2.3
				c0,0,1.3-0.2,2.5-0.1c1.8,0.2,3.2,0.8,3,3.8l-0.5,5.5L258.4,94.1z"/>
		</g>
		<g>
			<path class="st1" d="M262.2,90.8l0.5-5.2l-1.5-0.1l0.5-2.2l4.2,0.4l-0.6,7.2L262.2,90.8z"/>
		</g>
		<g>
			<path class="st1" d="M276,89.9c-0.4,4.4-3.2,5.6-5.2,5.4c-1.1-0.1-2.9-0.4-2.9-0.4l0.5-2.2c0,0,1.3,0.2,2,0.2
				c1.7,0.1,2.5-0.8,2.7-3.3l0.3-3.1l-6.1-0.5l0.5-5.2l2.9,0.3l-0.3,2.9l6.1,0.5L276,89.9z"/>
		</g>
		<g>
			<path class="st1" d="M283.2,96.3l0.7-7.7c0.1-1.1-1.1-1.3-2.2-1.4c-0.8-0.1-3.5,0-3.5,0l0.2-2.2c0,0,2.8-0.2,4.2-0.1
				c2.6,0.2,4.5,0.9,4.2,4l-0.7,7.7L283.2,96.3z"/>
		</g>
		<g>
			<path class="st1" d="M298.5,97.6l-9.3-0.8l0.2-2.2l5.1,0.4l0.5-5.5c0.1-1.1-0.7-1.3-1.8-1.4c-0.8-0.1-3.2,0-3.2,0l0.2-2.2
				c0,0,2.4-0.2,3.8-0.1c2.6,0.2,4.2,0.9,3.9,4l-0.5,5.5l1.6,0.1L298.5,97.6z"/>
		</g>
		<g>
			<path class="st1" d="M315.8,99.2l-9.3-0.8l0.2-2.2l5.1,0.4l0.5-5.5c0.1-1.1-0.7-1.3-1.8-1.4c-0.8-0.1-3.2,0-3.2,0l0.2-2.2
				c0,0,2.4-0.2,3.8-0.1c2.6,0.2,4.2,0.9,3.9,4l-0.5,5.5l1.6,0.1L315.8,99.2z"/>
		</g>
		<g>
			<path class="st1" d="M326.8,94.3c-0.4,4.4-3.2,5.6-5.2,5.4c-1.1-0.1-2.9-0.4-2.9-0.4l0.5-2.2c0,0,1.3,0.2,2,0.2
				c1.7,0.1,2.5-0.8,2.7-3.3l0.3-3.1l-6.1-0.5l0.5-5.2l2.9,0.3l-0.3,2.9l6.1,0.5L326.8,94.3z"/>
		</g>
		<g>
			<path class="st1" d="M349.1,96.7c-0.4,4.1-2.3,5.2-6.1,4.8l-8.1-0.7l1-11.1l2.9,0.3l-0.8,8.8l2.2,0.2c0,0,0.7-3.1,0.8-4l0.3-4.8
				l2.6,0.2l-0.3,4.8c0,0.8-0.9,4-0.9,4l0.8,0.1c1.4,0.1,2.4-0.1,2.7-3l0.5-5.6l2.9,0.3L349.1,96.7z"/>
		</g>
		<g>
			<path class="st1" d="M354.3,93.2l-1.5,2.7l-1.3-0.1l0.8-2.8l0.2-1.9l2.3,0.2L354.3,93.2z M357.1,93.5l-1.5,2.7l-1.3-0.1l0.8-2.8
				l0.2-1.9l2.3,0.2L357.1,93.5z"/>
		</g>
		<g>
			<path class="st1" d="M368.8,98.4c-0.4,4.1-2.4,5.2-6.1,4.8l-4.4-0.4l0.5-2.2l1.9,0.2l-1.4-9l2.9,0.3l0.7,5.5
				c0.1,1.2,0.2,3.5,0.2,3.5l0.3,0c1.7,0.1,2.3-0.8,2.5-3l0.5-5.6l2.9,0.3L368.8,98.4z"/>
		</g>
		<g>
			<path class="st1" d="M377.6,100.9l0.5-5.2l-1.5-0.1l0.5-2.2l4.2,0.4l-0.6,7.2L377.6,100.9z"/>
		</g>
		<g>
			<path class="st1" d="M390.4,105.7l0.7-7.7c0.1-1.1-1.5-1.4-2.6-1.5c-0.2,0-1.1,0-1.1,0l-0.5,5.5c-0.3,3.1-1.8,3.4-3.6,3.2
				c-1.1-0.1-1.6-0.5-1.6-0.5l0.5-2.2c0,0,0.2,0.2,0.7,0.2c0.6,0.1,1-0.1,1.1-1l0.5-5.5l-1.5-0.1l0.5-2c0,0,4.5,0,5.9,0.1
				c2.6,0.2,5,1,4.7,4l-0.7,7.7L390.4,105.7z"/>
		</g>
		<g>
			<path class="st1" d="M401,106.6l0.7-7.7c0.1-1.1-1.1-1.3-2.2-1.4c-0.8-0.1-3.5,0-3.5,0l0.2-2.2c0,0,2.8-0.2,4.2-0.1
				c2.6,0.2,4.5,0.9,4.2,4l-0.7,7.7L401,106.6z"/>
		</g>
		<g>
			<path class="st1" d="M416.3,107.9l-9.4-0.8l0.2-2.2l5.1,0.4l0.5-5.5c0.1-1.1-0.7-1.3-1.8-1.4c-0.8-0.1-3.2,0-3.2,0l0.2-2.2
				c0,0,2.4-0.2,3.8-0.1c2.6,0.2,4.2,0.9,3.9,4l-0.5,5.5l1.6,0.1L416.3,107.9z"/>
		</g>
		<g>
			<path class="st1" d="M425.5,108.7l0.7-7.7c0.1-1.1-1.5-1.4-2.6-1.5c-0.2,0-1.1,0-1.1,0l-0.8,8.8l-2.9-0.3l1-10.9
				c0,0,3.3-0.1,4.7,0c2.6,0.2,5,1,4.7,4l-0.7,7.7L425.5,108.7z"/>
		</g>
		<g>
			<path class="st1" d="M451.2,105.6c-0.4,4.1-2.3,5.2-6.1,4.8l-8.1-0.7l1-11.1l2.9,0.3l-0.8,8.8l2.2,0.2c0,0,0.7-3.1,0.8-4l0.3-4.8
				l2.6,0.2l-0.3,4.8c-0.1,0.8-0.9,4-0.9,4l0.8,0.1c1.4,0.1,2.4-0.1,2.7-3l0.5-5.6l2.9,0.3L451.2,105.6z"/>
		</g>
		<g>
			<path class="st1" d="M458.3,111.6l0.7-7.7c0.1-1.1-1.1-1.3-2.2-1.4c-0.8-0.1-3.5,0-3.5,0l0.2-2.2c0,0,2.8-0.2,4.2-0.1
				c2.6,0.2,4.5,0.9,4.2,4l-0.7,7.7L458.3,111.6z"/>
		</g>
		<g>
			<path class="st1" d="M473.2,104l-1.6-0.1l-0.8,8.8l-2.9-0.3l0.8-8.8l-4.8-0.4l0.2-2.2l9.6,0.8L473.2,104z"/>
		</g>
		<g>
			<path class="st1" d="M483.7,113.8l-4.3-0.4l0.2-2.2l1.7,0.1l0.5-5.6c0.1-0.8-0.2-1.1-1.2-1.2c-1.3-0.1-2.6,0.5-2.6,0.5l-1.1,8.1
				L474,113l1.4-8.7l-0.3-2.4l2.7,0.2l0.2,1.1c0,0,2.2-1.1,3.9-1c1.8,0.2,3,1.1,2.8,3.6l-0.5,5.8L483.7,113.8z"/>
		</g>
		<g>
			<path class="st1" d="M500.1,115.3l0.7-7.7c0.1-1.1-1.5-1.4-2.6-1.5c-0.2,0-1.1,0-1.1,0l-0.5,5.5c-0.3,3.1-1.8,3.4-3.6,3.2
				c-1.1-0.1-1.6-0.5-1.6-0.5l0.5-2.2c0,0,0.2,0.2,0.7,0.2c0.6,0.1,1-0.1,1.1-1l0.5-5.5l-1.5-0.1l0.5-2c0,0,4.5,0,5.9,0.1
				c2.6,0.2,5,1,4.7,4l-0.7,7.7L500.1,115.3z"/>
		</g>
		<g>
			<path class="st1" d="M506.7,112.2l0.5-5.2l-1.5-0.1l0.5-2.2l4.2,0.4l-0.6,7.2L506.7,112.2z"/>
		</g>
		<g>
			<path class="st1" d="M521.4,117.1l-9.3-0.8l0.2-2.2l5.1,0.4l0.5-5.5c0.1-1.1-0.7-1.3-1.8-1.4c-0.8-0.1-3.2,0-3.2,0l0.2-2.2
				c0,0,2.4-0.2,3.8-0.1c2.6,0.2,4.2,0.9,3.9,4l-0.5,5.5l1.6,0.1L521.4,117.1z"/>
		</g>
		<g>
			<path class="st1" d="M77.2,150.2l1.3-15.2c0.3-3.1-4-4.4-7.8-4.7c-0.5,0-12.1-0.9-12.1-0.9l-2.8,32.3l-11-1l3.6-40.6
				c0,0,17.3-0.2,24.3,0.4c10.1,0.9,17.8,4,16.8,15.5l-1.3,15.1L77.2,150.2z M104.4,145.7c-1.4,15.5-9.8,19.4-24.4,18.1l-19.5-1.7
				l2.4-27.7l11,1L72.2,154l12.3,1.1c4.1,0.4,8.2-1.7,9-10.6l1.9-21.2l10.9,1L104.4,145.7z"/>
		</g>
		<g>
			<path class="st1" d="M160.1,170.8l-46.3-4l1.3-14.9l15.1-12.1c4.5-3.6,11.3-6.7,11.9-13c0.4-4.1-1.6-5.7-6.4-6.1
				c-6-0.5-17.5,1.6-17.5,1.6l1.4-15.9c0,0,10.8-2.6,20.7-1.7c15.3,1.3,25.1,8.7,23.8,23.5c-1.1,12.3-14.8,19.6-24,25.8
				c0,0,4.7-0.7,7.7-0.5l15.7,1.4L160.1,170.8z"/>
		</g>
		<g>
			<path class="st1" d="M228.5,145.2c-2.5,28.6-16.4,31.3-29.7,30.1c-14-1.2-26.5-7.2-24-34.8c2.5-28.8,16.7-31.3,29.7-30.1
				C217.2,111.5,231,116.8,228.5,145.2z M206.4,143.3c1.5-17.5-1-18-3.1-18.2c-1.7-0.1-4.7-0.1-6.3,17.4
				c-1.5,17.6,1.6,18.2,3.1,18.3C201.6,160.9,204.8,161.2,206.4,143.3z"/>
		</g>
		<g>
			<path class="st1" d="M247.2,171.7l-4.9,8.8l-7.3-0.6l2.5-9.1l0.6-7l10.5,0.9L247.2,171.7z"/>
		</g>
		<g>
			<path class="st1" d="M310.5,152.4c-2.5,28.6-16.4,31.3-29.7,30.1c-14-1.2-26.5-7.2-24-34.8c2.5-28.8,16.7-31.3,29.7-30.1
				C299.1,118.7,313,124,310.5,152.4z M288.3,150.5c1.5-17.5-1-18-3.1-18.2c-1.7-0.1-4.7-0.1-6.3,17.4c-1.5,17.6,1.6,18.2,3.1,18.3
				C283.5,168.1,286.7,168.4,288.3,150.5z"/>
		</g>
		<g>
			<path class="st1" d="M372.1,157.8c-2.5,28.6-16.4,31.3-29.7,30.1c-14-1.2-26.5-7.2-24-34.8c2.5-28.8,16.7-31.3,29.7-30.1
				C360.7,124.1,374.6,129.3,372.1,157.8z M349.9,155.9c1.5-17.5-1-18-3.1-18.2c-1.7-0.1-4.7-0.1-6.3,17.4
				c-1.5,17.6,1.6,18.2,3.1,18.3C345.1,173.5,348.3,173.8,349.9,155.9z"/>
		</g>
		<g>
			<path class="st1" d="M433.7,163.2c-2.5,28.6-16.4,31.3-29.7,30.1c-14-1.2-26.5-7.2-24-34.8c2.5-28.8,16.7-31.3,29.7-30.1
				C422.3,129.5,436.2,134.7,433.7,163.2z M411.5,161.2c1.5-17.5-1-18-3.1-18.2c-1.7-0.1-4.7-0.1-6.3,17.4
				c-1.5,17.6,1.6,18.2,3.1,18.3C406.7,178.9,409.9,179.2,411.5,161.2z"/>
		</g>
		<g>
			<path class="st1" d="M471.3,177.9l-3.6-0.3l-1.8,20l-6.6-0.6l1.8-20l-10.9-1l0.4-5.1l21.8,1.9L471.3,177.9z"/>
		</g>
		<g>
			<path class="st1" d="M497.6,188.2c-0.8,9.3-5.3,11.7-13.8,11l-10-0.9l1.1-5l4.4,0.4l-3.2-20.5l6.6,0.6l1.6,12.4
				c0.3,2.7,0.5,8,0.5,8l0.7,0.1c3.8,0.3,5.1-1.7,5.6-6.8l1.1-12.8l6.6,0.6L497.6,188.2z"/>
		</g>
		<g>
			<path class="st1" d="M81.9,200.7c0,0-1.5-4.9-1.2-8.5c0.3-3.6,2.6-8.2,2.6-8.2l2.4,0.2c0,0-1.8,4.8-2.1,8.2
				c-0.3,3.4,0.7,8.5,0.7,8.5L81.9,200.7z"/>
		</g>
		<g>
			<path class="st1" d="M86.2,202.1l1.1-12.4l-1.3-0.1l0.2-2.2l4.2,0.4l-1.3,14.6L86.2,202.1z"/>
		</g>
		<g>
			<path class="st1" d="M93.1,199.1l0.8-8.8l-1.5-0.1l0.5-2.2l4.2,0.4l-1,11.1L93.1,199.1z"/>
		</g>
		<g>
			<path class="st1" d="M104.2,200.1l-5.9-0.5l0.2-2.2l3.2,0.3l0.5-5.6c0.1-0.9-0.3-1.1-0.9-1.2c-0.5,0-1.8,0.1-1.8,0.1l0.2-2.3
				c0,0,1.3-0.2,2.5-0.1c1.8,0.2,3.2,0.8,3,3.8l-0.5,5.5L104.2,200.1z"/>
		</g>
		<g>
			<path class="st1" d="M115.4,201.1l-2.9-0.3l2.1-8.7l-6.5-0.6l0.2-2.2l9.2,0.8l-0.2,2.2L115.4,201.1z M107,203.9l0.8-9.1l3,0
				l-0.8,9.3L107,203.9z"/>
		</g>
		<g>
			<path class="st1" d="M126.4,202l0.7-7.7c0.1-1.1-1.5-1.4-2.6-1.5c-0.2,0-1.1,0-1.1,0l-0.5,5.5c-0.3,3.1-1.8,3.4-3.6,3.2
				c-1.1-0.1-1.6-0.5-1.6-0.5l0.5-2.2c0,0,0.2,0.2,0.7,0.2c0.6,0.1,1-0.1,1.1-1l0.5-5.5l-1.5-0.1l0.5-2c0,0,4.5,0,5.9,0.1
				c2.6,0.2,5,1,4.7,4l-0.7,7.7L126.4,202z"/>
		</g>
		<g>
			<path class="st1" d="M140.8,197.5c-0.4,4.4-3.2,5.6-5.2,5.4c-1.1-0.1-2.9-0.4-2.9-0.4l0.5-2.2c0,0,1.3,0.2,2,0.2
				c1.7,0.1,2.5-0.8,2.7-3.3l0.3-3.1l-6.1-0.5l0.5-5.2l2.9,0.3l-0.3,2.9l6.1,0.5L140.8,197.5z"/>
		</g>
		<g>
			<path class="st1" d="M154.7,208.1l0.8-9.1c0.3-3.4-0.7-3.7-1.8-3.8c-1.1-0.1-2,0.5-2.2,2c-0.1,1.5,0.9,1.7,0.9,1.7l-0.4,1.8
				l-0.1,0c-0.6-0.1-3.6-0.5-3.3-3.6c0.3-3.2,3-4.1,5.3-3.9c2.4,0.2,5,1.2,4.6,6.2l-0.8,9.1L154.7,208.1z"/>
		</g>
		<g>
			<path class="st1" d="M161.2,205.1l0.8-8.8l-1.5-0.1l0.5-2.2l4.2,0.4l-1,11.1L161.2,205.1z"/>
		</g>
		<g>
			<path class="st1" d="M177,200.9c-0.4,5-3.2,5.4-5.6,5.2c-1.4-0.1-3.7-0.5-3.7-0.5l0.4-1.9c0,0,2.5,0.3,3.5,0.4
				c0.9,0.1,2.2-0.2,2.5-3.5c0.3-3.4-0.7-3.8-1.8-3.9c-1.1-0.1-2,0.5-2.2,2c-0.1,1.5,0.9,1.7,0.9,1.7l-0.4,1.8l-0.1,0
				c-0.6-0.1-3.6-0.5-3.3-3.6c0.3-3.2,3-4.1,5.3-3.9C174.8,194.9,177.4,195.9,177,200.9z"/>
		</g>
		<g>
			<path class="st1" d="M186.1,201.7c-0.5,5.2-3.2,5.3-5.4,5.2c-1.3-0.1-2.9-0.4-2.9-0.4l0.2-2.3c0,0,1.7,0.3,2.6,0.3
				c1.2,0.1,2.2-0.1,2.4-3.1c0.3-3.2-0.8-3.7-2-3.8c-0.7-0.1-2.5,0-2.5,0l0.2-2.2c0,0,1.2-0.2,2.6,0
				C183.3,195.6,186.5,196.5,186.1,201.7z"/>
		</g>
		<g>
			<path class="st1" d="M197.4,208.3l-9.3-0.8l0.2-2.2l5.1,0.4l0.5-5.5c0.1-1.1-0.7-1.3-1.8-1.4c-0.8-0.1-3.2,0-3.2,0l0.2-2.2
				c0,0,2.4-0.2,3.8-0.1c2.6,0.2,4.2,0.9,3.9,4l-0.5,5.5l1.6,0.1L197.4,208.3z"/>
		</g>
		<g>
			<path class="st1" d="M203.6,202.9c-0.3,3.6-2.6,8.2-2.6,8.2l-2.4-0.2c0,0,1.8-4.9,2.1-8.2c0.3-3.4-0.7-8.5-0.7-8.5l2.4,0.2
				C202.4,194.4,203.9,199.2,203.6,202.9z"/>
		</g>
		<g>
			<path class="st1" d="M217.7,210l0.7-7.7c0.1-1.1-1.5-1.4-2.6-1.5c-0.8-0.1-4-0.1-4-0.1l0.2-2.2c0,0,3.3-0.1,4.7,0
				c2.6,0.2,5,1,4.7,4l-0.7,7.7L217.7,210z M211.1,209.4l0.5-5.5l3,0l-0.5,5.8L211.1,209.4z"/>
		</g>
		<g>
			<path class="st1" d="M231.8,211.3l-2.9-0.3l2.1-8.7l-6.5-0.6l0.2-2.2l9.2,0.8l-0.2,2.2L231.8,211.3z M223.4,214.1l0.8-9.1l3,0
				l-0.8,9.3L223.4,214.1z"/>
		</g>
		<g>
			<path class="st1" d="M236,208l0.5-5.2l-1.5-0.1l0.5-2.2l4.2,0.4l-0.6,7.2L236,208z"/>
		</g>
		<g>
			<path class="st1" d="M251.2,207.4c-0.4,5-3.3,5.5-5.6,5.3c-2.2-0.2-5-1.2-4.6-6.2c0.4-4.8,3.2-5.5,5.6-5.3
				C249,201.4,251.7,202.4,251.2,207.4z M248.3,207.1c0.3-3.4-0.7-3.8-1.8-3.9c-1.2-0.1-2.2,0.2-2.5,3.5c-0.3,3.3,0.9,3.8,1.8,3.8
				C246.8,210.7,248,210.4,248.3,207.1z"/>
		</g>
		<g>
			<path class="st1" d="M253.6,213.2l0.8-8.8l-1.5-0.1l0.5-2.2l4.2,0.4l-1,11.1L253.6,213.2z"/>
		</g>
		<g>
			<path class="st1" d="M268.6,214.5l-4.3-0.4l0.2-2.2l1.7,0.1l0.5-5.6c0.1-0.8-0.2-1.1-1.2-1.2c-1.3-0.1-2.6,0.5-2.6,0.5l-1.1,8.1
				l-2.9-0.3l1.4-8.7l-0.3-2.4l2.7,0.2l0.2,1.1c0,0,2.2-1.1,3.9-1c1.8,0.2,3,1.1,2.8,3.6l-0.5,5.8L268.6,214.5z"/>
		</g>
		<g>
			<path class="st1" d="M281.3,215.6l-9.4-0.8l0.2-2.2l5.1,0.4l0.5-5.5c0.1-1.1-0.7-1.3-1.8-1.4c-0.8-0.1-3.2,0-3.2,0l0.2-2.2
				c0,0,2.4-0.2,3.8-0.1c2.6,0.2,4.2,0.9,3.9,4l-0.5,5.5l1.6,0.1L281.3,215.6z"/>
		</g>
		<g>
			<path class="st1" d="M289,219.8l1.1-12.4l-1.3-0.1l0.2-2.2l4.2,0.4l-1.3,14.6L289,219.8z"/>
		</g>
		<g>
			<path class="st1" d="M295.9,216.9l0.8-8.8l-1.5-0.1l0.5-2.2l4.2,0.4l-1,11.1L295.9,216.9z"/>
		</g>
		<g>
			<path class="st1" d="M316.1,213.3c-0.4,4.1-2.3,5.2-6.1,4.8l-8.1-0.7l1-11.1l2.9,0.3l-0.8,8.8l2.2,0.2c0,0,0.7-3.1,0.8-4l0.3-4.8
				l2.6,0.2l-0.3,4.8c-0.1,0.8-0.9,4-0.9,4l0.8,0.1c1.4,0.1,2.4-0.1,2.7-3l0.5-5.6l2.9,0.3L316.1,213.3z"/>
		</g>
		<g>
			<path class="st1" d="M324.7,219.4l-3.3-6.5c0,0-0.3,1.7-0.3,2.1l-0.8,4.1l-3-0.3l2.5-8.7l-1.2-2.4l3.3,0.3l2.5,5.3
				c0,0,0.4-2.2,0.5-2.7l0.7-2.3l2.8,0.2L326,216l2,3.7L324.7,219.4z"/>
		</g>
		<g>
			<path class="st1" d="M334.6,220.2l0.7-7.7c0.1-1.1-1.1-1.3-2.2-1.4c-0.8-0.1-3.5,0-3.5,0l0.2-2.2c0,0,2.8-0.2,4.2-0.1
				c2.6,0.2,4.5,0.9,4.2,4l-0.7,7.7L334.6,220.2z"/>
		</g>
		<g>
			<path class="st1" d="M350.7,221.7l0.7-7.7c0.1-1.1-1.1-1.3-2.2-1.4c-0.8-0.1-3.5,0-3.5,0l0.2-2.2c0,0,2.8-0.2,4.2-0.1
				c2.6,0.2,4.5,0.9,4.2,4l-0.7,7.7L350.7,221.7z"/>
		</g>
		<g>
			<path class="st1" d="M362.8,222.7l-3.3-6.5c0,0-0.2,1.7-0.3,2.1l-0.8,4.1l-3-0.3l2.5-8.7l-1.2-2.4l3.3,0.3l2.5,5.3
				c0,0,0.4-2.2,0.5-2.7l0.7-2.3l2.8,0.2l-2.4,7.5l2,3.7L362.8,222.7z"/>
		</g>
		<g>
			<path class="st1" d="M368.5,223.2l0.8-8.8l-1.5-0.1l0.5-2.2l4.2,0.4l-1,11.1L368.5,223.2z"/>
		</g>
		<g>
			<path class="st1" d="M382,224.4l0.7-7.7c0.1-1.1-1.5-1.4-2.6-1.5c-0.2,0-1.1,0-1.1,0l-0.5,5.5c-0.3,3.1-1.8,3.4-3.6,3.2
				c-1.1-0.1-1.6-0.5-1.6-0.5l0.5-2.2c0,0,0.2,0.2,0.7,0.2c0.6,0.1,1-0.1,1.1-1l0.5-5.5l-1.5-0.1l0.5-2c0,0,4.5,0,5.9,0.1
				c2.6,0.2,5,1,4.7,4l-0.7,7.7L382,224.4z"/>
		</g>
		<g>
			<path class="st1" d="M396.4,219.9c-0.4,4.4-3.2,5.6-5.2,5.4c-1.1-0.1-2.9-0.4-2.9-0.4l0.5-2.2c0,0,1.3,0.2,2,0.2
				c1.7,0.1,2.5-0.8,2.7-3.3l0.3-3.1l-6.1-0.5l0.5-5.2l2.9,0.3l-0.3,2.9l6.1,0.5L396.4,219.9z"/>
		</g>
		<g>
			<path class="st1" d="M412,227l0.7-7.7c0.1-1.1-1.5-1.4-2.6-1.5c-0.2,0-1.1,0-1.1,0l-0.5,5.5c-0.3,3.1-1.8,3.4-3.6,3.2
				c-1.1-0.1-1.6-0.5-1.6-0.5l0.5-2.2c0,0,0.2,0.2,0.7,0.2c0.6,0.1,1-0.1,1.1-1l0.5-5.5l-1.5-0.1l0.5-2c0,0,4.5,0,5.9,0.1
				c2.6,0.2,5,1,4.7,4l-0.7,7.7L412,227z"/>
		</g>
		<g>
			<path class="st1" d="M418.4,227.6l0.8-8.8l-1.5-0.1l0.5-2.2l4.2,0.4l-1,11.1L418.4,227.6z"/>
		</g>
		<g>
			<path class="st1" d="M427.6,228.4l-0.2-1.9c0,0-0.9,2-2.3,1.9c-0.7-0.1-1.5-0.3-1.5-0.3l0.5-2.7c0,0,1,0.3,1.7,0.4
				c0.6,0.1,1.5-1.1,1.5-1.1l0.4-4.1c0.1-0.9-0.3-1.1-0.9-1.2c-0.5,0-2,0-2,0l0.2-2.3c0,0,1.5-0.2,2.6-0.1c1.8,0.2,3.2,0.8,3,3.8
				l-0.7,7.8L427.6,228.4z"/>
		</g>
		<g>
			<path class="st1" d="M441.5,223.8c-0.4,4.4-3.2,5.6-5.2,5.4c-1.1-0.1-2.9-0.4-2.9-0.4l0.5-2.2c0,0,1.3,0.2,2,0.2
				c1.7,0.1,2.4-0.8,2.7-3.3l0.3-3.1l-6.1-0.5l0.5-5.2l2.9,0.3l-0.3,2.9l6.1,0.5L441.5,223.8z"/>
		</g>
		<g>
			<path class="st1" d="M452.9,230.6l-4.3-0.4l0.2-2.2l1.7,0.1l0.5-5.6c0.1-0.8-0.2-1.1-1.2-1.2c-1.3-0.1-2.6,0.5-2.6,0.5l-1.1,8.1
				l-2.9-0.3l1.4-8.7l-0.3-2.4l2.7,0.2l0.2,1.1c0,0,2.2-1.1,3.9-1c1.8,0.2,3,1.1,2.8,3.6l-0.5,5.8L452.9,230.6z"/>
		</g>
	</g>
</g>
</svg>
