<?xml version="1.0" encoding="utf-8"?>
<!-- Generator: Adobe Illustrator 21.0.2, SVG Export Plug-In . SVG Version: 6.00 Build 0)  -->
<svg version="1.1" id="Layer_1" xmlns="http://www.w3.org/2000/svg" xmlns:xlink="http://www.w3.org/1999/xlink" x="0px" y="0px"
	 viewBox="0 0 547.5 274.5" style="enable-background:new 0 0 547.5 274.5;" xml:space="preserve">
<style type="text/css">
	.st0{fill:#98C21F;}
	.st1{fill:#FFFFFF;}
</style>
<g>
	<g>
		
			<rect x="162.2" y="-124.6" transform="matrix(8.715574e-02 -0.9962 0.9962 8.715574e-02 113.199 397.9937)" class="st0" width="223.2" height="523.6"/>
	</g>
	<g>
		<g>
			<polygon class="st1" points="546.8,54.1 540.9,53.6 541,51.6 539,51.4 539.6,45.5 547.5,46.2 			"/>
		</g>
		<g>
			<path class="st1" d="M529,50.6l-10-0.9l0.5-6l10,0.9L529,50.6z M508.9,48.8l-10-0.9l0.5-6l10,0.9L508.9,48.8z M488.9,47l-10-0.9
				l0.5-6l10,0.9L488.9,47z M468.8,45.3l-10-0.9l0.5-6l10,0.9L468.8,45.3z M448.8,43.5l-10-0.9l0.5-6l10,0.9L448.8,43.5z
				 M428.7,41.8l-10-0.9l0.5-6l10,0.9L428.7,41.8z M408.6,40l-10-0.9l0.5-6l10,0.9L408.6,40z M388.6,38.3l-10-0.9l0.5-6l10,0.9
				L388.6,38.3z M368.5,36.5l-10-0.9l0.5-6l10,0.9L368.5,36.5z M348.4,34.8l-10-0.9l0.5-6l10,0.9L348.4,34.8z M328.4,33l-10-0.9
				l0.5-6l10,0.9L328.4,33z M308.3,31.2l-10-0.9l0.5-6l10,0.9L308.3,31.2z M288.2,29.5l-10-0.9l0.5-6l10,0.9L288.2,29.5z
				 M268.2,27.7l-10-0.9l0.5-6l10,0.9L268.2,27.7z M248.1,26l-10-0.9l0.5-6l10,0.9L248.1,26z M228.1,24.2l-10-0.9l0.5-6l10,0.9
				L228.1,24.2z M208,22.5l-10-0.9l0.5-6l10,0.9L208,22.5z M187.9,20.7l-10-0.9l0.5-6l10,0.9L187.9,20.7z M167.9,19l-10-0.9l0.5-6
				l10,0.9L167.9,19z M147.8,17.2l-10-0.9l0.5-6l10,0.9L147.8,17.2z M127.7,15.5l-10-0.9l0.5-6l10,0.9L127.7,15.5z M107.7,13.7
				l-10-0.9l0.5-6l10,0.9L107.7,13.7z M87.6,11.9l-10-0.9l0.5-6l10,0.9L87.6,11.9z M67.5,10.2l-10-0.9l0.5-6l10,0.9L67.5,10.2z
				 M47.5,8.4l-10-0.9l0.5-6l10,0.9L47.5,8.4z"/>
		</g>
		<g>
			<polygon class="st1" points="25.3,8.5 19.3,8 20,0 27.9,0.7 27.4,6.7 25.4,6.5 			"/>
		</g>
		<g>
			<path class="st1" d="M7.6,210.7l-6-0.5l0.9-10.1l6,0.5L7.6,210.7z M9.3,190.5l-6-0.5l0.9-10.1l6,0.5L9.3,190.5z M11.1,170.3
				l-6-0.5L6,159.7l6,0.5L11.1,170.3z M12.9,150.1l-6-0.5l0.9-10.1l6,0.5L12.9,150.1z M14.6,129.8l-6-0.5l0.9-10.1l6,0.5L14.6,129.8
				z M16.4,109.6l-6-0.5L11.3,99l6,0.5L16.4,109.6z M18.2,89.4l-6-0.5l0.9-10.1l6,0.5L18.2,89.4z M19.9,69.2l-6-0.5l0.9-10.1l6,0.5
				L19.9,69.2z M21.7,48.9l-6-0.5l0.9-10.1l6,0.5L21.7,48.9z M23.5,28.7l-6-0.5l0.9-10.1l6,0.5L23.5,28.7z"/>
		</g>
		<g>
			<polygon class="st1" points="8,229 0,228.3 0.7,220.3 6.7,220.9 6.5,222.8 8.5,223 			"/>
		</g>
		<g>
			<path class="st1" d="M509.6,272.9l-10-0.9l0.5-6l10,0.9L509.6,272.9z M489.5,271.1l-10-0.9l0.5-6l10,0.9L489.5,271.1z
				 M469.4,269.4l-10-0.9l0.5-6l10,0.9L469.4,269.4z M449.4,267.6l-10-0.9l0.5-6l10,0.9L449.4,267.6z M429.3,265.9l-10-0.9l0.5-6
				l10,0.9L429.3,265.9z M409.2,264.1l-10-0.9l0.5-6l10,0.9L409.2,264.1z M389.2,262.4l-10-0.9l0.5-6l10,0.9L389.2,262.4z
				 M369.1,260.6l-10-0.9l0.5-6l10,0.9L369.1,260.6z M349,258.8l-10-0.9l0.5-6l10,0.9L349,258.8z M329,257.1l-10-0.9l0.5-6l10,0.9
				L329,257.1z M308.9,255.3l-10-0.9l0.5-6l10,0.9L308.9,255.3z M288.9,253.6l-10-0.9l0.5-6l10,0.9L288.9,253.6z M268.8,251.8
				l-10-0.9l0.5-6l10,0.9L268.8,251.8z M248.7,250.1l-10-0.9l0.5-6l10,0.9L248.7,250.1z M228.7,248.3l-10-0.9l0.5-6l10,0.9
				L228.7,248.3z M208.6,246.6l-10-0.9l0.5-6l10,0.9L208.6,246.6z M188.5,244.8l-10-0.9l0.5-6l10,0.9L188.5,244.8z M168.5,243
				l-10-0.9l0.5-6l10,0.9L168.5,243z M148.4,241.3l-10-0.9l0.5-6l10,0.9L148.4,241.3z M128.4,239.5l-10-0.9l0.5-6l10,0.9
				L128.4,239.5z M108.3,237.8l-10-0.9l0.5-6l10,0.9L108.3,237.8z M88.2,236l-10-0.9l0.5-6l10,0.9L88.2,236z M68.2,234.3l-10-0.9
				l0.5-6l10,0.9L68.2,234.3z M48.1,232.5l-10-0.9l0.5-6l10,0.9L48.1,232.5z M28,230.8l-10-0.9l0.5-6l10,0.9L28,230.8z"/>
		</g>
		<g>
			<polygon class="st1" points="527.6,274.5 519.6,273.8 520.1,267.8 522.1,268 522.3,266 528.3,266.5 			"/>
		</g>
		<g>
			<path class="st1" d="M529.1,256.4l-6-0.5l0.9-10.1l6,0.5L529.1,256.4z M530.9,236.2l-6-0.5l0.9-10.1l6,0.5L530.9,236.2z
				 M532.7,215.9l-6-0.5l0.9-10.1l6,0.5L532.7,215.9z M534.4,195.7l-6-0.5l0.9-10.1l6,0.5L534.4,195.7z M536.2,175.5l-6-0.5
				l0.9-10.1l6,0.5L536.2,175.5z M538,155.3l-6-0.5l0.9-10.1l6,0.5L538,155.3z M539.8,135l-6-0.5l0.9-10.1l6,0.5L539.8,135z
				 M541.5,114.8l-6-0.5l0.9-10.1l6,0.5L541.5,114.8z M543.3,94.6l-6-0.5l0.9-10.1l6,0.5L543.3,94.6z M545.1,74.3l-6-0.5l0.9-10.1
				l6,0.5L545.1,74.3z"/>
		</g>
	</g>
</g>
<g>
	<g>
		<path class="st1" d="M88.7,100.3L90,85c0.3-3.1-4-4.4-7.8-4.7c-0.5,0-12.1-0.9-12.1-0.9l-2.8,32.3l-11-1l3.6-40.6
			c0,0,17.3-0.2,24.3,0.4c10.1,0.9,17.8,4,16.8,15.5l-1.3,15.1L88.7,100.3z M115.8,95.8c-1.4,15.5-9.8,19.4-24.4,18.1l-19.5-1.7
			l2.4-27.7l11,1L83.7,104l12.3,1.1c4.1,0.4,8.2-1.7,9-10.6l1.9-21.2l10.9,1L115.8,95.8z"/>
	</g>
	<g>
		<path class="st1" d="M171.5,120.9l-46.3-4l1.3-14.9l15.1-12.1c4.5-3.6,11.3-6.7,11.9-13c0.4-4.1-1.6-5.7-6.4-6.1
			c-6-0.5-17.5,1.6-17.5,1.6l1.4-15.9c0,0,10.8-2.6,20.7-1.7c15.3,1.3,25.1,8.7,23.8,23.5c-1.1,12.3-14.8,19.6-24,25.8
			c0,0,4.7-0.7,7.7-0.5l15.7,1.4L171.5,120.9z"/>
	</g>
	<g>
		<path class="st1" d="M240,95.3c-2.5,28.6-16.4,31.3-29.7,30.1c-14-1.2-26.5-7.2-24-34.8c2.5-28.8,16.7-31.3,29.7-30.1
			C228.6,61.5,242.5,66.8,240,95.3z M217.9,93.3c1.5-17.5-1-18-3.1-18.2c-1.7-0.1-4.7-0.1-6.3,17.4c-1.5,17.6,1.6,18.2,3.1,18.3
			C213,111,216.3,111.2,217.9,93.3z"/>
	</g>
	<g>
		<path class="st1" d="M258.7,121.7l-4.9,8.8l-7.3-0.6l2.5-9.1l0.6-7l10.5,0.9L258.7,121.7z"/>
	</g>
	<g>
		<path class="st1" d="M321.9,102.4c-2.5,28.6-16.4,31.3-29.7,30.1c-14-1.2-26.5-7.2-24-34.8c2.5-28.8,16.7-31.3,29.7-30.1
			C310.6,68.7,324.4,74,321.9,102.4z M299.8,100.5c1.5-17.5-1-18-3.1-18.2c-1.7-0.1-4.7-0.1-6.3,17.4c-1.5,17.6,1.6,18.2,3.1,18.3
			C295,118.1,298.2,118.4,299.8,100.5z"/>
	</g>
	<g>
		<path class="st1" d="M383.6,107.8c-2.5,28.6-16.4,31.3-29.7,30.1c-14-1.2-26.5-7.2-24-34.8c2.5-28.8,16.7-31.3,29.7-30.1
			C372.2,74.1,386,79.4,383.6,107.8z M361.4,105.9c1.5-17.5-1-18-3.1-18.2c-1.7-0.1-4.7-0.1-6.3,17.4c-1.5,17.6,1.6,18.2,3.1,18.3
			C356.6,123.5,359.8,123.8,361.4,105.9z"/>
	</g>
	<g>
		<path class="st1" d="M445.2,113.2c-2.5,28.6-16.4,31.3-29.7,30.1c-14-1.2-26.5-7.2-24-34.8c2.5-28.8,16.7-31.3,29.7-30.1
			C433.8,79.5,447.7,84.8,445.2,113.2z M423,111.3c1.5-17.5-1-18-3.1-18.2c-1.7-0.1-4.7-0.1-6.3,17.4c-1.5,17.6,1.6,18.2,3.1,18.3
			C418.2,128.9,421.4,129.2,423,111.3z"/>
	</g>
	<g>
		<path class="st1" d="M482.8,127.9l-3.6-0.3l-1.8,20l-6.6-0.6l1.8-20l-10.9-1l0.4-5.1l21.8,1.9L482.8,127.9z"/>
	</g>
	<g>
		<path class="st1" d="M509.1,138.2c-0.8,9.3-5.3,11.7-13.9,11l-10-0.9l1.1-5l4.4,0.4l-3.2-20.5l6.6,0.6l1.6,12.4
			c0.3,2.7,0.5,8,0.5,8l0.7,0.1c3.8,0.3,5.1-1.7,5.6-6.8l1.1-12.8l6.6,0.6L509.1,138.2z"/>
	</g>
	<g>
		<path class="st1" d="M28.7,159.2l1.7-19.5l-2-0.2l0.3-3.5l6.6,0.6l-2,23L28.7,159.2z"/>
	</g>
	<g>
		<path class="st1" d="M39.5,154.5l1.2-13.9l-2.4-0.2l0.7-3.5l6.6,0.6l-1.5,17.4L39.5,154.5z"/>
	</g>
	<g>
		<path class="st1" d="M71.3,148.8c-0.6,6.5-3.7,8.1-9.6,7.6L49,155.3l1.5-17.4l4.6,0.4l-1.2,13.9l3.5,0.3c0,0,1.1-4.8,1.2-6.4
			l0.4-7.5l4.1,0.4l-0.4,7.6c-0.1,1.3-1.4,6.3-1.4,6.3l1.2,0.1c2.1,0.2,3.8-0.2,4.2-4.7l0.8-8.9l4.6,0.4L71.3,148.8z"/>
	</g>
	<g>
		<path class="st1" d="M84.9,158.4l-5.1-10.3c0,0-0.4,2.6-0.5,3.2l-1.3,6.4l-4.7-0.4l3.9-13.7l-1.8-3.7l5.1,0.4l3.9,8.4
			c0,0,0.7-3.5,0.9-4.2l1.1-3.7l4.4,0.4l-3.7,11.8l3.2,5.7L84.9,158.4z"/>
	</g>
	<g>
		<path class="st1" d="M100.3,159.8l1.1-12.1c0.1-1.7-1.7-2.1-3.4-2.2c-1.3-0.1-5.5,0-5.5,0l0.3-3.5c0,0,4.4-0.3,6.6-0.1
			c4.1,0.4,7.1,1.5,6.7,6.3l-1.1,12.1L100.3,159.8z"/>
	</g>
	<g>
		<path class="st1" d="M125.6,162l1.1-12.1c0.1-1.7-1.7-2.1-3.4-2.2c-1.3-0.1-5.5,0-5.5,0l0.3-3.5c0,0,4.4-0.3,6.6-0.1
			c4.1,0.4,7.1,1.5,6.7,6.3l-1.1,12.1L125.6,162z"/>
	</g>
	<g>
		<path class="st1" d="M144.7,163.7l-5.1-10.3c0,0-0.4,2.6-0.5,3.2l-1.3,6.5l-4.7-0.4l3.9-13.7l-1.8-3.7l5.1,0.4l3.9,8.4
			c0,0,0.7-3.5,0.9-4.2l1.1-3.7l4.4,0.4l-3.7,11.8l3.2,5.7L144.7,163.7z"/>
	</g>
	<g>
		<path class="st1" d="M153.6,164.4l1.2-13.9l-2.4-0.2l0.7-3.5l6.6,0.6l-1.5,17.4L153.6,164.4z"/>
	</g>
	<g>
		<path class="st1" d="M174.9,166.3l1.1-12.1c0.1-1.7-2.4-2.1-4.1-2.3c-0.4,0-1.7,0-1.7,0l-0.8,8.7c-0.4,4.8-2.9,5.3-5.6,5.1
			c-1.7-0.2-2.5-0.7-2.5-0.7l0.7-3.4c0,0,0.2,0.3,1.1,0.3c1,0.1,1.6-0.2,1.7-1.6l0.8-8.7l-2.4-0.2l0.7-3.2c0,0,7.1,0,9.3,0.1
			c4.1,0.4,7.8,1.5,7.4,6.3l-1.1,12.1L174.9,166.3z"/>
	</g>
	<g>
		<path class="st1" d="M197.5,159.2c-0.6,7-5,8.8-8.1,8.5c-1.8-0.2-4.6-0.6-4.6-0.6l0.7-3.5c0,0,2.1,0.2,3.2,0.3
			c2.6,0.2,3.9-1.3,4.2-5.2l0.4-4.9l-9.5-0.8l0.7-8.1l4.6,0.4l-0.4,4.6l9.5,0.8L197.5,159.2z"/>
	</g>
	<g>
		<path class="st1" d="M240.9,172.1l-23.8-2.1l2.4-27.7c0,0,8.3-0.3,11.8,0c6.7,0.6,12.6,2.5,11.9,10.3l-1.2,13.9L240.9,172.1z
			 M235.9,151.9c0.2-2.8-3.8-3.4-6.6-3.7c-0.6-0.1-2.7-0.1-2.7-0.1l-1.5,16.9l9.6,0.8L235.9,151.9z"/>
	</g>
	<g>
		<path class="st1" d="M251.1,163.7l1.2-13.3l-3.9-0.3l1.2-5.6l10.6,0.9l-1.6,18.2L251.1,163.7z"/>
	</g>
	<g>
		<path class="st1" d="M287.5,153.5l-4.1-0.4l-2,22.5l-7.4-0.7l2-22.5l-12.2-1.1l0.5-5.7l24.5,2.1L287.5,153.5z"/>
	</g>
	<g>
		<path class="st1" d="M292.7,176.6l2-22.5l-3.9-0.3l1.2-5.6l10.6,0.9l-2.5,28.2L292.7,176.6z"/>
	</g>
	<g>
		<path class="st1" d="M330.9,180l-11-1l0.5-5.7l4.3,0.4l1.2-14.2c0.2-2-0.6-2.7-3-2.9c-3.2-0.3-6.5,1.2-6.5,1.2l-2.9,20.7l-7.4-0.7
			l3.6-22l-0.6-6.1l6.8,0.6l0.4,2.8c0,0,5.5-2.8,10-2.4c4.7,0.4,7.6,2.8,7.1,9.1l-1.3,14.6L330.9,180z"/>
	</g>
	<g>
		<path class="st1" d="M341,171.6l1.2-13.3l-3.9-0.3l1.2-5.6l10.6,0.9l-1.6,18.2L341,171.6z"/>
	</g>
	<g>
		<path class="st1" d="M376.1,169.2c-1,11.3-8.1,14.2-13.2,13.8c-2.9-0.3-7.4-0.9-7.4-0.9l1.2-5.6c0,0,3.4,0.4,5.1,0.6
			c4.3,0.4,6.2-2,6.8-8.5l0.7-7.9l-15.4-1.3l1.1-13.1l7.4,0.7l-0.7,7.4l15.4,1.3L376.1,169.2z"/>
	</g>
	<g>
		<path class="st1" d="M415.6,187.4l1.7-19.6c0.2-2.8-3.8-3.4-6.6-3.7c-0.6-0.1-2.7-0.1-2.7-0.1l-1.2,14.1c-0.7,7.8-4.7,8.6-9.1,8.3
			c-2.8-0.2-4-1.2-4-1.2l1.2-5.6c0,0,0.4,0.4,1.7,0.5c1.5,0.1,2.6-0.4,2.7-2.5l1.2-14.1l-3.8-0.3l1.2-5.2c0,0,11.4-0.1,15,0.2
			c6.7,0.6,12.6,2.5,11.9,10.3l-1.7,19.6L415.6,187.4z"/>
	</g>
	<g>
		<path class="st1" d="M438.7,189.4l-0.5-4.8c0,0-2.3,5.1-5.7,4.8c-1.8-0.2-3.8-0.8-3.8-0.8l1.3-6.9c0,0,2.6,0.8,4.2,0.9
			c1.6,0.1,3.9-2.8,3.9-2.8l0.9-10.4c0.2-2.2-0.7-2.8-2.3-3c-1.3-0.1-5,0.1-5,0.1l0.5-5.8c0,0,3.8-0.5,6.6-0.2
			c4.5,0.4,8.2,2,7.6,9.7l-1.7,19.7L438.7,189.4z"/>
	</g>
	<g>
		<path class="st1" d="M473.9,177.8c-1,11.3-8.1,14.2-13.2,13.8c-2.9-0.3-7.4-0.9-7.4-0.9l1.2-5.6c0,0,3.4,0.4,5.1,0.6
			c4.3,0.4,6.2-2,6.8-8.5l0.7-7.9l-15.4-1.3l1.1-13.1l7.4,0.7l-0.7,7.4l15.4,1.3L473.9,177.8z"/>
	</g>
	<g>
		<path class="st1" d="M503,195l-11-1l0.5-5.7l4.3,0.4l1.2-14.2c0.2-2-0.6-2.7-3-2.9c-3.2-0.3-6.5,1.2-6.5,1.2l-2.9,20.7l-7.4-0.7
			l3.6-22l-0.6-6.1l6.8,0.6l0.4,2.8c0,0,5.5-2.8,10-2.4c4.7,0.4,7.6,2.8,7.1,9.1l-1.3,14.6L503,195z"/>
	</g>
	<g>
		<path class="st1" d="M35,202.4c0,0-3.2-4.8-2.6-10.9c0.5-6,4.5-10.2,4.5-10.2l2.3,0.2c0,0-3.6,3.8-4.2,10.3
			c-0.6,6.4,2.3,10.8,2.3,10.8L35,202.4z"/>
	</g>
	<g>
		<path class="st1" d="M40,204.2l1.4-16.4l-1.6-0.1l0.2-2l4,0.3l-1.6,18.5L40,204.2z"/>
	</g>
	<g>
		<path class="st1" d="M47.6,200.3l1-11.9l-1.8-0.2l0.4-2l4,0.3l-1.2,14L47.6,200.3z"/>
	</g>
	<g>
		<path class="st1" d="M53.3,200.8l0.2-2l4.2,0.4l0.8-8.8c0.1-1.2-0.3-1.5-1.2-1.5c-0.9-0.1-2.4,0.1-2.4,0.1l0.2-2
			c0,0,1.4-0.2,2.9-0.1c2,0.2,3.1,1,2.9,3.8l-0.9,10.7L53.3,200.8z"/>
	</g>
	<g>
		<path class="st1" d="M63.5,206.2l1.2-13.4l2.4-0.1l-1.2,13.7L63.5,206.2z M71.4,202.4l-2.7-0.2l5-11.6l-8.7-0.8l0.2-2l10.8,0.9
			l-0.1,1.7L71.4,202.4z"/>
	</g>
	<g>
		<path class="st1" d="M87,203.8l0.9-10.1c0.2-1.9-0.8-2-3.2-2.2c-0.6,0-2.1-0.1-2.1-0.1l-0.8,8.6c-0.2,2.8-1.8,3.5-3.8,3.4
			c-1.1-0.1-1.4-0.3-1.4-0.3l0.2-2c0,0,0.4,0.1,1.1,0.2c1,0.1,1.4-0.3,1.5-1.5l0.7-8.2l-1.8-0.2l0.4-1.9c0,0,6-0.1,7,0
			c3.1,0.3,4.8,1.1,4.4,4.9l-0.9,9.7L87,203.8z"/>
	</g>
	<g>
		<path class="st1" d="M102.5,201.4c-0.3,3-2.2,3.7-4.5,3.5c-1.4-0.1-4.1-0.5-4.1-0.5l0.4-1.9c0,0,2.5,0.3,3.8,0.4
			c1.2,0.1,1.9-0.3,2.1-1.6l0.7-8.4l-7.5-0.7l0.5-5.7l2.4,0.2l-0.3,3.7l7.5,0.7L102.5,201.4z"/>
	</g>
	<g>
		<path class="st1" d="M120,211.2l1-11.5c0.5-5.1-1.4-5.8-2.9-5.9c-2.1-0.2-3.3,1.4-3.4,2.9c-0.2,2.7,1.6,3.1,2.3,3.2
			c0.2,0,0.3,0,0.3,0l-0.4,1.6l-0.2,0c-0.9-0.1-4.6-0.7-4.3-5c0.1-1.5,1.4-4.7,5.8-4.4c2.5,0.2,5.6,1.3,5.1,7.7l-1,11.5L120,211.2z"
			/>
	</g>
	<g>
		<path class="st1" d="M127.3,207.3l1-11.9l-1.8-0.2l0.4-2l4,0.3l-1.2,14L127.3,207.3z"/>
	</g>
	<g>
		<path class="st1" d="M144.9,201.8c-0.6,6.5-4.1,6.9-6.6,6.7c-1.8-0.2-3.8-0.6-3.8-0.6l0.4-1.8c0,0,2.2,0.5,3.6,0.6
			c1.2,0.1,3.6-0.1,4.1-5.1c0.5-5.1-1.4-5.8-2.9-5.9c-2.1-0.2-3.3,1.4-3.4,2.9c-0.2,2.7,1.6,3.1,2.3,3.2c0.2,0,0.3,0,0.3,0l-0.4,1.6
			l-0.2,0c-0.9-0.1-4.6-0.7-4.3-5c0.1-1.5,1.4-4.7,5.8-4.4C142.3,194.3,145.5,195.4,144.9,201.8z"/>
	</g>
	<g>
		<path class="st1" d="M156.7,202.9c-0.6,6.6-4.3,6.8-6.5,6.6c-1.4-0.1-3.6-0.6-3.6-0.6l0.2-2.1c0,0,2.3,0.5,3.6,0.6
			c1.6,0.1,3.6-0.2,3.9-4.7c0.4-4.9-1.5-5.4-3.3-5.6c-1.3-0.1-3.4,0.1-3.4,0.1l0.2-2c0,0,2-0.2,3.5-0.1
			C153.4,195.2,157.2,196.2,156.7,202.9z"/>
	</g>
	<g>
		<path class="st1" d="M164.7,203.1c-0.5,6-4.5,10.2-4.5,10.2l-2.3-0.2c0,0,3.6-3.8,4.2-10.3c0.6-6.4-2.3-10.8-2.3-10.8l2.3,0.2
			C162,192.3,165.2,197.1,164.7,203.1z"/>
	</g>
	<g>
		<path class="st1" d="M249.7,218l1.1-12.1c0.2-1.7-2.4-2.1-4.1-2.3c-0.4,0-1.7,0-1.7,0l-0.8,8.7c-0.4,4.8-2.9,5.3-5.6,5.1
			c-1.7-0.2-2.5-0.7-2.5-0.7l0.7-3.4c0,0,0.2,0.3,1.1,0.3c1,0.1,1.6-0.2,1.7-1.6l0.8-8.7L238,203l0.7-3.2c0,0,7.1,0,9.3,0.1
			c4.1,0.4,7.8,1.5,7.4,6.3l-1.1,12.1L249.7,218z"/>
	</g>
	<g>
		<path class="st1" d="M260.1,213.2l0.7-8.2l-2.4-0.2l0.7-3.5l6.6,0.6l-1,11.2L260.1,213.2z"/>
	</g>
	<g>
		<path class="st1" d="M282.6,220.9l-6.8-0.6l0.3-3.5l2.6,0.2l0.8-8.8c0.1-1.2-0.3-1.7-1.8-1.8c-2-0.2-4,0.7-4,0.7l-1.8,12.8
			l-4.6-0.4l2.3-13.6l-0.4-3.8l4.2,0.4l0.3,1.7c0,0,3.4-1.8,6.2-1.5c2.9,0.3,4.7,1.7,4.4,5.6l-0.8,9L282.6,220.9z"/>
	</g>
	<g>
		<path class="st1" d="M288.5,221.4l1.2-13.9l-2.4-0.2l0.7-3.5l6.6,0.6l-1.5,17.4L288.5,221.4z"/>
	</g>
	<g>
		<path class="st1" d="M308.6,223.2l1.1-12.1c0.2-1.7-2.4-2.1-4.1-2.3c-0.4,0-1.7,0.1-1.7,0.1l-1.2,13.8l-4.6-0.4l1.5-17.1
			c0,0,5.1-0.2,7.3,0c4.1,0.4,7.8,1.5,7.4,6.3l-1.1,12.1L308.6,223.2z"/>
	</g>
	<g>
		<path class="st1" d="M329.7,225l1.1-12.1c0.2-1.7-2.4-2.1-4.1-2.3c-0.4,0-1.7,0-1.7,0l-0.8,8.7c-0.4,4.8-2.9,5.3-5.6,5.1
			c-1.7-0.2-2.5-0.7-2.5-0.7l0.7-3.4c0,0,0.2,0.3,1.1,0.3c1,0.1,1.6-0.2,1.7-1.6l0.8-8.7L318,210l0.7-3.2c0,0,7.1,0,9.3,0.1
			c4.1,0.4,7.8,1.5,7.4,6.3l-1.1,12.1L329.7,225z"/>
	</g>
	<g>
		<path class="st1" d="M362.5,227.9l-14.7-1.3l0.3-3.5l8,0.7l0.8-8.6c0.2-1.7-1.1-2-2.9-2.2c-1.3-0.1-5,0-5,0l0.3-3.5
			c0,0,3.8-0.3,6-0.1c4.1,0.4,6.5,1.4,6.1,6.2l-0.8,8.6l2.6,0.2L362.5,227.9z"/>
	</g>
	<g>
		<path class="st1" d="M373.6,228.9l1.1-12.1c0.2-1.7-1.7-2.1-3.4-2.2c-1.3-0.1-5.5,0-5.5,0l0.3-3.5c0,0,4.4-0.3,6.6-0.1
			c4.1,0.4,7.1,1.5,6.7,6.3l-1.1,12.1L373.6,228.9z"/>
	</g>
	<g>
		<path class="st1" d="M391.7,230.4l0.8-8.7l4.6,0l-0.8,9.1L391.7,230.4z M402.2,231.4l1.1-12.1c0.2-1.7-2.4-2.1-4.1-2.3
			c-1.3-0.1-6.3-0.1-6.3-0.1l0.3-3.5c0,0,5.1-0.2,7.3,0c4.1,0.4,7.8,1.5,7.4,6.3l-1.1,12.1L402.2,231.4z"/>
	</g>
	<g>
		<path class="st1" d="M411.1,237.8l1.2-14.3l4.6,0l-1.3,14.7L411.1,237.8z M424.4,233.3l-4.6-0.4l3.3-13.7l-10.2-0.9l0.3-3.5
			l14.5,1.3l-0.3,3.5L424.4,233.3z"/>
	</g>
	<g>
		<path class="st1" d="M431,228.1l0.7-8.2l-2.4-0.2l0.7-3.5l6.6,0.6l-1,11.2L431,228.1z"/>
	</g>
	<g>
		<path class="st1" d="M454.9,227.2c-0.7,7.9-5.3,8.7-8.7,8.3c-3.5-0.3-7.8-1.9-7.2-9.7c0.7-7.6,5.1-8.7,8.7-8.3
			C451.3,217.8,455.5,219.4,454.9,227.2z M450.3,226.8c0.5-5.4-1-5.9-2.8-6.1s-3.4,0.3-3.9,5.5c-0.4,5.1,1.4,5.9,2.9,6
			S449.8,231.9,450.3,226.8z"/>
	</g>
	<g>
		<path class="st1" d="M458.6,236.3l1.2-13.9l-2.4-0.2l0.7-3.5l6.6,0.6l-1.5,17.4L458.6,236.3z"/>
	</g>
	<g>
		<path class="st1" d="M482.2,238.3l-6.8-0.6l0.3-3.5l2.6,0.2l0.8-8.8c0.1-1.2-0.3-1.7-1.8-1.8c-2-0.2-4,0.7-4,0.7l-1.8,12.8
			l-4.6-0.4l2.3-13.6l-0.4-3.8l4.2,0.4l0.3,1.7c0,0,3.4-1.8,6.2-1.5c2.9,0.3,4.7,1.7,4.4,5.6l-0.8,9L482.2,238.3z"/>
	</g>
	<g>
		<path class="st1" d="M502.1,240.1l-14.7-1.3l0.3-3.5l8,0.7l0.8-8.6c0.2-1.7-1.1-2-2.9-2.2c-1.3-0.1-5,0-5,0l0.3-3.5
			c0,0,3.8-0.3,6-0.1c4.1,0.4,6.5,1.4,6.1,6.2l-0.8,8.6l2.6,0.2L502.1,240.1z"/>
	</g>
</g>
</svg>
