<?xml version="1.0" encoding="utf-8"?>
<!-- Generator: Adobe Illustrator 21.0.2, SVG Export Plug-In . SVG Version: 6.00 Build 0)  -->
<svg version="1.1" id="Layer_1" xmlns="http://www.w3.org/2000/svg" xmlns:xlink="http://www.w3.org/1999/xlink" x="0px" y="0px"
	 viewBox="0 0 547.5 274.5" style="enable-background:new 0 0 547.5 274.5;" xml:space="preserve">
<style type="text/css">
	.st0{fill:#98C21F;}
	.st1{fill:#FFFFFF;}
</style>
<g>
	<g>
		
			<rect x="162.2" y="-124.6" transform="matrix(8.715574e-02 -0.9962 0.9962 8.715574e-02 113.1991 397.9944)" class="st0" width="223.2" height="523.6"/>
	</g>
	<g>
		<g>
			<polygon class="st1" points="546.8,54.1 540.9,53.6 541,51.6 539,51.4 539.6,45.5 547.5,46.2 			"/>
		</g>
		<g>
			<path class="st1" d="M529,50.6l-10-0.9l0.5-6l10,0.9L529,50.6z M508.9,48.8l-10-0.9l0.5-6l10,0.9L508.9,48.8z M488.9,47l-10-0.9
				l0.5-6l10,0.9L488.9,47z M468.8,45.3l-10-0.9l0.5-6l10,0.9L468.8,45.3z M448.8,43.5l-10-0.9l0.5-6l10,0.9L448.8,43.5z
				 M428.7,41.8l-10-0.9l0.5-6l10,0.9L428.7,41.8z M408.6,40l-10-0.9l0.5-6l10,0.9L408.6,40z M388.6,38.3l-10-0.9l0.5-6l10,0.9
				L388.6,38.3z M368.5,36.5l-10-0.9l0.5-6l10,0.9L368.5,36.5z M348.4,34.8l-10-0.9l0.5-6l10,0.9L348.4,34.8z M328.4,33l-10-0.9
				l0.5-6l10,0.9L328.4,33z M308.3,31.2l-10-0.9l0.5-6l10,0.9L308.3,31.2z M288.2,29.5l-10-0.9l0.5-6l10,0.9L288.2,29.5z
				 M268.2,27.7l-10-0.9l0.5-6l10,0.9L268.2,27.7z M248.1,26l-10-0.9l0.5-6l10,0.9L248.1,26z M228.1,24.2l-10-0.9l0.5-6l10,0.9
				L228.1,24.2z M208,22.5l-10-0.9l0.5-6l10,0.9L208,22.5z M187.9,20.7l-10-0.9l0.5-6l10,0.9L187.9,20.7z M167.9,19l-10-0.9l0.5-6
				l10,0.9L167.9,19z M147.8,17.2l-10-0.9l0.5-6l10,0.9L147.8,17.2z M127.7,15.5l-10-0.9l0.5-6l10,0.9L127.7,15.5z M107.7,13.7
				l-10-0.9l0.5-6l10,0.9L107.7,13.7z M87.6,11.9l-10-0.9l0.5-6l10,0.9L87.6,11.9z M67.5,10.2l-10-0.9l0.5-6l10,0.9L67.5,10.2z
				 M47.5,8.4l-10-0.9l0.5-6l10,0.9L47.5,8.4z"/>
		</g>
		<g>
			<polygon class="st1" points="25.3,8.5 19.3,8 20,0 27.9,0.7 27.4,6.7 25.4,6.5 			"/>
		</g>
		<g>
			<path class="st1" d="M7.6,210.7l-6-0.5l0.9-10.1l6,0.5L7.6,210.7z M9.3,190.5l-6-0.5l0.9-10.1l6,0.5L9.3,190.5z M11.1,170.3
				l-6-0.5L6,159.7l6,0.5L11.1,170.3z M12.9,150.1l-6-0.5l0.9-10.1l6,0.5L12.9,150.1z M14.6,129.8l-6-0.5l0.9-10.1l6,0.5L14.6,129.8
				z M16.4,109.6l-6-0.5L11.3,99l6,0.5L16.4,109.6z M18.2,89.4l-6-0.5l0.9-10.1l6,0.5L18.2,89.4z M19.9,69.2l-6-0.5l0.9-10.1l6,0.5
				L19.9,69.2z M21.7,48.9l-6-0.5l0.9-10.1l6,0.5L21.7,48.9z M23.5,28.7l-6-0.5l0.9-10.1l6,0.5L23.5,28.7z"/>
		</g>
		<g>
			<polygon class="st1" points="8,229 0,228.3 0.7,220.3 6.7,220.9 6.5,222.8 8.5,223 			"/>
		</g>
		<g>
			<path class="st1" d="M509.6,272.9l-10-0.9l0.5-6l10,0.9L509.6,272.9z M489.5,271.1l-10-0.9l0.5-6l10,0.9L489.5,271.1z
				 M469.4,269.4l-10-0.9l0.5-6l10,0.9L469.4,269.4z M449.4,267.6l-10-0.9l0.5-6l10,0.9L449.4,267.6z M429.3,265.9l-10-0.9l0.5-6
				l10,0.9L429.3,265.9z M409.2,264.1l-10-0.9l0.5-6l10,0.9L409.2,264.1z M389.2,262.4l-10-0.9l0.5-6l10,0.9L389.2,262.4z
				 M369.1,260.6l-10-0.9l0.5-6l10,0.9L369.1,260.6z M349,258.8l-10-0.9l0.5-6l10,0.9L349,258.8z M329,257.1l-10-0.9l0.5-6l10,0.9
				L329,257.1z M308.9,255.3l-10-0.9l0.5-6l10,0.9L308.9,255.3z M288.9,253.6l-10-0.9l0.5-6l10,0.9L288.9,253.6z M268.8,251.8
				l-10-0.9l0.5-6l10,0.9L268.8,251.8z M248.7,250.1l-10-0.9l0.5-6l10,0.9L248.7,250.1z M228.7,248.3l-10-0.9l0.5-6l10,0.9
				L228.7,248.3z M208.6,246.6l-10-0.9l0.5-6l10,0.9L208.6,246.6z M188.5,244.8l-10-0.9l0.5-6l10,0.9L188.5,244.8z M168.5,243
				l-10-0.9l0.5-6l10,0.9L168.5,243z M148.4,241.3l-10-0.9l0.5-6l10,0.9L148.4,241.3z M128.4,239.5l-10-0.9l0.5-6l10,0.9
				L128.4,239.5z M108.3,237.8l-10-0.9l0.5-6l10,0.9L108.3,237.8z M88.2,236l-10-0.9l0.5-6l10,0.9L88.2,236z M68.2,234.3l-10-0.9
				l0.5-6l10,0.9L68.2,234.3z M48.1,232.5l-10-0.9l0.5-6l10,0.9L48.1,232.5z M28,230.8l-10-0.9l0.5-6l10,0.9L28,230.8z"/>
		</g>
		<g>
			<polygon class="st1" points="527.6,274.5 519.6,273.8 520.1,267.8 522.1,268 522.3,266 528.3,266.5 			"/>
		</g>
		<g>
			<path class="st1" d="M529.1,256.4l-6-0.5l0.9-10.1l6,0.5L529.1,256.4z M530.9,236.2l-6-0.5l0.9-10.1l6,0.5L530.9,236.2z
				 M532.7,215.9l-6-0.5l0.9-10.1l6,0.5L532.7,215.9z M534.4,195.7l-6-0.5l0.9-10.1l6,0.5L534.4,195.7z M536.2,175.5l-6-0.5
				l0.9-10.1l6,0.5L536.2,175.5z M538,155.3l-6-0.5l0.9-10.1l6,0.5L538,155.3z M539.8,135l-6-0.5l0.9-10.1l6,0.5L539.8,135z
				 M541.5,114.8l-6-0.5l0.9-10.1l6,0.5L541.5,114.8z M543.3,94.6l-6-0.5l0.9-10.1l6,0.5L543.3,94.6z M545.1,74.4l-6-0.5l0.9-10.1
				l6,0.5L545.1,74.4z"/>
		</g>
	</g>
</g>
<g>
	<g>
		<path class="st1" d="M142.5,61.8l0.5-5.2l-1.5-0.1l0.5-2.2l4.2,0.4l-0.6,7.2L142.5,61.8z"/>
	</g>
	<g>
		<path class="st1" d="M155.3,66.6l0.7-7.7c0.1-1.1-1.5-1.4-2.6-1.5c-0.2,0-1.1,0-1.1,0l-0.5,5.5c-0.3,3.1-1.8,3.4-3.6,3.2
			c-1.1-0.1-1.6-0.5-1.6-0.5l0.5-2.2c0,0,0.2,0.2,0.7,0.2c0.6,0.1,1-0.1,1.1-1l0.5-5.5l-1.5-0.1l0.5-2c0,0,4.5,0,5.9,0.1
			c2.6,0.2,5,1,4.7,4l-0.7,7.7L155.3,66.6z"/>
	</g>
	<g>
		<path class="st1" d="M170.3,59l-1.6-0.1l-0.8,8.8l-2.9-0.3l0.8-8.8l-4.8-0.4l0.2-2.2l9.6,0.8L170.3,59z"/>
	</g>
	<g>
		<path class="st1" d="M178.6,68.6l0.7-7.7c0.1-1.1-1.5-1.4-2.6-1.4c-0.8-0.1-4-0.1-4-0.1l0.2-2.2c0,0,3.3-0.1,4.7,0
			c2.6,0.2,5,1,4.7,4l-0.7,7.7L178.6,68.6z M171.9,68l0.5-5.5l3,0l-0.5,5.8L171.9,68z"/>
	</g>
	<g>
		<path class="st1" d="M194.7,70l0.7-7.7c0.1-1.1-1.1-1.3-2.2-1.4c-0.8-0.1-3.5,0-3.5,0l0.2-2.2c0,0,2.8-0.2,4.2-0.1
			c2.6,0.2,4.5,0.9,4.2,4l-0.7,7.7L194.7,70z"/>
	</g>
	<g>
		<path class="st1" d="M206.9,62.2l-1.7-0.1l-0.6,2.9l-0.1,5.9l-2.9-0.3l0.2-5.4l0.7-3.4l-2.2-0.2l0.2-2.2l6.9,0.6L206.9,62.2z"/>
	</g>
	<g>
		<path class="st1" d="M211.6,71.5l-0.2-1.9c0,0-0.9,2-2.2,1.9c-0.7-0.1-1.5-0.3-1.5-0.3l0.5-2.7c0,0,1,0.3,1.7,0.4
			c0.6,0.1,1.5-1.1,1.5-1.1l0.4-4.1c0.1-0.9-0.3-1.1-0.9-1.2c-0.5,0-2,0-2,0l0.2-2.3c0,0,1.5-0.2,2.6-0.1c1.8,0.2,3.2,0.8,3,3.8
			l-0.7,7.8L211.6,71.5z"/>
	</g>
	<g>
		<path class="st1" d="M225.9,72.8l-4.3-0.4l0.2-2.2l1.7,0.1l0.5-5.6c0.1-0.8-0.2-1.1-1.2-1.2c-1.3-0.1-2.6,0.5-2.6,0.5l-1.1,8.1
			l-2.9-0.3l1.4-8.7l-0.3-2.4l2.7,0.2l0.2,1.1c0,0,2.2-1.1,3.9-1c1.8,0.2,3,1.1,2.8,3.6l-0.5,5.8L225.9,72.8z"/>
	</g>
	<g>
		<path class="st1" d="M235.9,73.6l0.7-7.7c0.1-1.1-1.5-1.4-2.6-1.5c-0.8-0.1-4-0.1-4-0.1l0.2-2.2c0,0,3.3-0.1,4.7,0
			c2.6,0.2,5,1,4.7,4l-0.7,7.7L235.9,73.6z M229.2,73l0.5-5.5l3,0l-0.5,5.8L229.2,73z"/>
	</g>
	<g>
		<path class="st1" d="M254.9,75.3l0.7-7.7c0.1-1.1-1.5-1.4-2.6-1.5c-0.2,0-1.1,0-1.1,0l-0.5,5.5c-0.3,3.1-1.8,3.4-3.6,3.2
			c-1.1-0.1-1.6-0.5-1.6-0.5l0.5-2.2c0,0,0.2,0.2,0.7,0.2c0.6,0.1,1-0.1,1.1-1l0.5-5.5l-1.5-0.1l0.5-2c0,0,4.5,0,5.9,0.1
			c2.6,0.2,5,1,4.7,4l-0.7,7.7L254.9,75.3z"/>
	</g>
	<g>
		<path class="st1" d="M269.3,70.8c-0.4,4.4-3.2,5.6-5.2,5.4c-1.1-0.1-2.9-0.4-2.9-0.4l0.5-2.2c0,0,1.3,0.2,2,0.2
			c1.7,0.1,2.5-0.8,2.7-3.3l0.3-3.1l-6.1-0.5l0.5-5.2L264,62l-0.3,2.9l6.1,0.5L269.3,70.8z"/>
	</g>
	<g>
		<path class="st1" d="M278.5,77.4l0.7-7.7c0.1-1.1-1.5-1.4-2.6-1.4c-0.8-0.1-4-0.1-4-0.1l0.2-2.2c0,0,3.3-0.1,4.7,0
			c2.6,0.2,5,1,4.7,4l-0.7,7.7L278.5,77.4z M271.9,76.8l0.5-5.5l3,0l-0.5,5.8L271.9,76.8z"/>
	</g>
	<g>
		<path class="st1" d="M289.5,78.3l-5.9-0.5l0.2-2.2l3.2,0.3l0.5-5.6c0.1-0.9-0.3-1.1-0.9-1.2c-0.5,0-1.8,0.1-1.8,0.1l0.2-2.3
			c0,0,1.3-0.2,2.5-0.1c1.8,0.2,3.2,0.8,3,3.8l-0.5,5.5L289.5,78.3z"/>
	</g>
	<g>
		<path class="st1" d="M301.6,79.4l-4.3-0.4l0.2-2.2l1.7,0.1l0.5-5.6c0.1-0.8-0.2-1.1-1.2-1.2c-1.3-0.1-2.6,0.5-2.6,0.5l-1.1,8.1
			l-2.9-0.3l1.4-8.7l-0.3-2.4l2.7,0.2l0.2,1.1c0,0,2.2-1.1,3.9-1c1.8,0.2,3,1.1,2.8,3.6l-0.5,5.8L301.6,79.4z"/>
	</g>
	<g>
		<path class="st1" d="M318.9,75.1c-0.4,4.4-3.2,5.6-5.2,5.4c-1.1-0.1-2.9-0.4-2.9-0.4l0.5-2.2c0,0,1.3,0.2,2,0.2
			c1.7,0.1,2.5-0.8,2.7-3.3l0.3-3.1l-6.1-0.5l0.5-5.2l2.9,0.3l-0.3,2.9l6.1,0.5L318.9,75.1z"/>
	</g>
	<g>
		<path class="st1" d="M335.6,77c-0.4,4.1-2.3,5.2-6.1,4.8l-8.1-0.7l1-11.1l2.9,0.3l-0.8,8.8l2.2,0.2c0,0,0.7-3.1,0.8-4l0.3-4.8
			l2.6,0.2l-0.3,4.8c-0.1,0.8-0.9,4-0.9,4l0.8,0.1c1.4,0.1,2.4-0.1,2.7-3l0.5-5.6l2.9,0.3L335.6,77z"/>
	</g>
	<g>
		<path class="st1" d="M344.3,79.5l0.5-5.2l-1.5-0.1l0.5-2.2l4.2,0.4l-0.6,7.2L344.3,79.5z"/>
	</g>
	<g>
		<path class="st1" d="M363.8,79.5c-0.4,4.1-2.3,5.2-6.1,4.8l-8.1-0.7l1-11.1l2.9,0.3l-0.8,8.8l2.2,0.2c0,0,0.7-3.1,0.8-4L356,73
			l2.6,0.2l-0.3,4.8c-0.1,0.8-0.9,4-0.9,4l0.8,0.1c1.4,0.1,2.4-0.1,2.7-3l0.5-5.6l2.9,0.3L363.8,79.5z"/>
	</g>
	<g>
		<path class="st1" d="M367,81.5l0.5-5.2l-1.5-0.1l0.5-2.2l4.2,0.4l-0.6,7.2L367,81.5z"/>
	</g>
	<g>
		<path class="st1" d="M378.5,86.1l-3.3-6.5c0,0-0.3,1.7-0.3,2.1l-0.8,4.1l-3-0.3l2.5-8.7l-1.2-2.4l3.3,0.3l2.5,5.3
			c0,0,0.4-2.2,0.6-2.7l0.7-2.3l2.8,0.2l-2.4,7.5l2,3.7L378.5,86.1z"/>
	</g>
	<g>
		<path class="st1" d="M389.9,83.5l0.5-5.2l-1.5-0.1l0.5-2.2l4.2,0.4l-0.6,7.2L389.9,83.5z"/>
	</g>
	<g>
		<path class="st1" d="M395.7,87.6l0.8-8.8l-1.5-0.1l0.5-2.2l4.2,0.4l-1,11.1L395.7,87.6z"/>
	</g>
	<g>
		<path class="st1" d="M402.3,88.2l0.8-8.8l-1.5-0.1L402,77l4.2,0.4l-1,11.1L402.3,88.2z"/>
	</g>
	<g>
		<path class="st1" d="M416.8,83.7c-0.4,4.4-3.2,5.6-5.2,5.4c-1.1-0.1-2.9-0.4-2.9-0.4l0.5-2.2c0,0,1.3,0.2,2,0.2
			c1.7,0.1,2.5-0.8,2.7-3.3l0.3-3.1l-6.1-0.5l0.5-5.2l2.9,0.3l-0.3,2.9l6.1,0.5L416.8,83.7z"/>
	</g>
	<g>
		<path class="st1" d="M33.2,84.8l1.1-12.4L33,72.3l0.2-2.2l4.2,0.4L36.1,85L33.2,84.8z"/>
	</g>
	<g>
		<path class="st1" d="M40.2,78.2l0.5-5.2l-1.5-0.1l0.5-2.2l4.2,0.4l-0.6,7.2L40.2,78.2z"/>
	</g>
	<g>
		<path class="st1" d="M54.5,74.1L52.9,74l-0.8,8.8l-2.9-0.3l0.8-8.8l-4.8-0.4l0.2-2.2l9.6,0.8L54.5,74.1z"/>
	</g>
	<g>
		<path class="st1" d="M61.2,83.6l-5.9-0.5l0.2-2.2l3.2,0.3l0.5-5.6c0.1-0.9-0.3-1.1-0.9-1.2c-0.5,0-1.8,0.1-1.8,0.1l0.2-2.3
			c0,0,1.3-0.2,2.5-0.1c1.8,0.2,3.2,0.8,3,3.8l-0.5,5.5L61.2,83.6z"/>
	</g>
	<g>
		<path class="st1" d="M64.7,84l0.8-8.8L64,75l0.5-2.2l4.2,0.4l-1,11.1L64.7,84z"/>
	</g>
	<g>
		<path class="st1" d="M79.2,79.4c-0.4,4.4-3.2,5.6-5.2,5.4c-1.1-0.1-2.9-0.4-2.9-0.4l0.5-2.2c0,0,1.3,0.2,2,0.2
			c1.7,0.1,2.5-0.8,2.7-3.3l0.3-3.1l-6.1-0.5l0.5-5.2l2.9,0.3l-0.3,2.9l6.1,0.5L79.2,79.4z"/>
	</g>
	<g>
		<path class="st1" d="M88,82.3l0.5-5.2L86.9,77l0.5-2.2l4.2,0.4L91,82.3L88,82.3z"/>
	</g>
	<g>
		<path class="st1" d="M96.5,86.7l-0.2-1.9c0,0-0.9,2-2.3,1.9c-0.7-0.1-1.5-0.3-1.5-0.3l0.5-2.7c0,0,1,0.3,1.7,0.4
			c0.6,0.1,1.5-1.1,1.5-1.1l0.4-4.1c0.1-0.9-0.3-1.1-0.9-1.2c-0.5,0-2,0-2,0l0.2-2.3c0,0,1.5-0.2,2.6-0.1c1.8,0.2,3.2,0.8,3,3.8
			l-0.7,7.8L96.5,86.7z"/>
	</g>
	<g>
		<path class="st1" d="M108.5,87.8l0.7-7.7c0.1-1.1-1.5-1.4-2.6-1.5c-0.2,0-1.1,0-1.1,0l-0.8,8.8l-2.9-0.3l1-10.9c0,0,3.3-0.1,4.7,0
			c2.6,0.2,5,1,4.7,4l-0.7,7.7L108.5,87.8z"/>
	</g>
	<g>
		<path class="st1" d="M129.4,89.6l-9.3-0.8l0.2-2.2l5.1,0.4l0.5-5.5c0.1-1.1-0.7-1.3-1.8-1.4c-0.8-0.1-3.2,0-3.2,0l0.2-2.2
			c0,0,2.4-0.2,3.8-0.1c2.6,0.2,4.2,0.9,3.9,4l-0.5,5.5l1.6,0.1L129.4,89.6z"/>
	</g>
	<g>
		<path class="st1" d="M136.5,90.2l0.7-7.7c0.1-1.1-1.1-1.3-2.2-1.4c-0.8-0.1-3.5,0-3.5,0l0.2-2.2c0,0,2.8-0.2,4.2-0.1
			c2.6,0.2,4.5,0.9,4.2,4l-0.7,7.7L136.5,90.2z"/>
	</g>
	<g>
		<path class="st1" d="M149.1,91.3l0.7-7.7c0.1-1.1-1.5-1.4-2.6-1.5c-0.8-0.1-4-0.1-4-0.1l0.2-2.2c0,0,3.3-0.1,4.7,0
			c2.6,0.2,5,1,4.7,4l-0.7,7.7L149.1,91.3z M142.4,90.8l0.5-5.5l3,0l-0.5,5.8L142.4,90.8z"/>
	</g>
	<g>
		<path class="st1" d="M168.1,93l0.7-7.7c0.1-1.1-1.5-1.4-2.6-1.5c-0.2,0-1.1,0-1.1,0l-0.5,5.5c-0.3,3.1-1.8,3.4-3.6,3.2
			c-1.1-0.1-1.6-0.5-1.6-0.5l0.5-2.2c0,0,0.2,0.2,0.7,0.2c0.6,0.1,1-0.1,1.1-1l0.5-5.5l-1.5-0.1l0.5-2c0,0,4.5,0,5.9,0.1
			c2.6,0.2,5,1,4.7,4l-0.7,7.7L168.1,93z"/>
	</g>
	<g>
		<path class="st1" d="M174.6,93.6l0.8-8.8l-1.5-0.1l0.5-2.2l4.2,0.4l-1,11.1L174.6,93.6z"/>
	</g>
	<g>
		<path class="st1" d="M194.9,90c-0.4,4.1-2.3,5.2-6.1,4.8l-8.1-0.7l1-11.1l2.9,0.3l-0.8,8.8l2.2,0.2c0,0,0.7-3.1,0.8-4l0.3-4.8
			l2.6,0.2l-0.3,4.8c-0.1,0.8-0.9,4-0.9,4l0.8,0.1c1.4,0.1,2.4-0.1,2.7-3l0.5-5.6l2.9,0.3L194.9,90z"/>
	</g>
	<g>
		<path class="st1" d="M203.5,96.1l-3.3-6.5c0,0-0.3,1.7-0.3,2.1l-0.8,4.1l-3-0.3l2.5-8.7l-1.2-2.4l3.3,0.3l2.5,5.3
			c0,0,0.4-2.2,0.6-2.7l0.7-2.3l2.8,0.2l-2.4,7.5l2,3.7L203.5,96.1z"/>
	</g>
	<g>
		<path class="st1" d="M213.3,96.9l0.7-7.7c0.1-1.1-1.1-1.3-2.2-1.4c-0.8-0.1-3.5,0-3.5,0l0.2-2.2c0,0,2.8-0.2,4.2-0.1
			c2.6,0.2,4.5,0.9,4.2,4l-0.7,7.7L213.3,96.9z"/>
	</g>
	<g>
		<path class="st1" d="M228.6,98.3l-9.4-0.8l0.2-2.2l5.1,0.4l0.5-5.5c0.1-1.1-0.7-1.3-1.8-1.4c-0.8-0.1-3.2,0-3.2,0l0.2-2.2
			c0,0,2.4-0.2,3.8-0.1c2.6,0.2,4.2,0.9,3.9,4l-0.5,5.5l1.6,0.1L228.6,98.3z"/>
	</g>
	<g>
		<path class="st1" d="M239,99.2l-1.5,2.7l-1.3-0.1l0.8-2.8l0.2-2.1l2.3,0.2L239,99.2z"/>
	</g>
	<g>
		<path class="st1" d="M246.9,99.9l0.7-7.7c0.1-1.1-1.1-1.3-2.2-1.4c-0.8-0.1-3.5,0-3.5,0l0.2-2.2c0,0,2.8-0.2,4.2-0.1
			c2.6,0.2,4.5,0.9,4.2,4l-0.7,7.7L246.9,99.9z"/>
	</g>
	<g>
		<path class="st1" d="M257.9,100.8l-5.9-0.5l0.2-2.2l3.2,0.3l0.5-5.6c0.1-0.9-0.3-1.1-0.9-1.2c-0.5,0-1.8,0.1-1.8,0.1l0.2-2.3
			c0,0,1.3-0.2,2.5-0.1c1.8,0.2,3.2,0.8,3,3.8l-0.5,5.5L257.9,100.8z"/>
	</g>
	<g>
		<path class="st1" d="M261.7,97.5l0.5-5.2l-1.5-0.1L261,90l4.2,0.4l-0.6,7.2L261.7,97.5z"/>
	</g>
	<g>
		<path class="st1" d="M275.4,96.6c-0.4,4.4-3.2,5.6-5.2,5.4c-1.1-0.1-2.9-0.4-2.9-0.4l0.5-2.2c0,0,1.3,0.2,2,0.2
			c1.7,0.1,2.5-0.8,2.7-3.3l0.3-3.1l-6.1-0.5l0.5-5.2l2.9,0.3l-0.3,2.9l6.1,0.5L275.4,96.6z"/>
	</g>
	<g>
		<path class="st1" d="M282.6,103l0.7-7.7c0.1-1.1-1.1-1.3-2.2-1.4c-0.8-0.1-3.5,0-3.5,0l0.2-2.2c0,0,2.8-0.2,4.2-0.1
			c2.6,0.2,4.5,0.9,4.2,4l-0.7,7.7L282.6,103z"/>
	</g>
	<g>
		<path class="st1" d="M297.9,104.4l-9.3-0.8l0.2-2.2l5.1,0.4l0.5-5.5c0.1-1.1-0.7-1.3-1.8-1.4c-0.8-0.1-3.2,0-3.2,0l0.2-2.2
			c0,0,2.4-0.2,3.8-0.1c2.6,0.2,4.2,0.9,3.9,4l-0.5,5.5l1.6,0.1L297.9,104.4z"/>
	</g>
	<g>
		<path class="st1" d="M315.3,105.9l-9.3-0.8l0.2-2.2l5.1,0.4l0.5-5.5c0.1-1.1-0.7-1.3-1.8-1.4c-0.8-0.1-3.2,0-3.2,0l0.2-2.2
			c0,0,2.4-0.2,3.8-0.1c2.6,0.2,4.2,0.9,3.9,4l-0.5,5.5l1.6,0.1L315.3,105.9z"/>
	</g>
	<g>
		<path class="st1" d="M326.2,101.1c-0.4,4.4-3.2,5.6-5.2,5.4c-1.1-0.1-2.9-0.4-2.9-0.4l0.5-2.2c0,0,1.3,0.2,2,0.2
			c1.7,0.1,2.5-0.8,2.7-3.3l0.3-3.1l-6.1-0.5l0.5-5.2l2.9,0.3l-0.3,2.9l6.1,0.5L326.2,101.1z"/>
	</g>
	<g>
		<path class="st1" d="M348.5,103.4c-0.4,4.1-2.3,5.2-6.1,4.8l-8.1-0.7l1-11.1l2.9,0.3l-0.8,8.8l2.2,0.2c0,0,0.7-3.1,0.8-4l0.3-4.8
			l2.6,0.2L343,102c-0.1,0.8-0.9,4-0.9,4l0.8,0.1c1.4,0.1,2.4-0.1,2.7-3l0.5-5.6l2.9,0.3L348.5,103.4z"/>
	</g>
	<g>
		<path class="st1" d="M353.7,99.9l-1.5,2.7l-1.3-0.1l0.8-2.8l0.2-1.9l2.3,0.2L353.7,99.9z M356.6,100.2l-1.5,2.7l-1.3-0.1l0.8-2.8
			l0.2-1.9l2.3,0.2L356.6,100.2z"/>
	</g>
	<g>
		<path class="st1" d="M368.2,105.1c-0.4,4.1-2.3,5.2-6.1,4.8l-4.4-0.4l0.5-2.2l1.9,0.2l-1.4-9l2.9,0.3l0.7,5.5
			c0.1,1.2,0.2,3.5,0.2,3.5l0.3,0c1.7,0.1,2.3-0.8,2.5-3l0.5-5.6l2.9,0.3L368.2,105.1z"/>
	</g>
	<g>
		<path class="st1" d="M377,107.6l0.5-5.2l-1.5-0.1l0.5-2.2l4.2,0.4l-0.6,7.2L377,107.6z"/>
	</g>
	<g>
		<path class="st1" d="M389.8,112.4l0.7-7.7c0.1-1.1-1.5-1.4-2.6-1.5c-0.2,0-1.1,0-1.1,0l-0.5,5.5c-0.3,3.1-1.8,3.4-3.6,3.2
			c-1.1-0.1-1.6-0.5-1.6-0.5l0.5-2.2c0,0,0.2,0.2,0.7,0.2c0.6,0.1,1-0.1,1.1-1l0.5-5.5l-1.5-0.1l0.5-2c0,0,4.5,0,5.9,0.1
			c2.6,0.2,5,1,4.7,4l-0.7,7.7L389.8,112.4z"/>
	</g>
	<g>
		<path class="st1" d="M400.4,113.3l0.7-7.7c0.1-1.1-1.1-1.3-2.2-1.4c-0.8-0.1-3.5,0-3.5,0l0.2-2.2c0,0,2.8-0.2,4.2-0.1
			c2.6,0.2,4.5,0.9,4.2,4l-0.7,7.7L400.4,113.3z"/>
	</g>
	<g>
		<path class="st1" d="M415.7,114.7l-9.4-0.8l0.2-2.2l5.1,0.4l0.5-5.5c0.1-1.1-0.7-1.3-1.8-1.4c-0.8-0.1-3.2,0-3.2,0l0.2-2.2
			c0,0,2.4-0.2,3.8-0.1c2.6,0.2,4.2,0.9,3.9,4l-0.5,5.5l1.6,0.1L415.7,114.7z"/>
	</g>
	<g>
		<path class="st1" d="M424.9,115.5l0.7-7.7c0.1-1.1-1.5-1.4-2.6-1.5c-0.2,0-1.1,0-1.1,0l-0.8,8.8l-2.9-0.3l1-10.9
			c0,0,3.3-0.1,4.7,0c2.6,0.2,5,1,4.7,4l-0.7,7.7L424.9,115.5z"/>
	</g>
	<g>
		<path class="st1" d="M450.6,112.3c-0.4,4.1-2.3,5.2-6.1,4.8l-8.1-0.7l1-11.1l2.9,0.3l-0.8,8.8l2.2,0.2c0,0,0.7-3.1,0.8-4l0.3-4.8
			l2.6,0.2l-0.3,4.8c-0.1,0.8-0.9,4-0.9,4l0.8,0.1c1.4,0.1,2.4-0.1,2.7-3l0.5-5.6l2.9,0.3L450.6,112.3z"/>
	</g>
	<g>
		<path class="st1" d="M457.7,118.3l0.7-7.7c0.1-1.1-1.1-1.3-2.2-1.4c-0.8-0.1-3.5,0-3.5,0l0.2-2.2c0,0,2.8-0.2,4.2-0.1
			c2.6,0.2,4.5,0.9,4.2,4l-0.7,7.7L457.7,118.3z"/>
	</g>
	<g>
		<path class="st1" d="M472.6,110.7l-1.6-0.1l-0.8,8.8l-2.9-0.3l0.8-8.8l-4.8-0.4l0.2-2.2l9.6,0.8L472.6,110.7z"/>
	</g>
	<g>
		<path class="st1" d="M483.1,120.6l-4.3-0.4l0.2-2.2l1.7,0.1l0.5-5.6c0.1-0.8-0.2-1.1-1.2-1.2c-1.3-0.1-2.6,0.5-2.6,0.5l-1.1,8.1
			l-2.9-0.3l1.4-8.7l-0.3-2.4l2.7,0.2l0.2,1.1c0,0,2.2-1.1,3.9-1c1.8,0.2,3,1.1,2.8,3.6l-0.5,5.8L483.1,120.6z"/>
	</g>
	<g>
		<path class="st1" d="M499.5,122l0.7-7.7c0.1-1.1-1.5-1.4-2.6-1.5c-0.2,0-1.1,0-1.1,0l-0.5,5.5c-0.3,3.1-1.8,3.4-3.6,3.2
			c-1.1-0.1-1.6-0.5-1.6-0.5l0.5-2.2c0,0,0.2,0.2,0.7,0.2c0.6,0.1,1-0.1,1.1-1l0.5-5.5l-1.5-0.1l0.5-2c0,0,4.5,0,5.9,0.1
			c2.6,0.2,5,1,4.7,4l-0.7,7.7L499.5,122z"/>
	</g>
	<g>
		<path class="st1" d="M506.1,118.9l0.5-5.2l-1.5-0.1l0.5-2.2l4.2,0.4l-0.6,7.2L506.1,118.9z"/>
	</g>
	<g>
		<path class="st1" d="M520.8,123.9l-9.3-0.8l0.2-2.2l5.1,0.4l0.5-5.5c0.1-1.1-0.7-1.3-1.8-1.4c-0.8-0.1-3.2,0-3.2,0l0.2-2.2
			c0,0,2.4-0.2,3.8-0.1c2.6,0.2,4.2,0.9,3.9,4l-0.5,5.5l1.6,0.1L520.8,123.9z"/>
	</g>
	<g>
		<path class="st1" d="M77.1,151l1.3-15.2c0.3-3.1-4-4.4-7.8-4.7c-0.5,0-12.1-0.9-12.1-0.9l-2.8,32.3l-11-1l3.6-40.6
			c0,0,17.3-0.2,24.3,0.4c10.1,0.9,17.8,4,16.8,15.5l-1.3,15.1L77.1,151z M104.3,146.5c-1.4,15.5-9.8,19.4-24.4,18.1l-19.5-1.7
			l2.4-27.7l11,1l-1.6,18.6l12.3,1.1c4.1,0.4,8.2-1.7,9-10.6l1.9-21.2l10.9,1L104.3,146.5z"/>
	</g>
	<g>
		<path class="st1" d="M160,171.6l-46.3-4l1.3-14.9l15.1-12.1c4.5-3.6,11.3-6.7,11.9-13c0.4-4.1-1.6-5.7-6.4-6.1
			c-6-0.5-17.5,1.6-17.5,1.6l1.4-15.9c0,0,10.8-2.6,20.7-1.7c15.3,1.3,25.1,8.7,23.8,23.5c-1.1,12.3-14.8,19.6-24,25.8
			c0,0,4.7-0.7,7.7-0.5l15.7,1.4L160,171.6z"/>
	</g>
	<g>
		<path class="st1" d="M228.5,146c-2.5,28.6-16.4,31.3-29.7,30.1c-14-1.2-26.5-7.2-24-34.8c2.5-28.8,16.7-31.3,29.7-30.1
			C217.1,112.2,231,117.5,228.5,146z M206.3,144c1.5-17.5-1-18-3.1-18.2c-1.7-0.1-4.7-0.1-6.3,17.4c-1.5,17.6,1.6,18.2,3.1,18.3
			C201.5,161.7,204.7,162,206.3,144z"/>
	</g>
	<g>
		<path class="st1" d="M247.1,172.4l-4.9,8.8l-7.3-0.6l2.5-9.1l0.6-7l10.5,0.9L247.1,172.4z"/>
	</g>
	<g>
		<path class="st1" d="M310.4,153.1c-2.5,28.6-16.4,31.3-29.7,30.1c-14-1.2-26.5-7.2-24-34.8c2.5-28.8,16.7-31.3,29.7-30.1
			C299,119.4,312.9,124.7,310.4,153.1z M288.2,151.2c1.5-17.5-1-18-3.1-18.2c-1.7-0.1-4.7-0.1-6.3,17.4c-1.5,17.6,1.6,18.2,3.1,18.3
			C283.4,168.8,286.7,169.1,288.2,151.2z"/>
	</g>
	<g>
		<path class="st1" d="M372,158.5c-2.5,28.6-16.4,31.3-29.7,30.1c-14-1.2-26.5-7.2-24-34.8c2.5-28.8,16.7-31.3,29.7-30.1
			C360.6,124.8,374.5,130.1,372,158.5z M349.8,156.6c1.5-17.5-1-18-3.1-18.2c-1.7-0.1-4.7-0.1-6.3,17.4c-1.5,17.6,1.6,18.2,3.1,18.3
			C345,174.2,348.3,174.5,349.8,156.6z"/>
	</g>
	<g>
		<path class="st1" d="M433.6,163.9c-2.5,28.6-16.4,31.3-29.7,30.1c-14-1.2-26.5-7.2-24-34.8c2.5-28.8,16.7-31.3,29.7-30.1
			C422.2,130.2,436.1,135.5,433.6,163.9z M411.4,162c1.5-17.5-1-18-3.1-18.2c-1.7-0.1-4.7-0.1-6.3,17.4c-1.5,17.6,1.6,18.2,3.1,18.3
			C406.6,179.6,409.9,179.9,411.4,162z"/>
	</g>
	<g>
		<path class="st1" d="M471.2,178.6l-3.6-0.3l-1.8,20l-6.6-0.6l1.8-20l-10.9-1l0.4-5.1l21.8,1.9L471.2,178.6z"/>
	</g>
	<g>
		<path class="st1" d="M497.5,188.9c-0.8,9.3-5.3,11.7-13.8,11l-10-0.9l1.1-5l4.4,0.4l-3.2-20.5l6.6,0.6l1.6,12.4
			c0.3,2.7,0.5,8,0.5,8l0.7,0.1c3.8,0.3,5.1-1.7,5.6-6.8l1.1-12.8l6.6,0.6L497.5,188.9z"/>
	</g>
	<g>
		<path class="st1" d="M182.6,206.2c0,0-2.5-3.8-2.1-8.6c0.4-4.8,3.6-8.1,3.6-8.1l1.8,0.2c0,0-2.9,3-3.3,8.1s1.8,8.6,1.8,8.6
			L182.6,206.2z"/>
	</g>
	<g>
		<path class="st1" d="M186.5,207.6l1.1-13l-1.3-0.1l0.1-1.6l3.1,0.3l-1.3,14.6L186.5,207.6z"/>
	</g>
	<g>
		<path class="st1" d="M192.6,204.6l0.8-9.5L192,195l0.4-1.6l3.1,0.3l-1,11.1L192.6,204.6z"/>
	</g>
	<g>
		<path class="st1" d="M197.1,204.9l0.1-1.6l3.3,0.3l0.6-7c0.1-1-0.2-1.2-0.9-1.2c-0.7-0.1-1.9,0.1-1.9,0.1l0.1-1.6
			c0,0,1.1-0.2,2.3-0.1c1.6,0.1,2.5,0.8,2.3,3l-0.7,8.5L197.1,204.9z"/>
	</g>
	<g>
		<path class="st1" d="M211.5,206.2l-2.2-0.2l4-9.2l-6.9-0.6l0.1-1.6l8.6,0.8l-0.1,1.4L211.5,206.2z M205.2,209.2l0.9-10.6l1.9,0
			l-0.9,10.8L205.2,209.2z"/>
	</g>
	<g>
		<path class="st1" d="M223.9,207.3l0.7-8.1c0.1-1.5-0.6-1.6-2.5-1.8c-0.4,0-1.7,0-1.7,0l-0.6,6.8c-0.2,2.3-1.4,2.8-3,2.7
			c-0.9-0.1-1.1-0.2-1.1-0.2l0.1-1.6c0,0,0.3,0.1,0.9,0.1c0.8,0.1,1.1-0.2,1.2-1.2l0.6-6.5l-1.5-0.1l0.3-1.5c0,0,4.8-0.1,5.6,0
			c2.5,0.2,3.8,0.9,3.5,3.9l-0.7,7.7L223.9,207.3z"/>
	</g>
	<g>
		<path class="st1" d="M236.2,205.4c-0.2,2.3-1.7,2.9-3.6,2.8c-1.1-0.1-3.3-0.4-3.3-0.4l0.3-1.5c0,0,2,0.2,3,0.3
			c1,0.1,1.5-0.2,1.6-1.3l0.6-6.6l-6-0.5l0.4-4.5l1.9,0.2l-0.3,2.9l6,0.5L236.2,205.4z"/>
	</g>
	<g>
		<path class="st1" d="M250.1,213.2l0.8-9.1c0.4-4.1-1.1-4.6-2.3-4.7c-1.7-0.1-2.6,1.1-2.7,2.3c-0.2,2.2,1.3,2.5,1.9,2.5
			c0.1,0,0.2,0,0.2,0l-0.3,1.3l-0.2,0c-0.7-0.1-3.7-0.5-3.4-4c0.1-1.2,1.1-3.8,4.6-3.5c2,0.2,4.5,1,4,6.1l-0.8,9.1L250.1,213.2z"/>
	</g>
	<g>
		<path class="st1" d="M255.9,210.1l0.8-9.5l-1.5-0.1l0.4-1.6l3.1,0.3l-1,11.1L255.9,210.1z"/>
	</g>
	<g>
		<path class="st1" d="M269.9,205.7c-0.5,5.2-3.2,5.5-5.2,5.3c-1.4-0.1-3-0.5-3-0.5l0.3-1.4c0,0,1.8,0.4,2.8,0.5
			c0.9,0.1,2.9-0.1,3.2-4c0.4-4.1-1.1-4.6-2.3-4.7c-1.7-0.1-2.6,1.1-2.7,2.3c-0.2,2.2,1.3,2.5,1.9,2.5c0.1,0,0.2,0,0.2,0l-0.3,1.3
			l-0.2,0c-0.7-0.1-3.7-0.5-3.4-4c0.1-1.2,1.1-3.8,4.6-3.5C267.8,199.8,270.3,200.6,269.9,205.7z"/>
	</g>
	<g>
		<path class="st1" d="M279.2,206.6c-0.5,5.2-3.4,5.4-5.2,5.2c-1.1-0.1-2.8-0.4-2.8-0.4l0.1-1.7c0,0,1.8,0.4,2.8,0.5
			c1.3,0.1,2.8-0.2,3.1-3.7c0.3-3.9-1.2-4.3-2.6-4.4c-1-0.1-2.7,0.1-2.7,0.1l0.1-1.6c0,0,1.6-0.2,2.8-0.1
			C276.6,200.5,279.6,201.3,279.2,206.6z"/>
	</g>
	<g>
		<path class="st1" d="M290,213.1l-8.4-0.7l0.1-1.6l5.1,0.4l0.6-6.4c0.1-1.5-0.7-1.7-1.9-1.9c-1-0.1-3.1,0.2-3.1,0.2l0.1-1.6
			c0,0,1.6-0.3,3.4-0.1c2,0.2,3.6,0.8,3.4,3.9l-0.5,6.1l1.6,0.1L290,213.1z"/>
	</g>
	<g>
		<path class="st1" d="M296.7,207.8c-0.4,4.8-3.6,8.1-3.6,8.1l-1.8-0.2c0,0,2.9-3,3.3-8.1c0.4-5.1-1.8-8.6-1.8-8.6l1.8,0.2
			C294.6,199.2,297.2,203,296.7,207.8z"/>
	</g>
	<g>
		<path class="st1" d="M311.6,215l0.7-8.1c0.1-1.5-0.6-1.6-2.5-1.8c-0.4,0-1.7,0-1.7,0l-0.6,6.8c-0.2,2.3-1.4,2.8-3,2.7
			c-0.9-0.1-1.1-0.2-1.1-0.2l0.1-1.6c0,0,0.3,0.1,0.9,0.1c0.8,0.1,1.1-0.2,1.2-1.2l0.6-6.5l-1.5-0.1l0.3-1.5c0,0,4.8-0.1,5.6,0
			c2.5,0.2,3.8,0.9,3.5,3.9l-0.7,7.7L311.6,215z"/>
	</g>
	<g>
		<path class="st1" d="M317.2,215.5l0.8-9.5l-1.5-0.1l0.4-1.6l3.1,0.3l-1,11.1L317.2,215.5z"/>
	</g>
	<g>
		<path class="st1" d="M325.6,216.2l-0.1-2.2c0,0-0.9,2.3-2.6,2.2c-0.4,0-1.1-0.2-1.1-0.2l0.4-2c0,0,0.6,0.3,1.3,0.3
			c1,0.1,1.9-1.4,1.9-1.4l0.5-5.3c0.1-1-0.2-1.2-0.9-1.2c-0.7-0.1-1.9,0.1-1.9,0.1l0.1-1.6c0,0,1.1-0.2,2.3-0.1
			c1.6,0.1,2.5,0.8,2.3,3l-0.7,8.5L325.6,216.2z"/>
	</g>
	<g>
		<path class="st1" d="M337.4,214.3c-0.2,2.3-1.7,2.9-3.6,2.8c-1.1-0.1-3.3-0.4-3.3-0.4l0.3-1.5c0,0,2,0.2,3,0.3
			c1,0.1,1.5-0.2,1.6-1.3l0.6-6.6l-6-0.5l0.4-4.5l1.9,0.2l-0.3,2.9l6,0.5L337.4,214.3z"/>
	</g>
	<g>
		<path class="st1" d="M348.9,218.2l-4.8-0.4l0.1-1.6l3.1,0.3l0.6-6.5c0.1-1.5-0.8-1.6-1.6-1.7c-1.5-0.1-3.1,0.7-3.1,0.7l-1.5,8.5
			l-1.9-0.2l1.5-8.7l-0.4-2.3l2,0.2l0.2,1.2c0,0,1.9-1.2,3.8-1c1.8,0.2,3.1,1,2.9,3.6l-0.6,6.4L348.9,218.2z"/>
	</g>
</g>
</svg>
