<?xml version="1.0" encoding="utf-8"?>
<!-- Generator: Adobe Illustrator 21.0.0, SVG Export Plug-In . SVG Version: 6.00 Build 0)  -->
<svg version="1.1" id="Layer_1" xmlns="http://www.w3.org/2000/svg" xmlns:xlink="http://www.w3.org/1999/xlink" x="0px" y="0px"
	 viewBox="0 0 547.5 274.5" style="enable-background:new 0 0 547.5 274.5;" xml:space="preserve">
<style type="text/css">
	.st0{fill:#98C21F;}
	.st1{fill:#FFFFFF;}
</style>
<g>
	<g>
		<g>
			
				<rect x="162.2" y="-124.6" transform="matrix(8.715574e-02 -0.9962 0.9962 8.715574e-02 113.199 397.9937)" class="st0" width="223.2" height="523.6"/>
		</g>
		<g>
			<g>
				<polygon class="st1" points="546.8,54.1 540.9,53.6 541,51.6 539,51.4 539.6,45.5 547.5,46.2 				"/>
			</g>
			<g>
				<path class="st1" d="M529,50.6l-10-0.9l0.5-6l10,0.9L529,50.6z M508.9,48.8l-10-0.9l0.5-6l10,0.9L508.9,48.8z M488.9,47l-10-0.9
					l0.5-6l10,0.9L488.9,47z M468.8,45.3l-10-0.9l0.5-6l10,0.9L468.8,45.3z M448.8,43.5l-10-0.9l0.5-6l10,0.9L448.8,43.5z
					 M428.7,41.8l-10-0.9l0.5-6l10,0.9L428.7,41.8z M408.6,40l-10-0.9l0.5-6l10,0.9L408.6,40z M388.6,38.3l-10-0.9l0.5-6l10,0.9
					L388.6,38.3z M368.5,36.5l-10-0.9l0.5-6l10,0.9L368.5,36.5z M348.4,34.8l-10-0.9l0.5-6l10,0.9L348.4,34.8z M328.4,33l-10-0.9
					l0.5-6l10,0.9L328.4,33z M308.3,31.2l-10-0.9l0.5-6l10,0.9L308.3,31.2z M288.2,29.5l-10-0.9l0.5-6l10,0.9L288.2,29.5z
					 M268.2,27.7l-10-0.9l0.5-6l10,0.9L268.2,27.7z M248.1,26l-10-0.9l0.5-6l10,0.9L248.1,26z M228.1,24.2l-10-0.9l0.5-6l10,0.9
					L228.1,24.2z M208,22.5l-10-0.9l0.5-6l10,0.9L208,22.5z M187.9,20.7l-10-0.9l0.5-6l10,0.9L187.9,20.7z M167.9,19l-10-0.9l0.5-6
					l10,0.9L167.9,19z M147.8,17.2l-10-0.9l0.5-6l10,0.9L147.8,17.2z M127.7,15.5l-10-0.9l0.5-6l10,0.9L127.7,15.5z M107.7,13.7
					l-10-0.9l0.5-6l10,0.9L107.7,13.7z M87.6,11.9l-10-0.9l0.5-6l10,0.9L87.6,11.9z M67.5,10.2l-10-0.9l0.5-6l10,0.9L67.5,10.2z
					 M47.5,8.4l-10-0.9l0.5-6l10,0.9L47.5,8.4z"/>
			</g>
			<g>
				<polygon class="st1" points="25.3,8.5 19.3,8 20,0 27.9,0.7 27.4,6.7 25.4,6.5 				"/>
			</g>
			<g>
				<path class="st1" d="M7.6,210.7l-6-0.5l0.9-10.1l6,0.5L7.6,210.7z M9.3,190.5l-6-0.5l0.9-10.1l6,0.5L9.3,190.5z M11.1,170.3
					l-6-0.5L6,159.7l6,0.5L11.1,170.3z M12.9,150.1l-6-0.5l0.9-10.1l6,0.5L12.9,150.1z M14.6,129.8l-6-0.5l0.9-10.1l6,0.5
					L14.6,129.8z M16.4,109.6l-6-0.5L11.3,99l6,0.5L16.4,109.6z M18.2,89.4l-6-0.5l0.9-10.1l6,0.5L18.2,89.4z M19.9,69.2l-6-0.5
					l0.9-10.1l6,0.5L19.9,69.2z M21.7,48.9l-6-0.5l0.9-10.1l6,0.5L21.7,48.9z M23.5,28.7l-6-0.5l0.9-10.1l6,0.5L23.5,28.7z"/>
			</g>
			<g>
				<polygon class="st1" points="8,229 0,228.3 0.7,220.3 6.7,220.9 6.5,222.8 8.5,223 				"/>
			</g>
			<g>
				<path class="st1" d="M509.6,272.9l-10-0.9l0.5-6l10,0.9L509.6,272.9z M489.5,271.1l-10-0.9l0.5-6l10,0.9L489.5,271.1z
					 M469.4,269.4l-10-0.9l0.5-6l10,0.9L469.4,269.4z M449.4,267.6l-10-0.9l0.5-6l10,0.9L449.4,267.6z M429.3,265.9l-10-0.9l0.5-6
					l10,0.9L429.3,265.9z M409.2,264.1l-10-0.9l0.5-6l10,0.9L409.2,264.1z M389.2,262.4l-10-0.9l0.5-6l10,0.9L389.2,262.4z
					 M369.1,260.6l-10-0.9l0.5-6l10,0.9L369.1,260.6z M349,258.8l-10-0.9l0.5-6l10,0.9L349,258.8z M329,257.1l-10-0.9l0.5-6l10,0.9
					L329,257.1z M308.9,255.3l-10-0.9l0.5-6l10,0.9L308.9,255.3z M288.9,253.6l-10-0.9l0.5-6l10,0.9L288.9,253.6z M268.8,251.8
					l-10-0.9l0.5-6l10,0.9L268.8,251.8z M248.7,250.1l-10-0.9l0.5-6l10,0.9L248.7,250.1z M228.7,248.3l-10-0.9l0.5-6l10,0.9
					L228.7,248.3z M208.6,246.6l-10-0.9l0.5-6l10,0.9L208.6,246.6z M188.5,244.8l-10-0.9l0.5-6l10,0.9L188.5,244.8z M168.5,243
					l-10-0.9l0.5-6l10,0.9L168.5,243z M148.4,241.3l-10-0.9l0.5-6l10,0.9L148.4,241.3z M128.4,239.5l-10-0.9l0.5-6l10,0.9
					L128.4,239.5z M108.3,237.8l-10-0.9l0.5-6l10,0.9L108.3,237.8z M88.2,236l-10-0.9l0.5-6l10,0.9L88.2,236z M68.2,234.3l-10-0.9
					l0.5-6l10,0.9L68.2,234.3z M48.1,232.5l-10-0.9l0.5-6l10,0.9L48.1,232.5z M28,230.8l-10-0.9l0.5-6l10,0.9L28,230.8z"/>
			</g>
			<g>
				<polygon class="st1" points="527.6,274.5 519.6,273.8 520.1,267.8 522.1,268 522.3,266 528.3,266.5 				"/>
			</g>
			<g>
				<path class="st1" d="M529.1,256.4l-6-0.5l0.9-10.1l6,0.5L529.1,256.4z M530.9,236.2l-6-0.5l0.9-10.1l6,0.5L530.9,236.2z
					 M532.7,215.9l-6-0.5l0.9-10.1l6,0.5L532.7,215.9z M534.4,195.7l-6-0.5l0.9-10.1l6,0.5L534.4,195.7z M536.2,175.5l-6-0.5
					l0.9-10.1l6,0.5L536.2,175.5z M538,155.3l-6-0.5l0.9-10.1l6,0.5L538,155.3z M539.8,135l-6-0.5l0.9-10.1l6,0.5L539.8,135z
					 M541.5,114.8l-6-0.5l0.9-10.1l6,0.5L541.5,114.8z M543.3,94.6l-6-0.5l0.9-10.1l6,0.5L543.3,94.6z M545.1,74.3l-6-0.5l0.9-10.1
					l6,0.5L545.1,74.3z"/>
			</g>
		</g>
	</g>
	<g>
		<g>
			<g>
				<path class="st1" d="M109,104.3l1.4-15.7c0.3-3.2-4.2-4.5-8-4.9c-0.5,0-12.5-0.9-12.5-0.9L87,116.1l-11.3-1l3.7-41.8
					c0,0,17.8-0.2,25,0.4c10.4,0.9,18.4,4.1,17.3,16l-1.4,15.6L109,104.3z M137,99.6c-1.4,16-10.1,20-25.2,18.6l-20.1-1.8L94.3,88
					l11.3,1l-1.7,19.1l12.7,1.1c4.2,0.4,8.5-1.8,9.3-10.9l1.9-21.8l11.2,1L137,99.6z"/>
			</g>
			<g>
				<path class="st1" d="M194.4,125.5l-47.7-4.2l1.3-15.3l15.5-12.5c4.6-3.7,11.6-6.9,12.2-13.3c0.4-4.3-1.7-5.8-6.5-6.3
					c-6.2-0.5-18.1,1.7-18.1,1.7l1.4-16.4c0,0,11.2-2.6,21.3-1.7c15.8,1.4,25.8,9,24.5,24.2c-1.1,12.7-15.3,20.2-24.8,26.6
					c0,0,4.8-0.7,7.9-0.5l16.2,1.4L194.4,125.5z"/>
			</g>
			<g>
				<path class="st1" d="M265,99.1c-2.6,29.4-16.9,32.2-30.6,31c-14.4-1.3-27.3-7.4-24.8-35.9c2.6-29.7,17.2-32.2,30.6-31
					C253.3,64.4,267.5,69.8,265,99.1z M242.1,97.1c1.6-18-1-18.6-3.2-18.8c-1.7-0.2-4.9-0.1-6.5,17.9c-1.6,18.1,1.6,18.7,3.2,18.9
					C237.2,115.3,240.5,115.6,242.1,97.1z"/>
			</g>
			<g>
				<path class="st1" d="M284.2,126.3l-5.1,9.1l-7.5-0.7l2.6-9.3l0.6-7.3l10.8,0.9L284.2,126.3z"/>
			</g>
			<g>
				<path class="st1" d="M349.4,106.5c-2.6,29.4-16.9,32.2-30.6,31c-14.4-1.3-27.3-7.4-24.8-35.9c2.6-29.7,17.2-32.2,30.6-31
					C337.6,71.8,351.9,77.2,349.4,106.5z M326.5,104.5c1.6-18-1-18.6-3.2-18.8c-1.7-0.2-4.9-0.1-6.5,17.9
					c-1.6,18.1,1.6,18.7,3.2,18.9C321.6,122.7,324.9,123,326.5,104.5z"/>
			</g>
			<g>
				<path class="st1" d="M412.8,112.1c-2.6,29.4-16.9,32.2-30.6,31c-14.4-1.3-27.3-7.4-24.8-35.9c2.6-29.7,17.2-32.2,30.6-31
					C401.1,77.3,415.4,82.7,412.8,112.1z M390,110.1c1.6-18-1-18.6-3.2-18.8c-1.7-0.2-4.9-0.1-6.5,17.9c-1.6,18.1,1.6,18.7,3.2,18.9
					C385,128.2,388.4,128.5,390,110.1z"/>
			</g>
			<g>
				<path class="st1" d="M476.3,117.6c-2.6,29.4-16.9,32.2-30.6,31c-14.4-1.3-27.3-7.4-24.8-35.9c2.6-29.7,17.2-32.2,30.6-31
					C464.6,82.9,478.9,88.3,476.3,117.6z M453.4,115.6c1.6-18-1-18.6-3.2-18.8c-1.7-0.2-4.9-0.1-6.5,17.9
					c-1.6,18.1,1.6,18.7,3.2,18.9C448.5,133.8,451.8,134.1,453.4,115.6z"/>
			</g>
			<g>
				<path class="st1" d="M198.9,172.4l-24.5-2.1l2.5-28.5c0,0,8.5-0.4,12.2,0c6.9,0.6,13,2.6,12.3,10.6l-1.3,14.3L198.9,172.4z
					 M193.7,151.6c0.2-2.8-3.9-3.5-6.8-3.8c-0.6-0.1-2.8-0.1-2.8-0.1l-1.5,17.4l9.9,0.9L193.7,151.6z"/>
			</g>
			<g>
				<path class="st1" d="M209.4,163.8l1.2-13.7l-4-0.3l1.2-5.8l11,1l-1.6,18.7L209.4,163.8z"/>
			</g>
			<g>
				<path class="st1" d="M246.9,153.3l-4.2-0.4l-2,23.2l-7.7-0.7l2-23.2l-12.6-1.1l0.5-5.9l25.2,2.2L246.9,153.3z"/>
			</g>
			<g>
				<path class="st1" d="M252.3,177.1l2-23.2l-4-0.3l1.2-5.8l11,1l-2.5,29L252.3,177.1z"/>
			</g>
			<g>
				<path class="st1" d="M291.6,180.5l-11.3-1l0.5-5.9l4.4,0.4l1.3-14.6c0.2-2.1-0.6-2.8-3-3c-3.3-0.3-6.7,1.2-6.7,1.2l-3,21.3
					l-7.7-0.7l3.8-22.7l-0.7-6.3l7,0.6l0.5,2.9c0,0,5.7-2.9,10.3-2.5c4.8,0.4,7.9,2.8,7.3,9.4l-1.3,15.1L291.6,180.5z"/>
			</g>
			<g>
				<path class="st1" d="M302,171.9l1.2-13.7l-4-0.4l1.2-5.8l11,1l-1.6,18.7L302,171.9z"/>
			</g>
			<g>
				<path class="st1" d="M338.1,169.5c-1,11.6-8.3,14.7-13.6,14.2c-3-0.3-7.6-0.9-7.6-0.9l1.2-5.8c0,0,3.5,0.4,5.3,0.6
					c4.4,0.4,6.4-2.1,7-8.7l0.7-8.2l-15.9-1.4l1.2-13.5l7.7,0.7l-0.7,7.7l15.9,1.4L338.1,169.5z"/>
			</g>
			<g>
				<path class="st1" d="M378.9,188.2l1.8-20.2c0.2-2.8-3.9-3.5-6.8-3.8c-0.6-0.1-2.8-0.1-2.8-0.1l-1.3,14.5c-0.7,8-4.8,8.9-9.4,8.5
					c-2.9-0.3-4.1-1.2-4.1-1.2l1.2-5.7c0,0,0.4,0.4,1.8,0.5c1.6,0.1,2.6-0.4,2.8-2.6l1.3-14.5l-3.9-0.3l1.2-5.4
					c0,0,11.8-0.1,15.4,0.2c6.9,0.6,13,2.6,12.3,10.6l-1.8,20.2L378.9,188.2z"/>
			</g>
			<g>
				<path class="st1" d="M402.7,190.2l-0.6-4.9c0,0-2.3,5.2-5.9,4.9c-1.9-0.2-3.9-0.8-3.9-0.8l1.3-7.1c0,0,2.7,0.8,4.3,0.9
					c1.7,0.1,4-2.9,4-2.9l0.9-10.7c0.2-2.2-0.7-2.9-2.3-3.1c-1.4-0.1-5.1,0.1-5.1,0.1l0.5-6c0,0,3.9-0.5,6.8-0.2
					c4.6,0.4,8.5,2,7.8,10l-1.8,20.3L402.7,190.2z"/>
			</g>
			<g>
				<path class="st1" d="M438.9,178.3c-1,11.6-8.3,14.7-13.6,14.2c-3-0.3-7.6-0.9-7.6-0.9l1.2-5.8c0,0,3.5,0.4,5.3,0.6
					c4.4,0.4,6.4-2.1,7-8.7l0.7-8.2l-15.9-1.4l1.2-13.5l7.7,0.7l-0.7,7.7l15.9,1.4L438.9,178.3z"/>
			</g>
			<g>
				<path class="st1" d="M468.9,196l-11.3-1l0.5-5.9l4.4,0.4l1.3-14.6c0.2-2.1-0.6-2.8-3-3c-3.3-0.3-6.7,1.2-6.7,1.2l-3,21.3
					l-7.7-0.7l3.8-22.7l-0.7-6.3l7,0.6l0.5,2.9c0,0,5.7-2.9,10.3-2.5c4.8,0.4,7.9,2.8,7.3,9.4l-1.3,15.1L468.9,196z"/>
			</g>
			<g>
				<path class="st1" d="M185.5,227.1l2.8-32.5l-3.3-0.3l0.5-5.9l11,1l-3.4,38.3L185.5,227.1z"/>
			</g>
			<g>
				<path class="st1" d="M203.5,219.3l2-23.2l-4-0.3l1.2-5.8l11,1l-2.5,29L203.5,219.3z"/>
			</g>
			<g>
				<path class="st1" d="M256.6,209.9c-0.9,10.8-6.1,13.5-16,12.7l-21.3-1.9l2.5-29l7.7,0.7l-2,23.2l5.9,0.5c0,0,1.8-8,2-10.6
					l0.7-12.5l6.9,0.6l-0.7,12.6c-0.1,2.1-2.3,10.4-2.3,10.4l2.1,0.2c3.6,0.3,6.3-0.3,7-7.8l1.3-14.8l7.6,0.7L256.6,209.9z"/>
			</g>
			<g>
				<path class="st1" d="M279.1,225.9l-8.5-17.1c0,0-0.7,4.4-0.9,5.4l-2.1,10.7l-7.9-0.7l6.5-22.8l-3-6.2l8.5,0.7l6.5,14
					c0,0,1.1-5.8,1.4-7l1.8-6.1l7.3,0.6l-6.2,19.6l5.3,9.6L279.1,225.9z"/>
			</g>
			<g>
				<path class="st1" d="M304.8,228.2l1.8-20.2c0.2-2.8-2.8-3.4-5.7-3.7c-2.2-0.2-9.2,0-9.2,0l0.5-5.9c0,0,7.3-0.5,10.9-0.1
					c6.9,0.6,11.8,2.5,11.1,10.5l-1.8,20.2L304.8,228.2z"/>
			</g>
			<g>
				<path class="st1" d="M347.1,231.9l1.8-20.2c0.2-2.8-2.8-3.4-5.7-3.7c-2.2-0.2-9.2,0-9.2,0l0.5-5.9c0,0,7.3-0.5,10.9-0.1
					c6.9,0.6,11.8,2.5,11.1,10.5l-1.8,20.2L347.1,231.9z"/>
			</g>
			<g>
				<path class="st1" d="M378.8,234.7l-8.5-17.1c0,0-0.7,4.4-0.9,5.4l-2.1,10.7l-7.9-0.7l6.5-22.8l-3-6.2l8.5,0.7l6.5,14
					c0,0,1.1-5.8,1.4-7l1.8-6.1l7.3,0.6l-6.2,19.6l5.3,9.6L378.8,234.7z"/>
			</g>
			<g>
				<path class="st1" d="M393.7,236l2-23.2l-4-0.3l1.2-5.8l11,1l-2.5,29L393.7,236z"/>
			</g>
			<g>
				<path class="st1" d="M429.2,239.1l1.8-20.2c0.2-2.8-3.9-3.5-6.8-3.8c-0.6-0.1-2.8-0.1-2.8-0.1l-1.3,14.5c-0.7,8-4.8,8.9-9.4,8.5
					c-2.9-0.3-4.1-1.2-4.1-1.2l1.2-5.7c0,0,0.4,0.4,1.8,0.5c1.6,0.1,2.6-0.4,2.8-2.6l1.3-14.5l-3.9-0.3l1.2-5.4
					c0,0,11.8-0.1,15.4,0.2c6.9,0.6,13,2.6,12.3,10.6l-1.8,20.2L429.2,239.1z"/>
			</g>
			<g>
				<path class="st1" d="M466.9,227.2c-1,11.6-8.3,14.7-13.6,14.2c-3-0.3-7.6-0.9-7.6-0.9l1.2-5.8c0,0,3.5,0.4,5.3,0.6
					c4.4,0.4,6.4-2.1,7-8.7l0.7-8.2l-15.9-1.4l1.2-13.5l7.7,0.7l-0.7,7.7l15.9,1.4L466.9,227.2z"/>
			</g>
		</g>
		<g>
			<g>
				<path class="st1" d="M97.9,184.3l1-11.8c0.5-5.3-1.4-6-2.9-6.1c-2.1-0.2-3.4,1.5-3.5,3c-0.2,2.8,1.7,3.2,2.4,3.3
					c0.2,0,0.3,0,0.3,0l-0.4,1.7l-0.2,0c-1-0.1-4.8-0.7-4.4-5.1c0.1-1.5,1.5-4.9,6-4.5c2.6,0.2,5.8,1.4,5.2,8l-1,11.8L97.9,184.3z"
					/>
			</g>
			<g>
				<path class="st1" d="M105.4,180.3l1.1-12.3l-1.9-0.2l0.5-2.1l4.1,0.4l-1.3,14.4L105.4,180.3z"/>
			</g>
			<g>
				<path class="st1" d="M123.6,174.6c-0.6,6.7-4.2,7.2-6.8,6.9c-1.8-0.2-3.9-0.6-3.9-0.6l0.4-1.9c0,0,2.3,0.5,3.7,0.6
					c1.2,0.1,3.7-0.1,4.2-5.2c0.5-5.3-1.4-6-2.9-6.1c-2.1-0.2-3.4,1.5-3.5,3c-0.2,2.8,1.7,3.2,2.4,3.3c0.2,0,0.3,0,0.3,0l-0.4,1.7
					l-0.2,0c-1-0.1-4.8-0.7-4.4-5.1c0.1-1.5,1.5-4.9,6-4.5C120.9,166.9,124.2,168,123.6,174.6z"/>
			</g>
			<g>
				<path class="st1" d="M135.7,175.7c-0.6,6.8-4.4,7-6.7,6.8c-1.5-0.1-3.7-0.6-3.7-0.6l0.2-2.2c0,0,2.4,0.5,3.7,0.6
					c1.7,0.1,3.7-0.2,4.1-4.8c0.4-5-1.6-5.6-3.4-5.7c-1.3-0.1-3.5,0.1-3.5,0.1l0.2-2.1c0,0,2.1-0.2,3.6-0.1
					C132.3,167.9,136.3,168.9,135.7,175.7z"/>
			</g>
			<g>
				<path class="st1" d="M143.9,176c-0.5,6.2-4.6,10.5-4.6,10.5l-2.4-0.2c0,0,3.7-3.9,4.3-10.6s-2.4-11.2-2.4-11.2l2.4,0.2
					C141.2,164.8,144.5,169.8,143.9,176z"/>
			</g>
			<g>
				<path class="st1" d="M71.4,206.6c0,0-3.3-5-2.7-11.2c0.5-6.2,4.6-10.5,4.6-10.5l2.4,0.2c0,0-3.7,3.9-4.3,10.6
					c-0.6,6.6,2.4,11.2,2.4,11.2L71.4,206.6z"/>
			</g>
			<g>
				<path class="st1" d="M76.5,208.4l1.5-16.9l-1.6-0.1l0.2-2.1l4.1,0.4l-1.7,19L76.5,208.4z"/>
			</g>
			<g>
				<path class="st1" d="M84.4,204.5l1.1-12.3l-1.9-0.2L84,190l4.1,0.4l-1.3,14.4L84.4,204.5z"/>
			</g>
			<g>
				<path class="st1" d="M90.2,205l0.2-2.1l4.3,0.4l0.8-9c0.1-1.3-0.3-1.5-1.2-1.6c-0.9-0.1-2.5,0.1-2.5,0.1l0.2-2.1
					c0,0,1.5-0.2,3-0.1c2.1,0.2,3.2,1.1,2.9,3.9l-1,11L90.2,205z"/>
			</g>
			<g>
				<path class="st1" d="M100.7,210.6l1.2-13.8l2.5-0.1l-1.2,14.1L100.7,210.6z M108.8,206.6l-2.8-0.2l5.1-11.9l-8.9-0.8l0.2-2.1
					l11.1,1l-0.2,1.8L108.8,206.6z"/>
			</g>
			<g>
				<path class="st1" d="M125,208l0.9-10.5c0.2-2-0.8-2.1-3.3-2.3c-0.6,0-2.2-0.1-2.2-0.1l-0.8,8.8c-0.3,2.9-1.8,3.6-3.9,3.5
					c-1.1-0.1-1.4-0.3-1.4-0.3l0.2-2.1c0,0,0.4,0.1,1.1,0.2c1,0.1,1.5-0.3,1.6-1.6l0.7-8.5l-1.9-0.2l0.4-1.9c0,0,6.2-0.1,7.3,0
					c3.2,0.3,4.9,1.1,4.6,5.1l-0.9,10L125,208z"/>
			</g>
			<g>
				<path class="st1" d="M140.9,205.6c-0.3,3-2.2,3.8-4.7,3.6c-1.5-0.1-4.2-0.5-4.2-0.5l0.4-1.9c0,0,2.5,0.3,3.9,0.4
					c1.3,0.1,2-0.3,2.1-1.6l0.8-8.6l-7.7-0.7l0.5-5.9l2.4,0.2l-0.3,3.8l7.7,0.7L140.9,205.6z"/>
			</g>
		</g>
	</g>
</g>
</svg>
