<svg style="position: absolute; width: 0; height: 0;" width="0" height="0" version="1.1" xmlns="http://www.w3.org/2000/svg" xmlns:xlink="http://www.w3.org/1999/xlink">
<defs>
<symbol id="icon-arrow" viewBox="0 0 32 32">
<title>arrow</title>
<path fill="#fff" class="path1 fill-color3" d="M32 16c0 8.837-7.163 16-16 16s-16-7.163-16-16c0-8.837 7.163-16 16-16s16 7.163 16 16z"></path>
<path fill="#98c21f" class="path2 fill-color1" d="M16 26.28c-0.72 0-1.28-0.56-1.28-1.28v-18c0-0.72 0.56-1.28 1.28-1.28s1.28 0.56 1.28 1.28v18c0 0.72-0.56 1.28-1.28 1.28z"></path>
<path fill="#98c21f" class="path3 fill-color1" d="M16 26.32c-0.32 0-0.64-0.12-0.92-0.36l-8-8c-0.48-0.48-0.48-1.32 0-1.8s1.32-0.48 1.8 0l7.12 7.080 7.080-7.080c0.48-0.48 1.32-0.48 1.8 0s0.48 1.32 0 1.8l-8 8c-0.24 0.24-0.56 0.36-0.88 0.36z"></path>
</symbol>
<symbol id="icon-form" viewBox="0 0 32 32">
<title>form</title>
<path fill="#757b82" class="path1 fill-color2" d="M32 16c0 8.832-7.168 16-16 16s-16-7.168-16-16 7.168-16 16-16c8.832 0 16 7.168 16 16zM21.92 6.4h-8.736l-4.864 4.864v12.576c0 0.96 0.768 1.76 1.76 1.76h11.872c0.96 0 1.76-0.768 1.76-1.76v-15.68c-0.032-0.992-0.832-1.76-1.792-1.76zM12.832 8.384v2.528h-2.528l2.528-2.528zM22.528 23.84c0 0.32-0.256 0.576-0.576 0.576h-11.872c-0.32 0-0.576-0.256-0.576-0.576v-11.744h3.936c0.32 0 0.576-0.256 0.576-0.576v-3.968h7.936c0.32 0 0.576 0.256 0.576 0.576v15.712zM20.352 10.496h-4.576c-0.32 0-0.576 0.256-0.576 0.576s0.256 0.576 0.576 0.576h4.576c0.32 0 0.576-0.256 0.576-0.576 0.032-0.32-0.256-0.576-0.576-0.576zM20.352 12.96h-8.704c-0.32 0-0.576 0.256-0.576 0.576s0.256 0.576 0.576 0.576h8.736c0.32 0 0.576-0.256 0.576-0.576s-0.288-0.576-0.608-0.576zM20.352 15.424h-8.704c-0.32 0-0.576 0.256-0.576 0.576s0.256 0.576 0.576 0.576h8.736c0.32 0 0.576-0.256 0.576-0.576s-0.288-0.576-0.608-0.576zM20.352 17.888h-8.704c-0.32 0-0.576 0.256-0.576 0.576s0.256 0.576 0.576 0.576h8.736c0.32 0 0.576-0.256 0.576-0.576s-0.288-0.576-0.608-0.576zM20.352 20.352h-8.704c-0.32 0-0.576 0.256-0.576 0.576s0.256 0.576 0.576 0.576h8.736c0.32 0 0.576-0.256 0.576-0.576s-0.288-0.576-0.608-0.576z"></path>
</symbol>
<symbol id="icon-job-experience" viewBox="0 0 32 32">
<title>job-experience</title>
<path fill="#98c21f" class="path1 fill-color1" d="M28.015 7.564h-6.604v-1.367c0-1.076-0.873-1.949-1.949-1.949h-6.924c-1.076 0-1.949 0.873-1.949 1.949v1.367h-6.604c-1.396 0-2.531 1.135-2.531 2.531v15.127c0 1.396 1.135 2.531 2.531 2.531h24.029c1.396 0 2.531-1.135 2.531-2.531v-15.127c0-1.396-1.135-2.531-2.531-2.531zM11.578 6.196c0-0.524 0.436-0.96 0.96-0.96h6.924c0.524 0 0.96 0.436 0.96 0.96v1.367h-8.844v-1.367zM29.556 25.222c0 0.844-0.698 1.542-1.542 1.542h-24.029c-0.844 0-1.542-0.698-1.542-1.542v-8.64c0.785 0.844 2.036 1.542 3.753 2.124 2.124 0.698 4.829 1.164 7.767 1.28v1.629c0 0.262 0.233 0.495 0.495 0.495h3.113c0.262 0 0.495-0.233 0.495-0.495v-1.6c4.916-0.233 9.542-1.309 11.52-3.404v8.611zM14.953 21.12v-2.996h2.095v2.996h-2.095zM29.556 14.284c0 2.793-5.615 4.422-11.52 4.713v-1.367c0-0.262-0.233-0.495-0.495-0.495h-3.084c-0.262 0-0.495 0.233-0.495 0.495v1.367c-5.905-0.291-11.52-1.92-11.52-4.713v-4.189c0-0.844 0.698-1.542 1.542-1.542h24.029c0.844 0 1.542 0.698 1.542 1.542v4.189z"></path>
</symbol>
<symbol id="icon-location" viewBox="0 0 25 32">
<title>location</title>
<path fill="#98c21f" class="path1 fill-color1" d="M12.48 0c-6.88 0-12.48 5.6-12.48 12.48 0 8.448 12.48 19.52 12.48 19.52s12.48-11.072 12.48-19.52c0-6.88-5.568-12.48-12.48-12.48zM12.48 20.256c-4.288 0-7.744-3.488-7.744-7.744 0-4.288 3.488-7.744 7.744-7.744s7.776 3.424 7.776 7.712c0 4.288-3.488 7.776-7.776 7.776z"></path>
</symbol>
<symbol id="icon-phone" viewBox="0 0 32 32">
<title>phone</title>
<path fill="#98c21f" class="path1 fill-color1" d="M16 0c-8.832 0-16 7.168-16 16s7.168 16 16 16c8.832 0 16-7.168 16-16s-7.168-16-16-16zM25.824 22.208c-0.736 2.528-2.688 4.128-5.6 3.808-0.96-0.064-5.248-0.928-9.216-4.928-4-3.936-4.768-8.192-4.832-9.12-0.288-2.88 0.96-5.088 3.328-5.952 0.704-0.256 1.472 0.128 1.792 0.768l1.28 2.752c0.256 0.544 0.128 1.216-0.288 1.632l-1.952 1.952c0 0 0.032 1.536 3.232 4.736 3.040 3.104 4.672 3.232 4.672 3.232l1.92-1.92c0.448-0.448 1.12-0.544 1.696-0.256l3.232 1.632c0.608 0.288 0.928 0.992 0.736 1.664z"></path>
</symbol>
<symbol id="icon-professional-certifications" viewBox="0 0 32 32">
<title>professional-certifications</title>
<path fill="#98c21f" class="path1 fill-color1" d="M26.298 2.385h-20.858c-0.262 0-0.465-0.204-0.465-0.465s0.204-0.465 0.465-0.465h20.858c0.262 0 0.465 0.204 0.465 0.465s-0.204 0.465-0.465 0.465z"></path>
<path fill="#98c21f" class="path2 fill-color1" d="M30.051 7.796h-6.080c-0.262 0-0.465-0.204-0.465-0.465s0.204-0.465 0.465-0.465h5.149v-2.124c0-1.28-1.047-2.356-2.356-2.356-0.262 0-0.465-0.204-0.465-0.465s0.233-0.465 0.495-0.465c1.804 0 3.287 1.484 3.287 3.287v3.055z"></path>
<path fill="#98c21f" class="path3 fill-color1" d="M2.415 17.862c-0.262 0-0.465-0.204-0.465-0.465v-12.451c0-1.92 1.571-3.491 3.491-3.491 0.262 0 0.465 0.204 0.465 0.465s-0.204 0.465-0.465 0.465c-1.425 0-2.56 1.164-2.56 2.56v12.451c0 0.262-0.233 0.465-0.465 0.465z"></path>
<path fill="#98c21f" class="path4 fill-color1" d="M24.087 30.545l-22.109-0.029v-16.407c0-0.262 0.204-0.465 0.465-0.465s0.465 0.204 0.465 0.465v15.476l20.247 0.029-0.029-24.669c0-1.92 1.571-3.491 3.491-3.491 0.262 0 0.465 0.204 0.465 0.465s-0.204 0.465-0.465 0.465c-1.425 0-2.56 1.164-2.56 2.56l0.029 25.6z"></path>
<path fill="#98c21f" class="path5 fill-color1" d="M17.105 14.458c-2.385 0-4.305-1.92-4.305-4.305s1.92-4.305 4.305-4.305c2.385 0 4.305 1.92 4.305 4.305s-1.949 4.305-4.305 4.305zM17.105 6.778c-1.862 0-3.375 1.513-3.375 3.375s1.513 3.375 3.375 3.375c1.862 0 3.375-1.513 3.375-3.375s-1.513-3.375-3.375-3.375z"></path>
<path fill="#98c21f" class="path6 fill-color1" d="M13.818 18.88v-5.789c0-0.262 0.204-0.465 0.465-0.465s0.465 0.204 0.465 0.465v4.015l2.327-1.6 2.385 1.6v-4.015c0-0.262 0.204-0.465 0.465-0.465s0.465 0.204 0.465 0.465v5.789l-3.316-2.24-3.258 2.24z"></path>
<path fill="#98c21f" class="path7 fill-color1" d="M11.898 13.585h-6.429c-0.262 0-0.465-0.204-0.465-0.465s0.204-0.465 0.465-0.465h6.429c0.262 0 0.465 0.204 0.465 0.465s-0.204 0.465-0.465 0.465z"></path>
<path fill="#98c21f" class="path8 fill-color1" d="M12.625 18.531h-7.156c-0.262 0-0.465-0.204-0.465-0.465s0.204-0.465 0.465-0.465h7.156c0.262 0 0.465 0.204 0.465 0.465s-0.204 0.465-0.465 0.465z"></path>
<path fill="#98c21f" class="path9 fill-color1" d="M12.625 16.058h-7.156c-0.262 0-0.465-0.204-0.465-0.465s0.204-0.465 0.465-0.465h7.156c0.262 0 0.465 0.204 0.465 0.465s-0.204 0.465-0.465 0.465z"></path>
<path fill="#98c21f" class="path10 fill-color1" d="M11.258 11.113h-5.789c-0.262 0-0.465-0.204-0.465-0.465s0.204-0.465 0.465-0.465h5.789c0.262 0 0.465 0.204 0.465 0.465 0 0.233-0.204 0.465-0.465 0.465z"></path>
<path fill="#98c21f" class="path11 fill-color1" d="M11.811 8.611h-6.342c-0.262 0-0.465-0.204-0.465-0.465s0.204-0.465 0.465-0.465h6.342c0.262 0 0.465 0.204 0.465 0.465s-0.204 0.465-0.465 0.465z"></path>
<path fill="#98c21f" class="path12 fill-color1" d="M19.142 21.033h-13.673c-0.262 0-0.465-0.204-0.465-0.465s0.204-0.465 0.465-0.465h13.673c0.262 0 0.465 0.204 0.465 0.465s-0.204 0.465-0.465 0.465z"></path>
<path fill="#98c21f" class="path13 fill-color1" d="M19.142 23.622h-13.673c-0.262 0-0.465-0.204-0.465-0.465s0.204-0.465 0.465-0.465h13.673c0.262 0 0.465 0.204 0.465 0.465 0 0.233-0.204 0.465-0.465 0.465z"></path>
</symbol>
<symbol id="icon-simulation-center" viewBox="0 0 32 32">
<title>simulation-center</title>
<path fill="#98c21f" class="path1 fill-color1" d="M10.444 29.12c-0.262 0-0.495-0.233-0.495-0.495s0.233-0.495 0.495-0.495h5.062v-5.469h-13.702c-0.262 0-0.495-0.233-0.495-0.495v-18.793c0-0.262 0.233-0.495 0.495-0.495h28.393c0.262 0 0.495 0.233 0.495 0.495v18.764c0 0.262-0.233 0.495-0.495 0.495h-13.702v5.469h5.062c0.262 0 0.495 0.233 0.495 0.495s-0.233 0.495-0.495 0.495h-11.113zM29.702 21.673v-17.804h-27.404v17.804h27.404z"></path>
<path fill="#98c21f" class="path2 fill-color1" d="M16.029 18.298c0 0-0.029 0-0.058 0-3.113-0.029-6.109-1.687-8.902-4.975-0.175-0.204-0.145-0.495 0.029-0.669 0.087-0.087 0.204-0.175 0.32-0.291l0.029-0.029c1.6-1.513 4.538-4.335 8.524-4.364 0 0 0.029 0 0.029 0 0.029 0 0.029 0 0.058 0 3.956 0.029 6.924 2.851 8.524 4.364l0.029 0.029c0.116 0.116 0.233 0.204 0.32 0.291 0.204 0.175 0.204 0.465 0.029 0.669-2.764 3.258-5.76 4.945-8.873 4.975-0.029 0-0.058 0-0.058 0zM8.116 13.033c2.502 2.822 5.149 4.247 7.855 4.276 2.735-0.029 5.382-1.455 7.884-4.276-1.513-1.425-4.276-4.073-7.855-4.102v0c-3.607 0.029-6.371 2.676-7.884 4.102z"></path>
<path fill="#98c21f" class="path3 fill-color1" d="M16 16.262c-1.716 0-3.113-1.396-3.113-3.113s1.396-3.113 3.113-3.113c1.716 0 3.113 1.396 3.113 3.113s-1.396 3.113-3.113 3.113zM16 10.996c-1.164 0-2.124 0.96-2.124 2.124s0.96 2.124 2.124 2.124c1.164 0 2.124-0.96 2.124-2.124s-0.96-2.124-2.124-2.124z"></path>
</symbol>
</defs>
</svg>
