<svg style="position: absolute; width: 0; height: 0; overflow: hidden;" version="1.1" xmlns="http://www.w3.org/2000/svg" xmlns:xlink="http://www.w3.org/1999/xlink">
<defs>
<symbol id="drums" viewBox="0 0 37 32">
<title>drums</title>
<path class="path1" fill="var(--color1, #98c21f)" d="M18.56 32c-6.115 0-10.56-0.64-13.181-1.821-2.099-0.96-2.336-1.971-2.362-2.166-0.001-0.011-0.001-0.023-0.001-0.035s0-0.025 0.001-0.037l-0-10.168c0-0.299 0.242-0.541 0.541-0.541s0.541 0.242 0.541 0.541v10.093c0.128 0.32 1.645 3.021 14.451 3.053 7.405-0.019 11.002-0.96 12.717-1.725 1.392-0.64 1.693-1.219 1.731-1.312v-10.109c0-0.299 0.242-0.541 0.541-0.541s0.541 0.242 0.541 0.541v10.17c0.001 0.011 0.001 0.023 0.001 0.035s-0 0.025-0.001 0.037c-0.026 0.194-0.262 1.214-2.361 2.165-2.643 1.181-7.078 1.821-13.158 1.821z"></path>
<path class="path2" fill="var(--color1, #98c21f)" d="M18.56 23.43c-4.035 0-7.834-0.32-10.694-0.912-3.254-0.662-4.832-1.546-4.832-2.698 0-0.299 0.242-0.541 0.541-0.541s0.541 0.242 0.541 0.541c0 0.214 0.726 0.979 3.952 1.642 2.794 0.573 6.515 0.89 10.477 0.89s7.68-0.32 10.477-0.89c3.229-0.662 3.939-1.427 3.939-1.642 0-0.299 0.242-0.541 0.541-0.541s0.541 0.242 0.541 0.541c0 1.152-1.574 2.035-4.816 2.701-2.848 0.586-6.646 0.909-10.666 0.909z"></path>
<path class="path3" fill="var(--color1, #98c21f)" d="M18.56 29.76c-3.958 0-7.76-0.378-10.707-1.069-3.2-0.746-4.8-1.702-4.8-2.851 0-0.299 0.242-0.541 0.541-0.541s0.541 0.242 0.541 0.541c0 0.227 0.73 1.043 3.968 1.798 2.88 0.669 6.586 1.040 10.464 1.040s7.594-0.368 10.464-1.040c3.216-0.758 3.93-1.571 3.93-1.798 0-0.299 0.242-0.541 0.541-0.541s0.541 0.242 0.541 0.541c0 1.149-1.6 2.109-4.8 2.851-2.934 0.691-6.739 1.069-10.682 1.069z"></path>
<path class="path4" fill="var(--color1, #98c21f)" d="M7.245 28.435c-0.292-0.009-0.525-0.247-0.525-0.541 0-0 0-0 0-0v-5.792c0-0.299 0.242-0.541 0.541-0.541s0.541 0.242 0.541 0.541v5.792c0 0 0 0 0 0 0 0.299-0.242 0.541-0.541 0.541-0.006 0-0.011-0-0.017-0z"></path>
<path class="path5" fill="var(--color1, #98c21f)" d="M11.76 29.229c-0.299 0-0.541-0.242-0.541-0.541v-5.92c0-0.299 0.242-0.541 0.541-0.541s0.541 0.242 0.541 0.541v5.92c0 0.299-0.242 0.541-0.541 0.541z"></path>
<path class="path6" fill="var(--color1, #98c21f)" d="M16.275 29.606c-0.299 0-0.541-0.242-0.541-0.541v-5.923c0-0.299 0.242-0.541 0.541-0.541s0.541 0.242 0.541 0.541v5.923c0 0.299-0.242 0.541-0.541 0.541z"></path>
<path class="path7" fill="var(--color1, #98c21f)" d="M20.8 29.606c-0.299 0-0.541-0.242-0.541-0.541v-5.923c0-0.299 0.242-0.541 0.541-0.541s0.541 0.242 0.541 0.541v5.923c0 0.299-0.242 0.541-0.541 0.541z"></path>
<path class="path8" fill="var(--color1, #98c21f)" d="M25.309 29.229c-0.299 0-0.541-0.242-0.541-0.541v-5.92c0-0.299 0.242-0.541 0.541-0.541s0.541 0.242 0.541 0.541v5.92c0 0.299-0.242 0.541-0.541 0.541z"></path>
<path class="path9" fill="var(--color1, #98c21f)" d="M29.824 28.435c-0.299 0-0.541-0.242-0.541-0.541v-5.792c0-0.299 0.242-0.541 0.541-0.541s0.541 0.242 0.541 0.541v5.792c0 0.299-0.242 0.541-0.541 0.541z"></path>
<path class="path10" fill="var(--color1, #98c21f)" d="M18.56 21.168c-4.038 0-7.843-0.32-10.707-0.912-3.261-0.662-4.838-1.546-4.838-2.701s1.578-2.035 4.822-2.701c2.88-0.586 6.669-0.912 10.707-0.912s7.843 0.32 10.707 0.912c3.245 0.666 4.822 1.549 4.822 2.701s-1.578 2.035-4.822 2.701c-2.864 0.589-6.666 0.912-10.691 0.912zM18.56 15.040c-3.968 0-7.68 0.32-10.493 0.89-3.245 0.646-3.971 1.411-3.971 1.626s0.726 0.982 3.958 1.645c2.797 0.573 6.522 0.89 10.493 0.89s7.68-0.32 10.493-0.89c3.232-0.662 3.958-1.427 3.958-1.642s-0.726-0.979-3.958-1.642c-2.8-0.576-6.525-0.877-10.48-0.877z"></path>
<path class="path11" fill="var(--color1, #98c21f)" d="M1.92 12.352c-0.739 0-1.677-0.282-1.885-1.072-0.017-0.083-0.026-0.179-0.026-0.277 0-0.452 0.203-0.856 0.523-1.126 0.339-0.336 0.758-0.587 1.227-0.723 0.204-0.060 0.416-0.093 0.635-0.098 0.003-0 0.004-0 0.004-0 0.113 0 0.223 0.013 0.328 0.037 0.048 0.013 0.114 0.022 0.182 0.022 0.105 0 0.205-0.020 0.297-0.058 2.282-0.961 5.143-1.936 8.077-2.734l24.055-6.298c0.062-0.016 0.133-0.026 0.206-0.026 0.003 0 0.006 0 0.009 0 0.534 0 1.206 0.502 1.449 1.466 0.059 0.185 0.094 0.397 0.094 0.617 0 0.348-0.086 0.677-0.237 0.965-0.122 0.227-0.336 0.406-0.592 0.486l-23.559 6.181c-2.398 0.685-5.383 1.315-8.428 1.758-0.587 0.077-0.754 0.173-0.873 0.312-0.211 0.234-0.485 0.406-0.796 0.488-0.203 0.052-0.423 0.080-0.649 0.080-0.014 0-0.029-0-0.043-0zM2.397 10.134c-0.124 0.006-0.241 0.026-0.352 0.060-0.285 0.086-0.538 0.24-0.742 0.442-0.185 0.189-0.227 0.32-0.217 0.368s0.32 0.266 0.838 0.266c0.003 0 0.007 0 0.011 0 0.139 0 0.274-0.018 0.403-0.050 0.099-0.024 0.193-0.082 0.264-0.16 0.291-0.331 0.694-0.556 1.149-0.617 3.392-0.481 6.327-1.099 9.19-1.89l22.983-6.041c0.059-0.125 0.094-0.271 0.094-0.426 0-0.122-0.021-0.238-0.061-0.346l0.002 0.007c-0.050-0.265-0.198-0.489-0.403-0.638l-23.494 6.142c-3.392 0.901-6.207 1.859-8.938 2.981 0.273-0.089 0.033-0.039-0.218-0.039-0.151 0-0.297-0.018-0.438-0.052z"></path>
<path class="path12" fill="var(--color1, #98c21f)" d="M35.168 12.352c-0.004 0-0.009 0-0.013 0-0.236 0-0.465-0.030-0.684-0.087-0.303-0.081-0.578-0.252-0.786-0.484-0.121-0.141-0.288-0.238-0.477-0.267-3.442-0.488-6.426-1.116-9.337-1.92l-5.218-1.383c-0.234-0.063-0.403-0.273-0.403-0.523 0-0.299 0.242-0.541 0.541-0.541 0.049 0 0.096 0.006 0.141 0.019l5.727 1.503c2.358 0.672 5.293 1.29 8.288 1.724 0.852 0.108 1.255 0.334 1.544 0.662 0.073 0.081 0.167 0.139 0.273 0.164 0.135 0.035 0.286 0.054 0.442 0.054s0.307-0.020 0.451-0.056c0.24-0.068 0.346-0.167 0.352-0.202s-0.032-0.179-0.218-0.368c-0.204-0.202-0.457-0.356-0.739-0.441-0.11-0.037-0.221-0.056-0.338-0.056-0.035 0-0.070 0.002-0.105 0.005-0.123 0.031-0.27 0.049-0.421 0.049-0.251 0-0.491-0.050-0.71-0.14-2.239-0.943-5.053-1.901-7.94-2.685l-1.881-0.478c-0.234-0.063-0.403-0.273-0.403-0.523 0-0.299 0.242-0.541 0.541-0.541 0.049 0 0.096 0.006 0.141 0.019l1.372 0.361c3.447 0.916 6.308 1.891 9.083 3.032-0.404-0.144-0.307-0.125-0.205-0.125 0.068 0 0.134-0.009 0.197-0.025 0.1-0.019 0.221-0.030 0.345-0.030 0.209 0 0.41 0.033 0.598 0.093 0.475 0.137 0.894 0.389 1.231 0.723 0.322 0.272 0.525 0.676 0.525 1.127 0 0.098-0.010 0.194-0.028 0.287-0.174 0.488-0.597 0.855-1.116 0.949-0.237 0.067-0.499 0.105-0.77 0.107z"></path>
<path class="path13" fill="var(--color1, #98c21f)" d="M13.395 6.813c-0.049-0-0.096-0.007-0.141-0.020l-12.422-3.257c-0.264-0.082-0.477-0.261-0.602-0.494-0.148-0.283-0.234-0.611-0.234-0.959 0-0.22 0.034-0.433 0.098-0.632 0.117-0.531 0.439-0.987 0.878-1.28 0.164-0.108 0.357-0.169 0.563-0.169 0.077 0 0.153 0.009 0.226 0.025l16.844 4.421c0.234 0.063 0.403 0.273 0.403 0.523 0 0.299-0.242 0.541-0.541 0.541-0.049 0-0.096-0.006-0.141-0.019l-16.783-4.406c-0.209 0.151-0.356 0.375-0.405 0.634l-0.001 0.006c-0.037 0.101-0.058 0.218-0.058 0.339 0 0.154 0.034 0.301 0.096 0.432l12.356 3.261c0.231 0.065 0.398 0.274 0.398 0.522 0 0.297-0.239 0.538-0.535 0.541z"></path>
</symbol>
<symbol id="hat" viewBox="0 0 53 32">
<title>hat</title>
<path class="path1" fill="var(--color1, #98c21f)" d="M27.043 30.57c-7.814 0-15.725-1.984-15.725-5.76v-10.678h1.92v10.666c0 1.574 5.382 3.862 13.814 3.862s13.814-2.288 13.814-3.862v-11.619h1.92v11.619c-0.019 3.789-7.93 5.773-15.744 5.773z"></path>
<path class="path2" fill="var(--color1, #98c21f)" d="M26.502 19.584c-0.003 0-0.007 0-0.011 0-0.111 0-0.217-0.019-0.316-0.053l-25.536-8.836c-0.372-0.138-0.632-0.49-0.632-0.902s0.26-0.765 0.626-0.9l25.555-8.841c0.095-0.035 0.205-0.055 0.32-0.055s0.225 0.020 0.327 0.057l25.539 8.836c0.372 0.138 0.632 0.49 0.632 0.902s-0.26 0.765-0.626 0.9l-25.568 8.828c-0.092 0.037-0.198 0.060-0.309 0.064zM3.875 9.792l22.627 7.827 22.627-7.827-22.627-7.827z"></path>
<path class="path3" fill="var(--color1, #98c21f)" d="M46.64 11.309h1.91v12.045h-1.91v-12.045z"></path>
<path class="path4" fill="var(--color1, #98c21f)" d="M49.274 22.81c0 0.965-0.683 1.747-1.526 1.747s-1.526-0.782-1.526-1.747c0-0.965 0.683-1.747 1.526-1.747s1.526 0.782 1.526 1.747z"></path>
<path class="path5" fill="var(--color1, #98c21f)" d="M45.99 32l1.757-11.472 1.757 11.472h-3.514z"></path>
</symbol>
<symbol id="mic" viewBox="0 0 20 32">
<title>mic</title>
<path class="path1" fill="var(--color1, #98c21f)" d="M19.334 14c-0.368 0-0.666 0.298-0.666 0.666v3.334c0 4.787-3.88 8.667-8.667 8.667s-8.667-3.88-8.667-8.667v-3.334c0-0.368-0.299-0.667-0.667-0.667s-0.667 0.299-0.667 0.667v3.334c0.007 5.286 4.113 9.611 9.31 9.966s0.031 0.024 0.031 0.034v3.334c0 0.369 0.299 0.667 0.667 0.667s0.667-0.299 0.667-0.667v-3.334s0-0.022 0-0.032c5.221-0.366 9.318-4.687 9.325-9.967v-3.335c0-0.368-0.298-0.666-0.666-0.666z"></path>
<path class="path2" fill="var(--color1, #98c21f)" d="M10 0c-3.679 0.005-6.66 2.986-6.666 6.665v11.335c0 3.682 2.985 6.667 6.667 6.667s6.667-2.985 6.667-6.667v-11.334c-0.005-3.68-2.988-6.662-6.668-6.666zM10 1.334c0.001 0 0.002 0 0.002 0 1.678 0 3.174 0.776 4.15 1.99l-1.486 0.010c-0.368 0-0.667 0.299-0.667 0.667s0.299 0.667 0.667 0.667h2.275c0.162 0.388 0.283 0.838 0.343 1.308l-2.618 0.026c-0.368 0-0.667 0.299-0.667 0.667s0.299 0.667 0.667 0.667h2.666v1.334h-2.666c-0.368 0-0.667 0.299-0.667 0.667s0.299 0.667 0.667 0.667h2.666v1.994h-10.666v-2h2.666c0.369 0 0.667-0.299 0.667-0.667s-0.299-0.667-0.667-0.667h-2.666v-1.331h2.666c0.369 0 0.667-0.299 0.667-0.667s-0.299-0.667-0.667-0.667h-2.618c0.062-0.496 0.184-0.947 0.358-1.37l2.262 0.035c0.369 0 0.667-0.299 0.667-0.667s-0.299-0.667-0.667-0.667h-1.491c0.983-1.222 2.479-1.997 4.155-1.997 0.001 0 0.001 0 0.002 0zM15.334 18c-0.073 2.889-2.433 5.204-5.333 5.204s-5.26-2.314-5.333-5.197l-0-4.672h10.666z"></path>
</symbol>
<symbol id="pc" viewBox="0 0 46 32">
<title>pc</title>
<path class="path1" fill="var(--color1, #98c21f)" d="M45.565 28.205l-2.899-2.88v-22.659c-0.002-1.471-1.194-2.664-2.665-2.666h-33.779c-1.471 0.002-2.664 1.194-2.666 2.665v22.656l-2.899 2.88c-0.405 0.405-0.656 0.965-0.656 1.584 0 0.006 0 0.011 0 0.017 0.009 1.215 0.997 2.198 2.214 2.198 0.009 0 0.018-0 0.027-0h41.759c0.008 0 0.017 0 0.026 0 1.216 0 2.204-0.981 2.214-2.194-0.001-0.628-0.259-1.195-0.675-1.601zM6.221 1.779h33.779c0.491 0 0.89 0.398 0.89 0.89v22.221h-35.555v-22.224c0.002-0.489 0.398-0.885 0.886-0.886zM43.981 30.224h-15.536c0.491 0 0.89-0.398 0.89-0.89s-0.398-0.89-0.89-0.89h-10.666c-0.491 0-0.89 0.398-0.89 0.89s0.398 0.89 0.89 0.89h-15.539c-0.006 0-0.013 0-0.020 0-0.234 0-0.424-0.184-0.435-0.416-0-0.007-0.001-0.015-0.001-0.023 0-0.126 0.052-0.239 0.135-0.32l2.813-2.8h36.765l2.813 2.797c0.083 0.081 0.135 0.195 0.135 0.32 0 0.008-0 0.015-0.001 0.023-0.010 0.231-0.201 0.415-0.435 0.415-0.007 0-0.014-0-0.021-0z"></path>
</symbol>
<symbol id="arrow" viewBox="0 0 32 32">
<path fill="#fff" class="path1 fill-color3" d="M32 16c0 8.837-7.163 16-16 16s-16-7.163-16-16c0-8.837 7.163-16 16-16s16 7.163 16 16z"></path>
<path fill="#98c21f" class="path2 fill-color1" d="M16 26.28c-0.72 0-1.28-0.56-1.28-1.28v-18c0-0.72 0.56-1.28 1.28-1.28s1.28 0.56 1.28 1.28v18c0 0.72-0.56 1.28-1.28 1.28z"></path>
<path fill="#98c21f" class="path3 fill-color1" d="M16 26.32c-0.32 0-0.64-0.12-0.92-0.36l-8-8c-0.48-0.48-0.48-1.32 0-1.8s1.32-0.48 1.8 0l7.12 7.080 7.080-7.080c0.48-0.48 1.32-0.48 1.8 0s0.48 1.32 0 1.8l-8 8c-0.24 0.24-0.56 0.36-0.88 0.36z"></path>
</symbol>
<symbol id="phone" viewBox="0 0 32 32">
<path class="path1 fill-color1" d="M16 0c-8.832 0-16 7.168-16 16s7.168 16 16 16c8.832 0 16-7.168 16-16s-7.168-16-16-16zM25.824 22.208c-0.736 2.528-2.688 4.128-5.6 3.808-0.96-0.064-5.248-0.928-9.216-4.928-4-3.936-4.768-8.192-4.832-9.12-0.288-2.88 0.96-5.088 3.328-5.952 0.704-0.256 1.472 0.128 1.792 0.768l1.28 2.752c0.256 0.544 0.128 1.216-0.288 1.632l-1.952 1.952c0 0 0.032 1.536 3.232 4.736 3.040 3.104 4.672 3.232 4.672 3.232l1.92-1.92c0.448-0.448 1.12-0.544 1.696-0.256l3.232 1.632c0.608 0.288 0.928 0.992 0.736 1.664z"></path>
</symbol>
</defs>
</svg>
